SplineFontDB: 3.0
FontName: HM_XBShafighKurd
FullName: HM_XBShafighKurd
FamilyName: HM_XBShafighKurd
Weight: Book
Copyright: Copyright (c) Hossein, 2013. All rights reserved.
Version: 0.11
ItalicAngle: 0
UnderlinePosition: -540
UnderlineWidth: 60
Ascent: 1638
Descent: 410
sfntRevision: 0x00010000
LayerCount: 2
Layer: 0 1 "Back"  1
Layer: 1 1 "Fore"  0
XUID: [1021 772 1764367632 14324895]
FSType: 0
OS2Version: 2
OS2_WeightWidthSlopeOnly: 0
OS2_UseTypoMetrics: 1
CreationTime: 1212716880
ModificationTime: 1360911911
PfmFamily: 17
TTFWeight: 400
TTFWidth: 5
LineGap: 0
VLineGap: 0
Panose: 2 0 5 3 7 0 0 2 0 4
OS2TypoAscent: 2100
OS2TypoAOffset: 0
OS2TypoDescent: -1100
OS2TypoDOffset: 0
OS2TypoLinegap: 0
OS2WinAscent: 2100
OS2WinAOffset: 0
OS2WinDescent: 1100
OS2WinDOffset: 0
HheadAscent: 2100
HheadAOffset: 0
HheadDescent: -1100
HheadDOffset: 0
OS2SubXSize: 1434
OS2SubYSize: 1331
OS2SubXOff: 0
OS2SubYOff: 293
OS2SupXSize: 1434
OS2SupYSize: 1331
OS2SupXOff: 0
OS2SupYOff: 928
OS2StrikeYSize: 102
OS2StrikeYPos: 512
OS2Vendor: 'pars'
OS2CodePages: 20000051.41000000
OS2UnicodeRanges: 00002003.80000000.00000008.00000000
Lookup: 6 1 0 "'ccmp' Glyph Composition/Decomposition in Arabic lookup 0"  {"'ccmp' Glyph Composition/Decomposition in Arabic lookup 0 contextual 0"  "'ccmp' Glyph Composition/Decomposition in Arabic lookup 0 contextual 1"  "'ccmp' Glyph Composition/Decomposition in Arabic lookup 0 contextual 2"  "'ccmp' Glyph Composition/Decomposition in Arabic lookup 0 contextual 3"  "'ccmp' Glyph Composition/Decomposition in Arabic lookup 0 contextual 4"  "'ccmp' Glyph Composition/Decomposition in Arabic lookup 0 contextual 5"  } ['ccmp' ('arab' <'ARA ' 'DRI ' 'FAR ' 'KUR ' 'PAS ' 'URD ' 'UYG ' 'UZB ' 'dflt' > ) ]
Lookup: 4 1 0 "'ccmp' Glyph Composition/Decomposition in Arabic lookup 1"  {"'ccmp' Glyph Composition/Decomposition in Arabic lookup 1 subtable"  } ['ccmp' ('arab' <'ARA ' 'DRI ' 'FAR ' 'KUR ' 'PAS ' 'URD ' 'UYG ' 'UZB ' 'dflt' > ) ]

StartChar: .notdef
Encoding: 65536 -1 0
Width: 1239
GlyphClass: 2
Flags: W
LayerCount: 2
Fore
SplineSet
690 330 m 0,0,1
 690 296 690 296 664.5 272 c 128,-1,2
 639 248 639 248 605 248 c 256,3,4
 571 248 571 248 547.5 272.5 c 128,-1,5
 524 297 524 297 524 330 c 0,6,7
 524 365 524 365 548 389 c 128,-1,8
 572 413 572 413 609 413 c 0,9,10
 643 413 643 413 666.5 389 c 128,-1,11
 690 365 690 365 690 330 c 0,0,1
809 861 m 0,12,13
 809 812 809 812 783 783 c 128,-1,14
 757 754 757 754 715 754 c 0,15,16
 681 754 681 754 660 775 c 128,-1,17
 639 796 639 796 639 827 c 0,18,19
 639 851 639 851 650 867.5 c 128,-1,20
 661 884 661 884 674.5 895.5 c 128,-1,21
 688 907 688 907 699 915.5 c 128,-1,22
 710 924 710 924 710 931 c 0,23,24
 710 953 710 953 688.5 966.5 c 128,-1,25
 667 980 667 980 634 980 c 0,26,27
 591 980 591 980 565 956.5 c 128,-1,28
 539 933 539 933 539 898 c 0,29,30
 539 879 539 879 550.5 850.5 c 128,-1,31
 562 822 562 822 576 794 c 128,-1,32
 590 766 590 766 602.5 743.5 c 128,-1,33
 615 721 615 721 617 715 c 0,34,35
 629 683 629 683 636.5 646 c 128,-1,36
 644 609 644 609 644 566 c 0,37,38
 644 544 644 544 642.5 520.5 c 128,-1,39
 641 497 641 497 639 468 c 1,40,-1
 596 468 l 1,41,-1
 596 488 l 1,42,-1
 600 521 l 1,43,44
 600 558 600 558 551 601 c 0,45,46
 509 637 509 637 486.5 658 c 128,-1,47
 464 679 464 679 459 685 c 0,48,49
 410 743 410 743 410 817 c 0,50,51
 410 862 410 862 426.5 900 c 128,-1,52
 443 938 443 938 471.5 966 c 128,-1,53
 500 994 500 994 537.5 1010 c 128,-1,54
 575 1026 575 1026 618 1026 c 0,55,56
 658 1026 658 1026 692.5 1014.5 c 128,-1,57
 727 1003 727 1003 753 981 c 128,-1,58
 779 959 779 959 794 929 c 128,-1,59
 809 899 809 899 809 861 c 0,12,13
146 34 m 1,60,-1
 1096 34 l 1,61,-1
 1096 1239 l 1,62,-1
 146 1239 l 1,63,-1
 146 34 l 1,60,-1
111 0 m 1,64,-1
 111 1274 l 1,65,-1
 1129 1274 l 1,66,-1
 1129 0 l 1,67,-1
 111 0 l 1,64,-1
EndSplineSet
EndChar

StartChar: exclam
Encoding: 33 33 4
Width: 621
GlyphClass: 2
Flags: W
LayerCount: 2
Fore
SplineSet
146 1418 m 1,0,-1
 384 1590 l 1,1,2
 373 1487 373 1487 356 1237.5 c 128,-1,3
 339 988 339 988 316 593 c 1,4,5
 282 576 282 576 219 560 c 1,6,7
 192 685 192 685 174 898.5 c 128,-1,8
 156 1112 156 1112 146 1418 c 1,0,-1
421 319 m 1,9,-1
 328 150 l 1,10,-1
 100 280 l 1,11,-1
 188 448 l 1,12,-1
 421 319 l 1,9,-1
EndSplineSet
EndChar

StartChar: quotedbl
Encoding: 34 34 5
Width: 555
GlyphClass: 2
Flags: W
LayerCount: 2
Fore
SplineSet
505 1650 m 1,0,1
 501 1577 501 1577 497.5 1523.5 c 128,-1,2
 494 1470 494 1470 490 1420.5 c 128,-1,3
 486 1371 486 1371 482.5 1317.5 c 128,-1,4
 479 1264 479 1264 475 1190 c 1,5,6
 470 1164 470 1164 456.5 1150.5 c 128,-1,7
 443 1137 443 1137 426 1137 c 0,8,9
 410 1137 410 1137 394.5 1150.5 c 128,-1,10
 379 1164 379 1164 371 1190 c 1,11,12
 367 1264 367 1264 363 1317.5 c 128,-1,13
 359 1371 359 1371 355.5 1420.5 c 128,-1,14
 352 1470 352 1470 348 1523.5 c 128,-1,15
 344 1577 344 1577 340 1650 c 1,16,17
 373 1759 373 1759 414 1759 c 0,18,19
 456 1759 456 1759 505 1650 c 1,0,1
215 1650 m 1,20,21
 211 1577 211 1577 207.5 1523.5 c 128,-1,22
 204 1470 204 1470 200 1420.5 c 128,-1,23
 196 1371 196 1371 192.5 1317.5 c 128,-1,24
 189 1264 189 1264 185 1190 c 1,25,26
 180 1164 180 1164 166.5 1150.5 c 128,-1,27
 153 1137 153 1137 136 1137 c 0,28,29
 120 1137 120 1137 104.5 1150.5 c 128,-1,30
 89 1164 89 1164 81 1190 c 1,31,32
 77 1264 77 1264 73 1317.5 c 128,-1,33
 69 1371 69 1371 65.5 1420.5 c 128,-1,34
 62 1470 62 1470 58 1523.5 c 128,-1,35
 54 1577 54 1577 50 1650 c 1,36,37
 83 1759 83 1759 124 1759 c 0,38,39
 166 1759 166 1759 215 1650 c 1,20,21
EndSplineSet
EndChar

StartChar: numbersign
Encoding: 35 35 6
Width: 1100
GlyphClass: 2
Flags: W
LayerCount: 2
Fore
SplineSet
614 556 m 1,0,1
 616 564 616 564 623.5 591 c 128,-1,2
 631 618 631 618 641.5 655 c 128,-1,3
 652 692 652 692 663.5 733.5 c 128,-1,4
 675 775 675 775 685.5 811.5 c 128,-1,5
 696 848 696 848 703.5 875 c 128,-1,6
 711 902 711 902 713 910 c 1,7,-1
 482 910 l 1,8,9
 480 902 480 902 472.5 875 c 128,-1,10
 465 848 465 848 455 811.5 c 128,-1,11
 445 775 445 775 434 733.5 c 128,-1,12
 423 692 423 692 413 655 c 128,-1,13
 403 618 403 618 395.5 591 c 128,-1,14
 388 564 388 564 386 556 c 1,15,-1
 614 556 l 1,0,1
11 556 m 1,16,-1
 245 556 l 1,17,18
 247 564 247 564 254.5 591 c 128,-1,19
 262 618 262 618 272 655 c 128,-1,20
 282 692 282 692 294 733.5 c 128,-1,21
 306 775 306 775 316 811.5 c 128,-1,22
 326 848 326 848 333.5 875 c 128,-1,23
 341 902 341 902 343 910 c 1,24,-1
 109 910 l 1,25,26
 117 939 117 939 123.5 965 c 128,-1,27
 130 991 130 991 138 1019 c 1,28,-1
 371 1019 l 1,29,30
 374 1031 374 1031 383 1066 c 128,-1,31
 392 1101 392 1101 404.5 1147 c 128,-1,32
 417 1193 417 1193 431 1244.5 c 128,-1,33
 445 1296 445 1296 457.5 1342 c 128,-1,34
 470 1388 470 1388 479 1422.5 c 128,-1,35
 488 1457 488 1457 491 1469 c 1,36,-1
 632 1469 l 1,37,-1
 510 1019 l 1,38,-1
 741 1019 l 1,39,40
 745 1033 745 1033 754.5 1067 c 128,-1,41
 764 1101 764 1101 776.5 1146 c 128,-1,42
 789 1191 789 1191 803 1241 c 128,-1,43
 817 1291 817 1291 829.5 1336.5 c 128,-1,44
 842 1382 842 1382 851.5 1417.5 c 128,-1,45
 861 1453 861 1453 865 1469 c 1,46,-1
 1003 1469 l 1,47,-1
 882 1019 l 1,48,-1
 1116 1019 l 1,49,50
 1108 990 1108 990 1101.5 964.5 c 128,-1,51
 1095 939 1095 939 1087 910 c 1,52,-1
 854 910 l 1,53,54
 843 868 843 868 830.5 822 c 128,-1,55
 818 776 818 776 806 734 c 2,56,-1
 755 556 l 1,57,-1
 990 556 l 1,58,59
 982 527 982 527 975.5 501.5 c 128,-1,60
 969 476 969 476 961 447 c 1,61,-1
 730 447 l 1,62,63
 727 435 727 435 718 401 c 128,-1,64
 709 367 709 367 696.5 322.5 c 128,-1,65
 684 278 684 278 669.5 227.5 c 128,-1,66
 655 177 655 177 642.5 131.5 c 128,-1,67
 630 86 630 86 620 50.5 c 128,-1,68
 610 15 610 15 606 0 c 1,69,-1
 467 0 l 1,70,-1
 589 447 l 1,71,-1
 356 447 l 1,72,73
 354 438 354 438 345 405.5 c 128,-1,74
 336 373 336 373 324 327.5 c 128,-1,75
 312 282 312 282 297.5 230 c 128,-1,76
 283 178 283 178 270.5 131.5 c 128,-1,77
 258 85 258 85 248.5 49 c 128,-1,78
 239 13 239 13 236 0 c 1,79,-1
 96 0 l 1,80,-1
 217 447 l 1,81,-1
 -16 447 l 1,82,-1
 11 556 l 1,16,-1
EndSplineSet
EndChar

StartChar: dollar
Encoding: 36 36 7
Width: 1134
GlyphClass: 2
Flags: W
LayerCount: 2
Fore
SplineSet
513 1313 m 1,0,1
 443 1309 443 1309 395 1286.5 c 128,-1,2
 347 1264 347 1264 317.5 1230 c 128,-1,3
 288 1196 288 1196 275 1154.5 c 128,-1,4
 262 1113 262 1113 261 1071 c 1,5,6
 261 1021 261 1021 279 982 c 128,-1,7
 297 943 297 943 330 913.5 c 128,-1,8
 363 884 363 884 409.5 864 c 128,-1,9
 456 844 456 844 513 832 c 1,10,-1
 513 1313 l 1,0,1
847 225 m 1,11,12
 882 286 882 286 882 366 c 0,13,14
 882 421 882 421 867 461.5 c 128,-1,15
 852 502 852 502 819 533.5 c 128,-1,16
 786 565 786 565 732.5 589 c 128,-1,17
 679 613 679 613 602 635 c 1,18,-1
 602 97 l 1,19,20
 692 102 692 102 753.5 133.5 c 128,-1,21
 815 165 815 165 847 225 c 1,11,12
515 1589 m 1,22,-1
 602 1589 l 1,23,-1
 602 1457 l 1,24,25
 700 1448 700 1448 776 1418 c 128,-1,26
 852 1388 852 1388 905 1338.5 c 128,-1,27
 958 1289 958 1289 987.5 1222 c 128,-1,28
 1017 1155 1017 1155 1021 1072 c 1,29,-1
 854 1072 l 1,30,31
 843 1184 843 1184 777 1244.5 c 128,-1,32
 711 1305 711 1305 602 1310 c 1,33,-1
 602 815 l 1,34,35
 720 782 720 782 801 751 c 128,-1,36
 882 720 882 720 921 692 c 0,37,38
 1054 598 1054 598 1054 415 c 0,39,40
 1054 284 1054 284 1009 189.5 c 128,-1,41
 964 95 964 95 883 38 c 1,42,43
 835 9 835 9 761 -12 c 128,-1,44
 687 -33 687 -33 602 -44 c 1,45,-1
 602 -239 l 1,46,-1
 515 -239 l 1,47,-1
 515 -43 l 1,48,49
 373 -32 373 -32 270.5 21 c 128,-1,50
 168 74 168 74 117 162 c 1,51,52
 91 211 91 211 77 279.5 c 128,-1,53
 63 348 63 348 61 430 c 1,54,-1
 230 430 l 1,55,56
 234 364 234 364 245.5 314 c 128,-1,57
 257 264 257 264 274 232 c 1,58,59
 290 207 290 207 315.5 185.5 c 128,-1,60
 341 164 341 164 372.5 146.5 c 128,-1,61
 404 129 404 129 440 117.5 c 128,-1,62
 476 106 476 106 513 101 c 1,63,-1
 513 657 l 1,64,65
 300 699 300 699 194.5 795.5 c 128,-1,66
 89 892 89 892 89 1059 c 0,67,68
 89 1134 89 1134 117 1204.5 c 128,-1,69
 145 1275 145 1275 199 1330 c 128,-1,70
 253 1385 253 1385 332.5 1419 c 128,-1,71
 412 1453 412 1453 515 1455 c 1,72,-1
 515 1589 l 1,22,-1
EndSplineSet
EndChar

StartChar: percent
Encoding: 37 37 8
Width: 1780
GlyphClass: 2
Flags: W
LayerCount: 2
Fore
SplineSet
1595 346 m 256,0,1
 1595 388 1595 388 1578 426.5 c 128,-1,2
 1561 465 1561 465 1532 494 c 128,-1,3
 1503 523 1503 523 1464.5 540 c 128,-1,4
 1426 557 1426 557 1383 557 c 0,5,6
 1341 557 1341 557 1302.5 540 c 128,-1,7
 1264 523 1264 523 1235 494.5 c 128,-1,8
 1206 466 1206 466 1189 427.5 c 128,-1,9
 1172 389 1172 389 1172 346 c 256,10,11
 1172 303 1172 303 1188.5 265 c 128,-1,12
 1205 227 1205 227 1234 198 c 128,-1,13
 1263 169 1263 169 1301.5 152 c 128,-1,14
 1340 135 1340 135 1383 135 c 0,15,16
 1427 135 1427 135 1465.5 152 c 128,-1,17
 1504 169 1504 169 1533 198.5 c 128,-1,18
 1562 228 1562 228 1578.5 266 c 128,-1,19
 1595 304 1595 304 1595 346 c 256,0,1
608 1042 m 256,20,21
 608 1084 608 1084 591 1122 c 128,-1,22
 574 1160 574 1160 545.5 1189.5 c 128,-1,23
 517 1219 517 1219 478.5 1236 c 128,-1,24
 440 1253 440 1253 397 1253 c 256,25,26
 354 1253 354 1253 315.5 1236 c 128,-1,27
 277 1219 277 1219 248 1190.5 c 128,-1,28
 219 1162 219 1162 202 1123.5 c 128,-1,29
 185 1085 185 1085 185 1042 c 256,30,31
 185 999 185 999 202 960.5 c 128,-1,32
 219 922 219 922 247.5 893 c 128,-1,33
 276 864 276 864 315 847.5 c 128,-1,34
 354 831 354 831 397 831 c 0,35,36
 441 831 441 831 479.5 848 c 128,-1,37
 518 865 518 865 546.5 894.5 c 128,-1,38
 575 924 575 924 591.5 962 c 128,-1,39
 608 1000 608 1000 608 1042 c 256,20,21
1240 1426 m 1,40,-1
 1343 1426 l 1,41,42
 1142 1059 1142 1059 942 694.5 c 128,-1,43
 742 330 742 330 542 -38 c 1,44,-1
 439 -38 l 1,45,-1
 1240 1426 l 1,40,-1
1730 346 m 256,46,47
 1730 275 1730 275 1702.5 212 c 128,-1,48
 1675 149 1675 149 1628 102 c 128,-1,49
 1581 55 1581 55 1518 27.5 c 128,-1,50
 1455 0 1455 0 1383 0 c 256,51,52
 1311 0 1311 0 1248 27.5 c 128,-1,53
 1185 55 1185 55 1138 102 c 128,-1,54
 1091 149 1091 149 1064 212 c 128,-1,55
 1037 275 1037 275 1037 346 c 256,56,57
 1037 417 1037 417 1064 480 c 128,-1,58
 1091 543 1091 543 1138 590 c 128,-1,59
 1185 637 1185 637 1248 664.5 c 128,-1,60
 1311 692 1311 692 1383 692 c 256,61,62
 1455 692 1455 692 1518 664.5 c 128,-1,63
 1581 637 1581 637 1628 590 c 128,-1,64
 1675 543 1675 543 1702.5 480 c 128,-1,65
 1730 417 1730 417 1730 346 c 256,46,47
743 1042 m 256,66,67
 743 971 743 971 716 908 c 128,-1,68
 689 845 689 845 642 798 c 128,-1,69
 595 751 595 751 532 723.5 c 128,-1,70
 469 696 469 696 397 696 c 256,71,72
 325 696 325 696 262 723.5 c 128,-1,73
 199 751 199 751 152 798 c 128,-1,74
 105 845 105 845 77.5 908 c 128,-1,75
 50 971 50 971 50 1042 c 256,76,77
 50 1113 50 1113 77.5 1176.5 c 128,-1,78
 105 1240 105 1240 152.5 1287 c 128,-1,79
 200 1334 200 1334 263 1361.5 c 128,-1,80
 326 1389 326 1389 397 1389 c 256,81,82
 468 1389 468 1389 531 1361.5 c 128,-1,83
 594 1334 594 1334 641 1286.5 c 128,-1,84
 688 1239 688 1239 715.5 1176 c 128,-1,85
 743 1113 743 1113 743 1042 c 256,66,67
EndSplineSet
Ligature2: "<17006,16006> Roman in Arabic lookup 86 subtable" zero fraction zero
Ligature2: "<17006,16006> Roman in Arabic lookup 86 subtable" zero slash zero
Ligature2: "Ligature Substitution lookup 49 subtable" zero fraction zero
Ligature2: "Ligature Substitution lookup 49 subtable" zero slash zero
EndChar

StartChar: ampersand
Encoding: 38 38 9
Width: 1361
GlyphClass: 2
Flags: W
LayerCount: 2
Fore
SplineSet
714 1007 m 0,0,1
 775 1077 775 1077 775 1160 c 0,2,3
 775 1192 775 1192 763.5 1222 c 128,-1,4
 752 1252 752 1252 730 1274.5 c 128,-1,5
 708 1297 708 1297 678 1310.5 c 128,-1,6
 648 1324 648 1324 610 1324 c 0,7,8
 528 1324 528 1324 478.5 1280.5 c 128,-1,9
 429 1237 429 1237 429 1162 c 0,10,11
 429 1129 429 1129 437.5 1100 c 128,-1,12
 446 1071 446 1071 464.5 1040.5 c 128,-1,13
 483 1010 483 1010 511 974.5 c 128,-1,14
 539 939 539 939 578 894 c 1,15,16
 629 929 629 929 662.5 957.5 c 128,-1,17
 696 986 696 986 714 1007 c 0,0,1
516 699 m 1,18,19
 447 651 447 651 398.5 613.5 c 128,-1,20
 350 576 350 576 327 551 c 1,21,22
 296 513 296 513 278 465 c 128,-1,23
 260 417 260 417 260 365 c 0,24,25
 260 306 260 306 284 259.5 c 128,-1,26
 308 213 308 213 347 181.5 c 128,-1,27
 386 150 386 150 435 133.5 c 128,-1,28
 484 117 484 117 533 117 c 0,29,30
 589 117 589 117 637.5 131.5 c 128,-1,31
 686 146 686 146 726 170 c 128,-1,32
 766 194 766 194 798 224.5 c 128,-1,33
 830 255 830 255 853 287 c 1,34,-1
 516 699 l 1,18,19
262 1140 m 0,35,36
 262 1211 262 1211 287 1271 c 128,-1,37
 312 1331 312 1331 358 1374.5 c 128,-1,38
 404 1418 404 1418 468.5 1442.5 c 128,-1,39
 533 1467 533 1467 612 1467 c 0,40,41
 689 1467 689 1467 749 1443.5 c 128,-1,42
 809 1420 809 1420 850.5 1380 c 128,-1,43
 892 1340 892 1340 914 1287 c 128,-1,44
 936 1234 936 1234 936 1174 c 0,45,46
 936 1105 936 1105 912.5 1042.5 c 128,-1,47
 889 980 889 980 847 928 c 1,48,49
 821 899 821 899 774 861 c 128,-1,50
 727 823 727 823 670 783 c 1,51,52
 680 771 680 771 701.5 745.5 c 128,-1,53
 723 720 723 720 750.5 687 c 128,-1,54
 778 654 778 654 808.5 618 c 128,-1,55
 839 582 839 582 866.5 549 c 128,-1,56
 894 516 894 516 915.5 490 c 128,-1,57
 937 464 937 464 947 452 c 1,58,59
 962 497 962 497 971 524.5 c 128,-1,60
 980 552 980 552 986.5 575 c 128,-1,61
 993 598 993 598 997.5 623 c 128,-1,62
 1002 648 1002 648 1008 688 c 1,63,-1
 1170 688 l 1,64,65
 1164 633 1164 633 1148 571 c 128,-1,66
 1132 509 1132 509 1113.5 455 c 128,-1,67
 1095 401 1095 401 1078 362 c 128,-1,68
 1061 323 1061 323 1052 314 c 1,69,70
 1115 238 1115 238 1181.5 157 c 128,-1,71
 1248 76 1248 76 1311 0 c 1,72,-1
 1086 0 l 1,73,-1
 947 171 l 1,74,75
 905 128 905 128 865 92.5 c 128,-1,76
 825 57 825 57 794 37 c 1,77,78
 736 4 736 4 665.5 -15 c 128,-1,79
 595 -34 595 -34 520 -34 c 0,80,81
 292 -34 292 -34 188 88 c 1,82,83
 136 151 136 151 111 219.5 c 128,-1,84
 86 288 86 288 85 366 c 1,85,86
 85 447 85 447 111 518 c 128,-1,87
 137 589 137 589 185 644 c 1,88,89
 216 676 216 676 277.5 721 c 128,-1,90
 339 766 339 766 420 817 c 1,91,92
 374 871 374 871 341.5 918 c 128,-1,93
 309 965 309 965 293 1001 c 0,94,95
 262 1073 262 1073 262 1140 c 0,35,36
EndSplineSet
EndChar

StartChar: quotesingle
Encoding: 39 39 10
Width: 265
GlyphClass: 2
Flags: W
LayerCount: 2
Fore
SplineSet
215 1650 m 1,0,1
 211 1577 211 1577 207.5 1523.5 c 128,-1,2
 204 1470 204 1470 200 1420.5 c 128,-1,3
 196 1371 196 1371 192.5 1317.5 c 128,-1,4
 189 1264 189 1264 185 1190 c 1,5,6
 180 1164 180 1164 166.5 1150.5 c 128,-1,7
 153 1137 153 1137 136 1137 c 0,8,9
 120 1137 120 1137 104.5 1150.5 c 128,-1,10
 89 1164 89 1164 81 1190 c 1,11,12
 77 1264 77 1264 73 1317.5 c 128,-1,13
 69 1371 69 1371 65.5 1420.5 c 128,-1,14
 62 1470 62 1470 58 1523.5 c 128,-1,15
 54 1577 54 1577 50 1650 c 1,16,17
 83 1759 83 1759 124 1759 c 0,18,19
 166 1759 166 1759 215 1650 c 1,0,1
EndSplineSet
EndChar

StartChar: parenleft
Encoding: 40 40 11
Width: 676
GlyphClass: 2
Flags: W
LayerCount: 2
Fore
SplineSet
559 -402 m 0,0,1
 576 -422 576 -422 576 -441 c 0,2,3
 576 -457 576 -457 561 -457 c 0,4,5
 556 -457 556 -457 548 -453.5 c 128,-1,6
 540 -450 540 -450 535 -445 c 0,7,8
 496 -413 496 -413 455 -371.5 c 128,-1,9
 414 -330 414 -330 375.5 -281.5 c 128,-1,10
 337 -233 337 -233 302 -178.5 c 128,-1,11
 267 -124 267 -124 239 -67 c 1,12,13
 207 3 207 3 186 75 c 128,-1,14
 165 147 165 147 137 227 c 1,15,16
 120 306 120 306 111 383.5 c 128,-1,17
 102 461 102 461 100 536 c 1,18,19
 100 687 100 687 136.5 830.5 c 128,-1,20
 173 974 173 974 241 1124 c 0,21,22
 305 1263 305 1263 379.5 1358.5 c 128,-1,23
 454 1454 454 1454 535 1518 c 0,24,25
 546 1527 546 1527 553.5 1530.5 c 128,-1,26
 561 1534 561 1534 565 1534 c 0,27,28
 576 1534 576 1534 576 1522 c 0,29,30
 576 1517 576 1517 572 1505 c 128,-1,31
 568 1493 568 1493 559 1478 c 0,32,33
 410 1226 410 1226 333.5 993.5 c 128,-1,34
 257 761 257 761 258 536 c 0,35,36
 258 396 258 396 282 263 c 128,-1,37
 306 130 306 130 352 -13 c 1,38,39
 395 -128 395 -128 447 -227.5 c 128,-1,40
 499 -327 499 -327 559 -402 c 0,0,1
EndSplineSet
Substitution2: "Single Substitution lookup 41 subtable" zerowidthspace
EndChar

StartChar: parenright
Encoding: 41 41 12
Width: 775
GlyphClass: 2
Flags: W
LayerCount: 2
Fore
SplineSet
115 1481 m 1,0,1
 100 1504 100 1504 100 1520 c 0,2,3
 100 1535 100 1535 112 1535 c 0,4,5
 126 1535 126 1535 141 1523 c 0,6,7
 228 1460 228 1460 300.5 1367.5 c 128,-1,8
 373 1275 373 1275 437 1142 c 1,9,10
 502 998 502 998 538.5 850 c 128,-1,11
 575 702 575 702 575 539 c 0,12,13
 575 246 575 246 434 -48 c 1,14,15
 370 -184 370 -184 298.5 -279.5 c 128,-1,16
 227 -375 227 -375 141 -439 c 0,17,18
 138 -442 138 -442 135 -443 c 1,19,-1
 136 -443 l 1,20,21
 127 -450 127 -450 122 -453.5 c 128,-1,22
 117 -457 117 -457 108 -457 c 0,23,24
 100 -457 100 -457 100 -444 c 0,25,26
 100 -427 100 -427 115 -401 c 0,27,28
 269 -149 269 -149 343 84.5 c 128,-1,29
 417 318 417 318 418 539 c 1,30,31
 418 798 418 798 321 1088 c 0,32,33
 279 1212 279 1212 229.5 1307.5 c 128,-1,34
 180 1403 180 1403 115 1481 c 1,0,1
EndSplineSet
Substitution2: "Single Substitution lookup 41 subtable" zerowidthspace
EndChar

StartChar: asterisk
Encoding: 42 42 13
Width: 822
GlyphClass: 2
Flags: W
LayerCount: 2
Fore
SplineSet
464 1469 m 1,0,-1
 464 1242 l 1,1,2
 521 1262 521 1262 576.5 1282 c 128,-1,3
 632 1302 632 1302 686 1319 c 1,4,5
 695 1293 695 1293 704 1268 c 128,-1,6
 713 1243 713 1243 722 1216 c 1,7,-1
 503 1145 l 1,8,9
 538 1097 538 1097 571.5 1049 c 128,-1,10
 605 1001 605 1001 640 955 c 1,11,12
 615 938 615 938 592.5 921.5 c 128,-1,13
 570 905 570 905 546 888 c 1,14,-1
 413 1085 l 1,15,16
 379 1034 379 1034 345 986 c 128,-1,17
 311 938 311 938 279 887 c 1,18,19
 254 904 254 904 231 921 c 128,-1,20
 208 938 208 938 182 955 c 1,21,-1
 321 1145 l 1,22,23
 266 1163 266 1163 210 1181 c 128,-1,24
 154 1199 154 1199 100 1216 c 1,25,26
 110 1244 110 1244 118 1268 c 128,-1,27
 126 1292 126 1292 136 1319 c 1,28,-1
 356 1240 l 1,29,-1
 356 1469 l 1,30,-1
 464 1469 l 1,0,-1
EndSplineSet
EndChar

StartChar: plus
Encoding: 43 43 14
Width: 1100
GlyphClass: 2
Flags: W
LayerCount: 2
Fore
SplineSet
96 450 m 1,0,-1
 96 591 l 1,1,-1
 478 591 l 1,2,-1
 478 977 l 1,3,-1
 623 977 l 1,4,-1
 623 591 l 1,5,-1
 1005 591 l 1,6,-1
 1005 450 l 1,7,-1
 623 450 l 1,8,-1
 623 66 l 1,9,-1
 478 66 l 1,10,-1
 478 450 l 1,11,-1
 96 450 l 1,0,-1
EndSplineSet
EndChar

StartChar: comma
Encoding: 44 44 15
Width: 564
GlyphClass: 2
Flags: W
LayerCount: 2
Fore
SplineSet
168 -218 m 1,0,1
 195 -212 195 -212 216 -194.5 c 128,-1,2
 237 -177 237 -177 251.5 -151 c 128,-1,3
 266 -125 266 -125 273.5 -91.5 c 128,-1,4
 281 -58 281 -58 281 -19 c 0,5,6
 281 -14 281 -14 280.5 -10 c 128,-1,7
 280 -6 280 -6 278 0 c 1,8,-1
 168 0 l 1,9,-1
 168 211 l 1,10,-1
 376 211 l 1,11,-1
 376 12 l 2,12,13
 376 -45 376 -45 365.5 -97.5 c 128,-1,14
 355 -150 355 -150 331 -192.5 c 128,-1,15
 307 -235 307 -235 267 -264.5 c 128,-1,16
 227 -294 227 -294 168 -305 c 1,17,-1
 168 -218 l 1,0,1
EndSplineSet
EndChar

StartChar: hyphen
Encoding: 45 45 16
AltUni2: 0000ad.ffffffff.0 002212.ffffffff.0
Width: 1100
GlyphClass: 2
Flags: W
LayerCount: 2
Fore
SplineSet
96 440 m 1,0,-1
 96 601 l 1,1,-1
 1005 601 l 1,2,-1
 1005 440 l 1,3,-1
 96 440 l 1,0,-1
EndSplineSet
Substitution2: "<17026,20026>  lookup 82 nested-substitutions 0 subtable" hyphenlow
Substitution2: "<17026,19026>  lookup 80 nested-substitutions 0 subtable" hyphenlow
Substitution2: "<17026,16026>  lookup 78 nested-substitutions 0 subtable" hyphenlow
Substitution2: "<17026,16026>  lookup 76 nested-substitutions 0 subtable" hyphenlow
Substitution2: "Single Substitution lookup 41 subtable" hyphenlow
EndChar

StartChar: period
Encoding: 46 46 17
Width: 621
GlyphClass: 2
Flags: W
LayerCount: 2
Fore
SplineSet
421 319 m 1,0,-1
 328 150 l 1,1,-1
 100 280 l 1,2,-1
 188 448 l 1,3,-1
 421 319 l 1,0,-1
EndSplineSet
Substitution2: "<17001,16003> Urdu lookup 89 subtable" uni06D4
Substitution2: "<17008,16008> Numeric Comma in Arabic lookup 84 nested-substitutions 0 subtable" uni066C
Substitution2: "Single Substitution lookup 41 subtable" uni066C
EndChar

StartChar: slash
Encoding: 47 47 18
Width: 564
GlyphClass: 2
Flags: W
LayerCount: 2
Fore
SplineSet
465 1469 m 1,0,-1
 609 1469 l 1,1,2
 492 1101 492 1101 376 734.5 c 128,-1,3
 260 368 260 368 143 0 c 1,4,-1
 -1 0 l 1,5,-1
 465 1469 l 1,0,-1
EndSplineSet
Substitution2: "<17001,16003> Urdu lookup 89 subtable" slash
EndChar

StartChar: zero
Encoding: 48 48 19
Width: 1100
GlyphClass: 2
Flags: W
LayerCount: 2
Fore
SplineSet
856 711 m 0,0,1
 856 959 856 959 796 1116 c 0,2,3
 734 1277 734 1277 557 1277 c 0,4,5
 396 1277 396 1277 320.5 1125.5 c 128,-1,6
 245 974 245 974 245 680 c 0,7,8
 245 547 245 547 264 442.5 c 128,-1,9
 283 338 283 338 320.5 266 c 128,-1,10
 358 194 358 194 414 156 c 128,-1,11
 470 118 470 118 544 118 c 0,12,13
 687 118 687 118 772 245 c 0,14,15
 856 371 856 371 856 711 c 0,0,1
947 1203 m 0,16,17
 1042 1027 1042 1027 1042 718 c 0,18,19
 1042 537 1042 537 1009.5 396.5 c 128,-1,20
 977 256 977 256 913.5 159 c 128,-1,21
 850 62 850 62 757.5 11.5 c 128,-1,22
 665 -39 665 -39 545 -39 c 0,23,24
 428 -39 428 -39 337 9.5 c 128,-1,25
 246 58 246 58 184 151 c 128,-1,26
 122 244 122 244 90 379 c 128,-1,27
 58 514 58 514 58 687 c 0,28,29
 58 868 58 868 90.5 1007 c 128,-1,30
 123 1146 123 1146 185.5 1240.5 c 128,-1,31
 248 1335 248 1335 339 1383.5 c 128,-1,32
 430 1432 430 1432 546 1432 c 0,33,34
 823 1432 823 1432 947 1203 c 0,16,17
EndSplineSet
Substitution2: "<17001,16003> Urdu lookup 89 subtable" zero
EndChar

StartChar: one
Encoding: 49 49 20
Width: 1100
GlyphClass: 2
Flags: W
LayerCount: 2
Fore
SplineSet
287 1020 m 1,0,-1
 287 1151 l 1,1,2
 386 1161 386 1161 454 1177 c 128,-1,3
 522 1193 522 1193 560 1214 c 1,4,5
 636 1262 636 1262 676 1426 c 1,6,-1
 812 1426 l 1,7,-1
 812 0 l 1,8,-1
 627 0 l 1,9,-1
 627 1020 l 1,10,-1
 287 1020 l 1,0,-1
EndSplineSet
Substitution2: "<17001,16003> Urdu lookup 89 subtable" one
EndChar

StartChar: two
Encoding: 50 50 21
Width: 1100
GlyphClass: 2
Flags: W
LayerCount: 2
Fore
SplineSet
585 679 m 2,0,1
 649 716 649 716 696 749 c 128,-1,2
 743 782 743 782 769 808 c 0,3,4
 852 891 852 891 852 1002 c 0,5,6
 852 1065 852 1065 831.5 1116 c 128,-1,7
 811 1167 811 1167 774.5 1203 c 128,-1,8
 738 1239 738 1239 686 1259 c 128,-1,9
 634 1279 634 1279 571 1279 c 0,10,11
 424 1279 424 1279 348.5 1193.5 c 128,-1,12
 273 1108 273 1108 267 929 c 1,13,-1
 92 929 l 1,14,15
 97 1187 97 1187 220 1312 c 128,-1,16
 343 1437 343 1437 572 1437 c 0,17,18
 821 1437 821 1437 930 1305 c 0,19,20
 987 1236 987 1236 1015 1165.5 c 128,-1,21
 1043 1095 1043 1095 1043 1010 c 0,22,23
 1043 839 1043 839 923 717 c 0,24,25
 904 698 904 698 872.5 674 c 128,-1,26
 841 650 841 650 801.5 623.5 c 128,-1,27
 762 597 762 597 716.5 570 c 128,-1,28
 671 543 671 543 623 517 c 0,29,30
 589 498 589 498 554 478 c 128,-1,31
 519 458 519 458 487 437.5 c 128,-1,32
 455 417 455 417 427 398.5 c 128,-1,33
 399 380 399 380 379 364 c 0,34,35
 328 322 328 322 296 271 c 128,-1,36
 264 220 264 220 249 163 c 1,37,-1
 1036 163 l 1,38,-1
 1036 0 l 1,39,-1
 57 0 l 1,40,41
 68 183 68 183 133 318 c 1,42,-1
 132 318 l 1,43,44
 199 456 199 456 392 567 c 2,45,-1
 585 679 l 2,0,1
EndSplineSet
Substitution2: "<17001,16003> Urdu lookup 89 subtable" two
EndChar

StartChar: three
Encoding: 51 51 22
Width: 1100
GlyphClass: 2
Flags: W
LayerCount: 2
Fore
SplineSet
232 434 m 1,0,1
 244 300 244 300 285 234 c 1,2,3
 321 179 321 179 386.5 149 c 128,-1,4
 452 119 452 119 543 118 c 0,5,6
 615 118 615 118 674 139 c 128,-1,7
 733 160 733 160 775 196.5 c 128,-1,8
 817 233 817 233 840 284 c 128,-1,9
 863 335 863 335 863 395 c 0,10,11
 863 471 863 471 838.5 523 c 128,-1,12
 814 575 814 575 769 607 c 128,-1,13
 724 639 724 639 659.5 653 c 128,-1,14
 595 667 595 667 515 667 c 0,15,16
 498 667 498 667 480 666.5 c 128,-1,17
 462 666 462 666 444 665 c 1,18,-1
 444 816 l 1,19,20
 467 814 467 814 487.5 813 c 128,-1,21
 508 812 508 812 529 812 c 0,22,23
 672 812 672 812 743.5 872 c 128,-1,24
 815 932 815 932 815 1049 c 0,25,26
 815 1103 815 1103 793.5 1145.5 c 128,-1,27
 772 1188 772 1188 736 1217.5 c 128,-1,28
 700 1247 700 1247 653 1262 c 128,-1,29
 606 1277 606 1277 556 1277 c 0,30,31
 411 1277 411 1277 338.5 1202.5 c 128,-1,32
 266 1128 266 1128 258 968 c 1,33,-1
 88 968 l 1,34,35
 88 1075 88 1075 118 1161 c 128,-1,36
 148 1247 148 1247 205.5 1308 c 128,-1,37
 263 1369 263 1369 346.5 1401.5 c 128,-1,38
 430 1434 430 1434 537 1434 c 0,39,40
 756 1434 756 1434 875 1337.5 c 128,-1,41
 994 1241 994 1241 994 1056 c 0,42,43
 994 951 994 951 947 877.5 c 128,-1,44
 900 804 900 804 800 759 c 1,45,46
 859 743 859 743 905.5 712 c 128,-1,47
 952 681 952 681 984 637.5 c 128,-1,48
 1016 594 1016 594 1032.5 539.5 c 128,-1,49
 1049 485 1049 485 1049 422 c 0,50,51
 1049 321 1049 321 1015 236.5 c 128,-1,52
 981 152 981 152 915.5 90.5 c 128,-1,53
 850 29 850 29 754 -5 c 128,-1,54
 658 -39 658 -39 533 -39 c 0,55,56
 278 -39 278 -39 165 99 c 0,57,58
 52 236 52 236 52 434 c 1,59,-1
 232 434 l 1,0,1
EndSplineSet
Substitution2: "<17001,16003> Urdu lookup 89 subtable" three
EndChar

StartChar: four
Encoding: 52 52 23
Width: 1100
GlyphClass: 2
Flags: W
LayerCount: 2
Fore
SplineSet
670 501 m 1,0,-1
 670 1170 l 1,1,2
 604 1077 604 1077 535.5 980.5 c 128,-1,3
 467 884 467 884 401 791 c 2,4,-1
 196 501 l 1,5,-1
 670 501 l 1,0,-1
673 0 m 1,6,-1
 673 352 l 1,7,-1
 41 352 l 1,8,-1
 41 524 l 1,9,10
 207 754 207 754 370.5 980 c 128,-1,11
 534 1206 534 1206 699 1436 c 1,12,-1
 846 1436 l 1,13,-1
 846 501 l 1,14,-1
 1058 501 l 1,15,-1
 1058 352 l 1,16,-1
 846 352 l 1,17,-1
 846 0 l 1,18,-1
 673 0 l 1,6,-1
EndSplineSet
Substitution2: "<17001,16003> Urdu lookup 89 subtable" four
EndChar

StartChar: five
Encoding: 53 53 24
Width: 1100
GlyphClass: 2
Flags: W
LayerCount: 2
Fore
SplineSet
238 359 m 1,0,1
 252 241 252 241 328.5 178 c 128,-1,2
 405 115 405 115 534 115 c 0,3,4
 616 115 616 115 676.5 144.5 c 128,-1,5
 737 174 737 174 776.5 221 c 128,-1,6
 816 268 816 268 835 327.5 c 128,-1,7
 854 387 854 387 854 448 c 0,8,9
 854 525 854 525 828.5 584.5 c 128,-1,10
 803 644 803 644 759.5 684.5 c 128,-1,11
 716 725 716 725 658.5 746.5 c 128,-1,12
 601 768 601 768 537 768 c 0,13,14
 443 768 443 768 376 732.5 c 128,-1,15
 309 697 309 697 261 631 c 1,16,-1
 111 640 l 1,17,18
 138 836 138 836 164 1024 c 128,-1,19
 190 1212 190 1212 218 1408 c 1,20,-1
 959 1408 l 1,21,-1
 959 1241 l 1,22,-1
 348 1241 l 1,23,24
 346 1228 346 1228 341 1196 c 128,-1,25
 336 1164 336 1164 329.5 1122.5 c 128,-1,26
 323 1081 323 1081 316 1035 c 128,-1,27
 309 989 309 989 302.5 948 c 128,-1,28
 296 907 296 907 291 875 c 128,-1,29
 286 843 286 843 284 829 c 1,30,31
 319 854 319 854 352 872 c 128,-1,32
 385 890 385 890 419.5 901 c 128,-1,33
 454 912 454 912 491 917.5 c 128,-1,34
 528 923 528 923 571 923 c 0,35,36
 670 923 670 923 756 889.5 c 128,-1,37
 842 856 842 856 905 796 c 128,-1,38
 968 736 968 736 1004 654 c 128,-1,39
 1040 572 1040 572 1040 475 c 0,40,41
 1040 376 1040 376 1006.5 284.5 c 128,-1,42
 973 193 973 193 915 118 c 1,43,44
 852 46 852 46 751.5 5 c 128,-1,45
 651 -36 651 -36 516 -36 c 0,46,47
 429 -36 429 -36 350.5 -12 c 128,-1,48
 272 12 272 12 211 60.5 c 128,-1,49
 150 109 150 109 110 183.5 c 128,-1,50
 70 258 70 258 59 359 c 1,51,-1
 238 359 l 1,0,1
EndSplineSet
Substitution2: "<17001,16003> Urdu lookup 89 subtable" five
EndChar

StartChar: six
Encoding: 54 54 25
Width: 1100
GlyphClass: 2
Flags: W
LayerCount: 2
Fore
SplineSet
857 442 m 0,0,1
 857 555 857 555 793 655 c 0,2,3
 727 757 727 757 559 757 c 0,4,5
 502 757 502 757 448 737.5 c 128,-1,6
 394 718 394 718 353 678.5 c 128,-1,7
 312 639 312 639 287 580 c 128,-1,8
 262 521 262 521 262 442 c 0,9,10
 262 375 262 375 283 315.5 c 128,-1,11
 304 256 304 256 343.5 211.5 c 128,-1,12
 383 167 383 167 439.5 141.5 c 128,-1,13
 496 116 496 116 568 116 c 256,14,15
 640 116 640 116 694.5 143 c 128,-1,16
 749 170 749 170 785 215.5 c 128,-1,17
 821 261 821 261 839 320 c 128,-1,18
 857 379 857 379 857 442 c 0,0,1
837 1063 m 1,19,20
 813 1181 813 1181 751.5 1234 c 128,-1,21
 690 1287 690 1287 584 1287 c 0,22,23
 508 1287 508 1287 446.5 1250 c 128,-1,24
 385 1213 385 1213 340.5 1142 c 128,-1,25
 296 1071 296 1071 270 967 c 128,-1,26
 244 863 244 863 238 728 c 1,27,28
 273 780 273 780 314.5 816 c 128,-1,29
 356 852 356 852 402 875 c 0,30,31
 444 896 444 896 492.5 905 c 128,-1,32
 541 914 541 914 593 914 c 0,33,34
 683 914 683 914 763.5 885 c 128,-1,35
 844 856 844 856 905.5 799 c 128,-1,36
 967 742 967 742 1003 656.5 c 128,-1,37
 1039 571 1039 571 1039 457 c 0,38,39
 1039 262 1039 262 913 112 c 0,40,41
 788 -37 788 -37 552 -37 c 0,42,43
 453 -37 453 -37 365.5 2.5 c 128,-1,44
 278 42 278 42 206 114 c 1,45,46
 139 192 139 192 101 322.5 c 128,-1,47
 63 453 63 453 61 628 c 1,48,49
 61 827 61 827 95.5 978.5 c 128,-1,50
 130 1130 130 1130 196.5 1232 c 128,-1,51
 263 1334 263 1334 360 1386 c 128,-1,52
 457 1438 457 1438 581 1438 c 0,53,54
 821 1438 821 1438 914 1314 c 0,55,56
 1006 1192 1006 1192 1008 1063 c 1,57,-1
 837 1063 l 1,19,20
EndSplineSet
Substitution2: "<17001,16003> Urdu lookup 89 subtable" six
EndChar

StartChar: seven
Encoding: 55 55 26
Width: 1100
GlyphClass: 2
Flags: W
LayerCount: 2
Fore
SplineSet
1046 1408 m 1,0,-1
 1046 1255 l 1,1,2
 1013 1222 1013 1222 965 1161.5 c 128,-1,3
 917 1101 917 1101 863 1022 c 0,4,5
 806 938 806 938 753.5 845 c 128,-1,6
 701 752 701 752 659 662 c 256,7,8
 617 572 617 572 582.5 482.5 c 128,-1,9
 548 393 548 393 526 318 c 0,10,11
 512 267 512 267 493 188 c 128,-1,12
 474 109 474 109 451 0 c 1,13,-1
 259 0 l 1,14,15
 328 411 328 411 559 815 c 1,16,17
 696 1052 696 1052 854 1234 c 1,18,-1
 54 1234 l 1,19,-1
 54 1408 l 1,20,-1
 1046 1408 l 1,0,-1
EndSplineSet
Substitution2: "<17001,16003> Urdu lookup 89 subtable" seven
EndChar

StartChar: eight
Encoding: 56 56 27
Width: 1100
GlyphClass: 2
Flags: W
LayerCount: 2
Fore
SplineSet
808 1059 m 0,0,1
 808 1099 808 1099 791.5 1138 c 128,-1,2
 775 1177 775 1177 741.5 1208 c 128,-1,3
 708 1239 708 1239 658.5 1258.5 c 128,-1,4
 609 1278 609 1278 543 1278 c 0,5,6
 476 1278 476 1278 428.5 1258.5 c 128,-1,7
 381 1239 381 1239 350.5 1207 c 128,-1,8
 320 1175 320 1175 305.5 1134 c 128,-1,9
 291 1093 291 1093 291 1049 c 0,10,11
 291 997 291 997 312.5 956.5 c 128,-1,12
 334 916 334 916 369.5 887.5 c 128,-1,13
 405 859 405 859 451.5 844 c 128,-1,14
 498 829 498 829 549 829 c 0,15,16
 609 829 609 829 657 847.5 c 128,-1,17
 705 866 705 866 738.5 897.5 c 128,-1,18
 772 929 772 929 790 971 c 128,-1,19
 808 1013 808 1013 808 1059 c 0,0,1
856 390 m 0,20,21
 856 461 856 461 832.5 515 c 128,-1,22
 809 569 809 569 767.5 605.5 c 128,-1,23
 726 642 726 642 669.5 660.5 c 128,-1,24
 613 679 613 679 547 679 c 0,25,26
 483 679 483 679 428.5 659.5 c 128,-1,27
 374 640 374 640 334 603.5 c 128,-1,28
 294 567 294 567 271.5 514.5 c 128,-1,29
 249 462 249 462 249 396 c 0,30,31
 249 285 249 285 324 199 c 0,32,33
 362 156 362 156 422 137.5 c 128,-1,34
 482 119 482 119 560 116 c 1,35,36
 623 116 623 116 677 133 c 128,-1,37
 731 150 731 150 770.5 184.5 c 128,-1,38
 810 219 810 219 833 270.5 c 128,-1,39
 856 322 856 322 856 390 c 0,20,21
188 842 m 1,40,41
 110 920 110 920 110 1048 c 0,42,43
 110 1125 110 1125 138.5 1195 c 128,-1,44
 167 1265 167 1265 223.5 1318.5 c 128,-1,45
 280 1372 280 1372 362.5 1404 c 128,-1,46
 445 1436 445 1436 553 1436 c 0,47,48
 654 1436 654 1436 735 1407 c 128,-1,49
 816 1378 816 1378 873 1328.5 c 128,-1,50
 930 1279 930 1279 960.5 1214 c 128,-1,51
 991 1149 991 1149 991 1077 c 0,52,53
 991 1023 991 1023 981.5 979 c 128,-1,54
 972 935 972 935 949.5 897.5 c 128,-1,55
 927 860 927 860 890.5 827.5 c 128,-1,56
 854 795 854 795 800 764 c 1,57,58
 893 721 893 721 946 668 c 1,59,-1
 946 669 l 1,60,61
 1040 572 1040 572 1040 409 c 0,62,63
 1040 316 1040 316 1008.5 234 c 128,-1,64
 977 152 977 152 915.5 91 c 128,-1,65
 854 30 854 30 763.5 -5.5 c 128,-1,66
 673 -41 673 -41 556 -41 c 0,67,68
 454 -41 454 -41 364 -13 c 128,-1,69
 274 15 274 15 206.5 70.5 c 128,-1,70
 139 126 139 126 99.5 208.5 c 128,-1,71
 60 291 60 291 60 400 c 0,72,73
 60 526 60 526 123 618.5 c 128,-1,74
 186 711 186 711 313 763 c 1,75,76
 229 797 229 797 188 841 c 1,77,-1
 188 842 l 1,40,41
EndSplineSet
Substitution2: "<17001,16003> Urdu lookup 89 subtable" eight
EndChar

StartChar: nine
Encoding: 57 57 28
Width: 1100
GlyphClass: 2
Flags: W
LayerCount: 2
Fore
SplineSet
828 959 m 0,0,1
 828 1039 828 1039 806 1099 c 128,-1,2
 784 1159 784 1159 745 1198.5 c 128,-1,3
 706 1238 706 1238 653.5 1257.5 c 128,-1,4
 601 1277 601 1277 540 1277 c 0,5,6
 474 1277 474 1277 420 1253 c 128,-1,7
 366 1229 366 1229 327.5 1185.5 c 128,-1,8
 289 1142 289 1142 268 1081.5 c 128,-1,9
 247 1021 247 1021 247 947 c 0,10,11
 247 877 247 877 263.5 819.5 c 128,-1,12
 280 762 280 762 315.5 721 c 128,-1,13
 351 680 351 680 406 657.5 c 128,-1,14
 461 635 461 635 538 635 c 0,15,16
 646 635 646 635 736 707 c 1,17,18
 828 779 828 779 828 959 c 0,0,1
259 340 m 1,19,20
 267 226 267 226 332.5 164.5 c 128,-1,21
 398 103 398 103 504 103 c 0,22,23
 567 103 567 103 624.5 131.5 c 128,-1,24
 682 160 682 160 728 212 c 1,25,26
 821 326 821 326 858 650 c 1,27,-1
 850 654 l 1,28,29
 820 607 820 607 782.5 574.5 c 128,-1,30
 745 542 745 542 702.5 522 c 128,-1,31
 660 502 660 502 612.5 493 c 128,-1,32
 565 484 565 484 514 484 c 0,33,34
 410 484 410 484 327.5 518.5 c 128,-1,35
 245 553 245 553 187 614 c 128,-1,36
 129 675 129 675 98.5 760 c 128,-1,37
 68 845 68 845 68 945 c 256,38,39
 68 1045 68 1045 97 1128.5 c 128,-1,40
 126 1212 126 1212 186 1287 c 0,41,42
 302 1434 302 1434 536 1434 c 0,43,44
 657 1434 657 1434 749.5 1388.5 c 128,-1,45
 842 1343 842 1343 905 1257 c 128,-1,46
 968 1171 968 1171 1000 1046.5 c 128,-1,47
 1032 922 1032 922 1032 764 c 0,48,49
 1032 589 1032 589 997 441.5 c 128,-1,50
 962 294 962 294 895.5 187 c 128,-1,51
 829 80 829 80 732 20 c 128,-1,52
 635 -40 635 -40 511 -40 c 0,53,54
 406 -40 406 -40 326.5 -11 c 128,-1,55
 247 18 247 18 194 69 c 128,-1,56
 141 120 141 120 113.5 189.5 c 128,-1,57
 86 259 86 259 85 340 c 1,58,-1
 259 340 l 1,19,20
EndSplineSet
Substitution2: "<17001,16003> Urdu lookup 89 subtable" nine
EndChar

StartChar: colon
Encoding: 58 58 29
Width: 621
GlyphClass: 2
Flags: W
LayerCount: 2
Fore
SplineSet
421 945 m 1,0,-1
 329 772 l 1,1,-1
 103 903 l 1,2,-1
 192 1078 l 1,3,-1
 421 945 l 1,0,-1
421 319 m 1,4,-1
 328 150 l 1,5,-1
 100 280 l 1,6,-1
 188 448 l 1,7,-1
 421 319 l 1,4,-1
EndSplineSet
Substitution2: "<17001,16003> Urdu lookup 89 subtable" colon
EndChar

StartChar: semicolon
Encoding: 59 59 30
Width: 564
GlyphClass: 2
Flags: W
LayerCount: 2
Fore
SplineSet
225 1055 m 1,0,-1
 432 1055 l 1,1,-1
 432 844 l 1,2,-1
 225 844 l 1,3,-1
 225 1055 l 1,0,-1
225 -218 m 1,4,5
 279 -205 279 -205 308 -155.5 c 128,-1,6
 337 -106 337 -106 337 -28 c 0,7,8
 337 -24 337 -24 336.5 -19 c 128,-1,9
 336 -14 336 -14 334 0 c 1,10,-1
 225 0 l 1,11,-1
 225 211 l 1,12,-1
 432 211 l 1,13,-1
 432 12 l 2,14,15
 432 -128 432 -128 379.5 -206 c 128,-1,16
 327 -284 327 -284 225 -305 c 1,17,-1
 225 -218 l 1,4,5
EndSplineSet
Substitution2: "<17001,16003> Urdu lookup 89 subtable" semicolon
EndChar

StartChar: less
Encoding: 60 60 31
Width: 1100
GlyphClass: 2
Flags: W
LayerCount: 2
Fore
SplineSet
96 590 m 1,0,1
 324 690 324 690 550 788 c 128,-1,2
 776 886 776 886 1004 986 c 1,3,-1
 1004 837 l 1,4,-1
 249 520 l 1,5,6
 267 512 267 512 305 496 c 128,-1,7
 343 480 343 480 395.5 458.5 c 128,-1,8
 448 437 448 437 509 411 c 128,-1,9
 570 385 570 385 632 358.5 c 128,-1,10
 694 332 694 332 754.5 306.5 c 128,-1,11
 815 281 815 281 865.5 260 c 128,-1,12
 916 239 916 239 953 223.5 c 128,-1,13
 990 208 990 208 1004 202 c 1,14,-1
 1004 54 l 1,15,16
 776 154 776 154 550 252 c 128,-1,17
 324 350 324 350 96 450 c 1,18,-1
 96 590 l 1,0,1
EndSplineSet
Substitution2: "<17001,16003> Urdu lookup 89 subtable" less
EndChar

StartChar: equal
Encoding: 61 61 32
Width: 1100
GlyphClass: 2
Flags: W
LayerCount: 2
Fore
SplineSet
1005 781 m 1,0,-1
 1005 641 l 1,1,-1
 98 641 l 1,2,-1
 98 781 l 1,3,-1
 1005 781 l 1,0,-1
1005 405 m 1,4,-1
 1005 263 l 1,5,-1
 98 263 l 1,6,-1
 98 405 l 1,7,-1
 1005 405 l 1,4,-1
EndSplineSet
Substitution2: "<17001,16003> Urdu lookup 89 subtable" equal
EndChar

StartChar: greater
Encoding: 62 62 33
Width: 1100
GlyphClass: 2
Flags: W
LayerCount: 2
Fore
SplineSet
1004 447 m 1,0,1
 777 348 777 348 552.5 250 c 128,-1,2
 328 152 328 152 101 53 c 1,3,-1
 101 200 l 1,4,5
 116 206 116 206 152.5 221 c 128,-1,6
 189 236 189 236 239 257 c 128,-1,7
 289 278 289 278 349 303.5 c 128,-1,8
 409 329 409 329 471 355.5 c 128,-1,9
 533 382 533 382 593.5 408 c 128,-1,10
 654 434 654 434 706 455.5 c 128,-1,11
 758 477 758 477 796 493 c 128,-1,12
 834 509 834 509 852 517 c 1,13,14
 665 595 665 595 476 674 c 128,-1,15
 287 753 287 753 101 832 c 1,16,-1
 101 980 l 1,17,18
 328 881 328 881 552.5 783 c 128,-1,19
 777 685 777 685 1004 586 c 1,20,-1
 1004 447 l 1,0,1
EndSplineSet
Substitution2: "<17001,16003> Urdu lookup 89 subtable" greater
EndChar

StartChar: question
Encoding: 63 63 34
Width: 1134
GlyphClass: 2
Flags: W
LayerCount: 2
Fore
SplineSet
491 201 m 1,0,-1
 684 201 l 1,1,-1
 684 0 l 1,2,-1
 491 0 l 1,3,-1
 491 201 l 1,0,-1
608 1488 m 0,4,5
 706 1488 706 1488 785.5 1458.5 c 128,-1,6
 865 1429 865 1429 921.5 1376 c 128,-1,7
 978 1323 978 1323 1009 1250 c 128,-1,8
 1040 1177 1040 1177 1040 1090 c 0,9,10
 1040 1036 1040 1036 1029 994 c 128,-1,11
 1018 952 1018 952 997 919 c 0,12,13
 976 887 976 887 932.5 837.5 c 128,-1,14
 889 788 889 788 823 725 c 0,15,16
 775 679 775 679 742 637.5 c 128,-1,17
 709 596 709 596 695 565 c 0,18,19
 666 499 666 499 666 376 c 1,20,-1
 495 376 l 1,21,22
 495 514 495 514 530 601 c 1,23,24
 549 643 549 643 588 697 c 128,-1,25
 627 751 627 751 679 803 c 2,26,-1
 712 836 l 1,27,-1
 711 836 l 1,28,29
 744 869 744 869 771.5 899 c 128,-1,30
 799 929 799 929 818.5 959 c 128,-1,31
 838 989 838 989 848.5 1021.5 c 128,-1,32
 859 1054 859 1054 859 1092 c 0,33,34
 859 1139 859 1139 845 1183.5 c 128,-1,35
 831 1228 831 1228 800 1262.5 c 128,-1,36
 769 1297 769 1297 720 1318 c 128,-1,37
 671 1339 671 1339 601 1339 c 0,38,39
 535 1339 535 1339 484.5 1320.5 c 128,-1,40
 434 1302 434 1302 399 1263 c 128,-1,41
 364 1224 364 1224 345 1162.5 c 128,-1,42
 326 1101 326 1101 323 1015 c 1,43,-1
 153 1015 l 1,44,45
 153 1122 153 1122 185 1209.5 c 128,-1,46
 217 1297 217 1297 276 1359 c 128,-1,47
 335 1421 335 1421 419 1454.5 c 128,-1,48
 503 1488 503 1488 608 1488 c 0,4,5
EndSplineSet
Substitution2: "<17001,16003> Urdu lookup 89 subtable" question
EndChar

StartChar: at
Encoding: 64 64 35
Width: 2074
GlyphClass: 2
Flags: W
LayerCount: 2
Fore
SplineSet
1088 1060 m 0,0,1
 1031 1060 1031 1060 979 1021 c 128,-1,2
 927 982 927 982 887.5 922 c 128,-1,3
 848 862 848 862 824.5 790 c 128,-1,4
 801 718 801 718 801 652 c 0,5,6
 801 602 801 602 813 563.5 c 128,-1,7
 825 525 825 525 846 498.5 c 128,-1,8
 867 472 867 472 895.5 458.5 c 128,-1,9
 924 445 924 445 957 445 c 0,10,11
 1098 445 1098 445 1173 605 c 0,12,13
 1211 687 1211 687 1230.5 757.5 c 128,-1,14
 1250 828 1250 828 1250 894 c 0,15,16
 1250 924 1250 924 1239 953.5 c 128,-1,17
 1228 983 1228 983 1207 1007 c 128,-1,18
 1186 1031 1186 1031 1156 1045.5 c 128,-1,19
 1126 1060 1126 1060 1088 1060 c 0,0,1
401 218 m 1,20,21
 219 427 219 427 219 701 c 0,22,23
 219 864 219 864 275 1002.5 c 128,-1,24
 331 1141 331 1141 440 1256 c 1,25,-1
 440 1255 l 1,26,27
 563 1381 563 1381 726.5 1445.5 c 128,-1,28
 890 1510 890 1510 1095 1510 c 0,29,30
 1267 1510 1267 1510 1406 1466 c 128,-1,31
 1545 1422 1545 1422 1643 1340.5 c 128,-1,32
 1741 1259 1741 1259 1794 1144.5 c 128,-1,33
 1847 1030 1847 1030 1847 889 c 0,34,35
 1847 662 1847 662 1710 498 c 1,36,37
 1641 417 1641 417 1566 378.5 c 128,-1,38
 1491 340 1491 340 1406 339 c 0,39,40
 1356 339 1356 339 1320 351.5 c 128,-1,41
 1284 364 1284 364 1261 386 c 128,-1,42
 1238 408 1238 408 1227 436.5 c 128,-1,43
 1216 465 1216 465 1216 497 c 0,44,45
 1216 506 1216 506 1216.5 514.5 c 128,-1,46
 1217 523 1217 523 1219 533 c 1,47,-1
 1211 536 l 1,48,49
 1184 482 1184 482 1150 444 c 128,-1,50
 1116 406 1116 406 1078.5 383 c 128,-1,51
 1041 360 1041 360 999.5 349.5 c 128,-1,52
 958 339 958 339 916 339 c 0,53,54
 855 339 855 339 804.5 362.5 c 128,-1,55
 754 386 754 386 718 428 c 128,-1,56
 682 470 682 470 662.5 528 c 128,-1,57
 643 586 643 586 643 655 c 0,58,59
 643 721 643 721 659.5 783.5 c 128,-1,60
 676 846 676 846 705 901.5 c 128,-1,61
 734 957 734 957 773.5 1004 c 128,-1,62
 813 1051 813 1051 858 1084.5 c 128,-1,63
 903 1118 903 1118 952.5 1137 c 128,-1,64
 1002 1156 1002 1156 1052 1156 c 256,65,66
 1102 1156 1102 1156 1144 1140.5 c 128,-1,67
 1186 1125 1186 1125 1217 1099 c 128,-1,68
 1248 1073 1248 1073 1267 1038 c 128,-1,69
 1286 1003 1286 1003 1289 964 c 1,70,-1
 1298 963 l 1,71,72
 1311 1005 1311 1005 1323 1044.5 c 128,-1,73
 1335 1084 1335 1084 1346 1123 c 1,74,-1
 1484 1123 l 1,75,-1
 1353 688 l 2,76,77
 1339 639 1339 639 1333 606 c 128,-1,78
 1327 573 1327 573 1324 549 c 1,79,80
 1324 502 1324 502 1352.5 480 c 128,-1,81
 1381 458 1381 458 1418 458 c 0,82,83
 1475 458 1475 458 1528 490.5 c 128,-1,84
 1581 523 1581 523 1626 580 c 0,85,86
 1674 640 1674 640 1696 719.5 c 128,-1,87
 1718 799 1718 799 1719 895 c 1,88,89
 1719 1012 1719 1012 1675.5 1105.5 c 128,-1,90
 1632 1199 1632 1199 1553 1264.5 c 128,-1,91
 1474 1330 1474 1330 1362.5 1364.5 c 128,-1,92
 1251 1399 1251 1399 1114 1399 c 0,93,94
 940 1399 940 1399 799 1348 c 128,-1,95
 658 1297 658 1297 559 1204 c 128,-1,96
 460 1111 460 1111 406 981.5 c 128,-1,97
 352 852 352 852 352 694 c 0,98,99
 352 556 352 556 404 440.5 c 128,-1,100
 456 325 456 325 551 241.5 c 128,-1,101
 646 158 646 158 778.5 111.5 c 128,-1,102
 911 65 911 65 1071 65 c 0,103,104
 1237 65 1237 65 1380 117.5 c 128,-1,105
 1523 170 1523 170 1644 260 c 1,106,107
 1660 238 1660 238 1675.5 217 c 128,-1,108
 1691 196 1691 196 1707 174 c 1,109,110
 1662 136 1662 136 1596 99 c 128,-1,111
 1530 62 1530 62 1439 27 c 1,112,113
 1260 -44 1260 -44 1045 -43 c 1,114,115
 626 -43 626 -43 401 218 c 1,20,21
EndSplineSet
Substitution2: "<17001,16003> Urdu lookup 89 subtable" at
EndChar

StartChar: A
Encoding: 65 65 36
Width: 1361
GlyphClass: 2
Flags: W
LayerCount: 2
Fore
SplineSet
913 597 m 1,0,1
 908 613 908 613 896 646.5 c 128,-1,2
 884 680 884 680 868.5 726 c 128,-1,3
 853 772 853 772 834 825.5 c 128,-1,4
 815 879 815 879 796 934.5 c 128,-1,5
 777 990 777 990 758.5 1043.5 c 128,-1,6
 740 1097 740 1097 725 1142 c 128,-1,7
 710 1187 710 1187 698.5 1220 c 128,-1,8
 687 1253 687 1253 682 1267 c 1,9,10
 676 1251 676 1251 663.5 1217 c 128,-1,11
 651 1183 651 1183 634 1137 c 128,-1,12
 617 1091 617 1091 597 1037 c 128,-1,13
 577 983 577 983 556.5 928 c 128,-1,14
 536 873 536 873 516.5 819.5 c 128,-1,15
 497 766 497 766 481 721 c 128,-1,16
 465 676 465 676 453 643.5 c 128,-1,17
 441 611 441 611 436 597 c 1,18,-1
 913 597 l 1,0,1
580 1469 m 1,19,-1
 801 1469 l 1,20,21
 934 1102 934 1102 1067.5 735 c 128,-1,22
 1201 368 1201 368 1334 0 c 1,23,-1
 1123 0 l 1,24,-1
 974 442 l 1,25,-1
 383 442 l 1,26,27
 380 434 380 434 368 400.5 c 128,-1,28
 356 367 356 367 339.5 320.5 c 128,-1,29
 323 274 323 274 304 221 c 128,-1,30
 285 168 285 168 268.5 121.5 c 128,-1,31
 252 75 252 75 240 41.5 c 128,-1,32
 228 8 228 8 225 0 c 1,33,-1
 28 0 l 1,34,-1
 580 1469 l 1,19,-1
EndSplineSet
Substitution2: "<17001,16003> Urdu lookup 89 subtable" A
EndChar

StartChar: B
Encoding: 66 66 37
Width: 1361
GlyphClass: 2
Flags: W
LayerCount: 2
Fore
SplineSet
703 845 m 2,0,1
 860 845 860 845 937.5 902 c 128,-1,2
 1015 959 1015 959 1015 1083 c 0,3,4
 1015 1142 1015 1142 997.5 1185 c 128,-1,5
 980 1228 980 1228 942 1256 c 128,-1,6
 904 1284 904 1284 843 1297 c 128,-1,7
 782 1310 782 1310 696 1310 c 2,8,-1
 335 1310 l 1,9,-1
 335 845 l 1,10,-1
 703 845 l 2,0,1
770 163 m 2,11,12
 921 163 921 163 1003.5 234.5 c 128,-1,13
 1086 306 1086 306 1086 436 c 0,14,15
 1086 565 1086 565 1001 628 c 128,-1,16
 916 691 916 691 736 691 c 2,17,-1
 335 691 l 1,18,-1
 335 163 l 1,19,-1
 770 163 l 2,11,12
147 1469 m 1,20,-1
 777 1469 l 2,21,22
 877 1469 877 1469 956.5 1444 c 128,-1,23
 1036 1419 1036 1419 1091.5 1372 c 128,-1,24
 1147 1325 1147 1325 1176.5 1258 c 128,-1,25
 1206 1191 1206 1191 1206 1107 c 0,26,27
 1206 1000 1206 1000 1158.5 922.5 c 128,-1,28
 1111 845 1111 845 1003 791 c 1,29,30
 1064 766 1064 766 1109 741.5 c 128,-1,31
 1154 717 1154 717 1180 691 c 0,32,33
 1278 596 1278 596 1278 427 c 0,34,35
 1278 337 1278 337 1243 259.5 c 128,-1,36
 1208 182 1208 182 1142 124 c 128,-1,37
 1076 66 1076 66 981.5 33 c 128,-1,38
 887 0 887 0 767 0 c 2,39,-1
 147 0 l 1,40,-1
 147 1469 l 1,20,-1
EndSplineSet
Substitution2: "<17001,16003> Urdu lookup 89 subtable" B
EndChar

StartChar: C
Encoding: 67 67 38
AltUni2: 00216d.ffffffff.0
Width: 1474
GlyphClass: 2
Flags: W
LayerCount: 2
Fore
SplineSet
1185 1034 m 1,0,1
 1168 1105 1168 1105 1135 1162 c 128,-1,2
 1102 1219 1102 1219 1051.5 1259 c 128,-1,3
 1001 1299 1001 1299 931.5 1321 c 128,-1,4
 862 1343 862 1343 772 1343 c 0,5,6
 664 1343 664 1343 573.5 1305 c 128,-1,7
 483 1267 483 1267 418.5 1190 c 128,-1,8
 354 1113 354 1113 318 995 c 128,-1,9
 282 877 282 877 282 716 c 0,10,11
 282 585 282 585 312.5 477 c 128,-1,12
 343 369 343 369 404 292 c 128,-1,13
 465 215 465 215 556 172.5 c 128,-1,14
 647 130 647 130 768 130 c 0,15,16
 939 130 939 130 1049 229.5 c 128,-1,17
 1159 329 1159 329 1199 535 c 1,18,-1
 1388 535 l 1,19,20
 1375 423 1375 423 1329.5 325.5 c 128,-1,21
 1284 228 1284 228 1215 150 c 1,22,23
 1128 63 1128 63 1007.5 12.5 c 128,-1,24
 887 -38 887 -38 744 -38 c 0,25,26
 592 -38 592 -38 470 15.5 c 128,-1,27
 348 69 348 69 262.5 170.5 c 128,-1,28
 177 272 177 272 131 418.5 c 128,-1,29
 85 565 85 565 85 750 c 0,30,31
 85 918 85 918 133.5 1057.5 c 128,-1,32
 182 1197 182 1197 271 1297.5 c 128,-1,33
 360 1398 360 1398 487 1454 c 128,-1,34
 614 1510 614 1510 770 1510 c 0,35,36
 1050 1510 1050 1510 1203 1363 c 0,37,38
 1354 1218 1354 1218 1372 1034 c 1,39,-1
 1185 1034 l 1,0,1
EndSplineSet
Substitution2: "<17001,16003> Urdu lookup 89 subtable" C
EndChar

StartChar: D
Encoding: 68 68 39
AltUni2: 00216e.ffffffff.0
Width: 1474
GlyphClass: 2
Flags: W
LayerCount: 2
Fore
SplineSet
715 163 m 2,0,1
 766 163 766 163 809 168 c 128,-1,2
 852 173 852 173 884 184 c 0,3,4
 941 204 941 204 989.5 243 c 128,-1,5
 1038 282 1038 282 1076 337 c 0,6,7
 1099 372 1099 372 1117.5 418 c 128,-1,8
 1136 464 1136 464 1149 516 c 128,-1,9
 1162 568 1162 568 1169.5 621.5 c 128,-1,10
 1177 675 1177 675 1177 723 c 0,11,12
 1177 860 1177 860 1150.5 968 c 128,-1,13
 1124 1076 1124 1076 1068 1151 c 128,-1,14
 1012 1226 1012 1226 924 1265.5 c 128,-1,15
 836 1305 836 1305 713 1305 c 2,16,-1
 354 1305 l 1,17,-1
 354 163 l 1,18,-1
 715 163 l 2,0,1
161 1469 m 1,19,-1
 755 1469 l 2,20,21
 899 1469 899 1469 1014 1418 c 128,-1,22
 1129 1367 1129 1367 1208.5 1273.5 c 128,-1,23
 1288 1180 1288 1180 1330.5 1049 c 128,-1,24
 1373 918 1373 918 1373 757 c 0,25,26
 1373 595 1373 595 1330.5 456 c 128,-1,27
 1288 317 1288 317 1207.5 216 c 128,-1,28
 1127 115 1127 115 1012 57.5 c 128,-1,29
 897 0 897 0 753 0 c 2,30,-1
 161 0 l 1,31,-1
 161 1469 l 1,19,-1
EndSplineSet
Substitution2: "<17001,16003> Urdu lookup 89 subtable" D
EndChar

StartChar: E
Encoding: 69 69 40
Width: 1361
GlyphClass: 2
Flags: W
LayerCount: 2
Fore
SplineSet
171 1469 m 1,0,-1
 1240 1469 l 1,1,-1
 1240 1296 l 1,2,-1
 358 1296 l 1,3,-1
 358 840 l 1,4,-1
 1173 840 l 1,5,-1
 1173 677 l 1,6,-1
 358 677 l 1,7,-1
 358 168 l 1,8,-1
 1255 168 l 1,9,-1
 1255 0 l 1,10,-1
 171 0 l 1,11,-1
 171 1469 l 1,0,-1
EndSplineSet
Substitution2: "<17001,16003> Urdu lookup 89 subtable" E
EndChar

StartChar: F
Encoding: 70 70 41
Width: 1246
GlyphClass: 2
Flags: W
LayerCount: 2
Fore
SplineSet
171 1469 m 1,0,-1
 1188 1469 l 1,1,-1
 1188 1296 l 1,2,-1
 363 1296 l 1,3,-1
 363 840 l 1,4,-1
 1088 840 l 1,5,-1
 1088 672 l 1,6,-1
 363 672 l 1,7,-1
 363 0 l 1,8,-1
 171 0 l 1,9,-1
 171 1469 l 1,0,-1
EndSplineSet
Substitution2: "<17001,16003> Urdu lookup 89 subtable" F
EndChar

StartChar: G
Encoding: 71 71 42
Width: 1588
GlyphClass: 2
Flags: W
LayerCount: 2
Fore
SplineSet
1144 1428 m 0,0,1
 1253 1370 1253 1370 1319 1272.5 c 128,-1,2
 1385 1175 1385 1175 1411 1030 c 1,3,-1
 1220 1030 l 1,4,5
 1201 1111 1201 1111 1162.5 1169 c 128,-1,6
 1124 1227 1124 1227 1068 1265 c 128,-1,7
 1012 1303 1012 1303 940 1321 c 128,-1,8
 868 1339 868 1339 781 1339 c 0,9,10
 680 1339 680 1339 591 1301 c 128,-1,11
 502 1263 502 1263 435.5 1186.5 c 128,-1,12
 369 1110 369 1110 330.5 994.5 c 128,-1,13
 292 879 292 879 292 723 c 0,14,15
 292 592 292 592 320 482 c 128,-1,16
 348 372 348 372 408 292.5 c 128,-1,17
 468 213 468 213 562 169 c 128,-1,18
 656 125 656 125 788 125 c 0,19,20
 888 125 888 125 973 153 c 128,-1,21
 1058 181 1058 181 1120 241 c 128,-1,22
 1182 301 1182 301 1218.5 396 c 128,-1,23
 1255 491 1255 491 1257 624 c 1,24,-1
 795 624 l 1,25,-1
 795 782 l 1,26,-1
 1436 782 l 1,27,-1
 1436 0 l 1,28,-1
 1314 0 l 1,29,-1
 1265 193 l 1,30,31
 1214 136 1214 136 1167 96.5 c 128,-1,32
 1120 57 1120 57 1081 34 c 0,33,34
 1018 -3 1018 -3 933 -21 c 128,-1,35
 848 -39 848 -39 748 -39 c 0,36,37
 616 -39 616 -39 504.5 3.5 c 128,-1,38
 393 46 393 46 299 130 c 1,39,40
 200 236 200 236 147 382 c 128,-1,41
 94 528 94 528 94 712 c 0,42,43
 94 890 94 890 144.5 1036.5 c 128,-1,44
 195 1183 195 1183 286 1288 c 128,-1,45
 377 1393 377 1393 504.5 1450.5 c 128,-1,46
 632 1508 632 1508 786 1508 c 0,47,48
 892 1508 892 1508 980.5 1487.5 c 128,-1,49
 1069 1467 1069 1467 1144 1428 c 0,0,1
EndSplineSet
Substitution2: "<17001,16003> Urdu lookup 89 subtable" G
EndChar

StartChar: H
Encoding: 72 72 43
Width: 1474
GlyphClass: 2
Flags: W
LayerCount: 2
Fore
SplineSet
157 1469 m 1,0,-1
 351 1469 l 1,1,-1
 351 859 l 1,2,-1
 1127 859 l 1,3,-1
 1127 1469 l 1,4,-1
 1321 1469 l 1,5,-1
 1321 0 l 1,6,-1
 1127 0 l 1,7,-1
 1127 691 l 1,8,-1
 351 691 l 1,9,-1
 351 0 l 1,10,-1
 157 0 l 1,11,-1
 157 1469 l 1,0,-1
EndSplineSet
Substitution2: "<17001,16003> Urdu lookup 89 subtable" H
EndChar

StartChar: I
Encoding: 73 73 44
Width: 564
GlyphClass: 2
Flags: W
LayerCount: 2
Fore
SplineSet
199 1469 m 1,0,-1
 394 1469 l 1,1,-1
 394 0 l 1,2,-1
 199 0 l 1,3,-1
 199 1469 l 1,0,-1
EndSplineSet
Substitution2: "<17001,16003> Urdu lookup 89 subtable" I
EndChar

StartChar: J
Encoding: 74 74 45
Width: 1019
GlyphClass: 2
Flags: W
LayerCount: 2
Fore
SplineSet
870 436 m 2,0,1
 870 311 870 311 843 221 c 128,-1,2
 816 131 816 131 761.5 73.5 c 128,-1,3
 707 16 707 16 624 -11.5 c 128,-1,4
 541 -39 541 -39 429 -39 c 0,5,6
 348 -39 348 -39 276 -16 c 128,-1,7
 204 7 204 7 147 49 c 1,8,9
 92 95 92 95 62 176.5 c 128,-1,10
 32 258 32 258 32 367 c 2,11,-1
 32 468 l 1,12,-1
 211 468 l 1,13,-1
 211 367 l 2,14,15
 211 243 211 243 265.5 182 c 128,-1,16
 320 121 320 121 437 121 c 0,17,18
 516 121 516 121 570 150 c 128,-1,19
 624 179 624 179 650 233 c 0,20,21
 667 268 667 268 674 331.5 c 128,-1,22
 681 395 681 395 681 488 c 2,23,-1
 681 1469 l 1,24,-1
 870 1469 l 1,25,-1
 870 436 l 2,0,1
EndSplineSet
Substitution2: "<17001,16003> Urdu lookup 89 subtable" J
EndChar

StartChar: K
Encoding: 75 75 46
AltUni2: 00212a.ffffffff.0
Width: 1361
GlyphClass: 2
Flags: W
LayerCount: 2
Fore
SplineSet
152 1469 m 1,0,-1
 339 1469 l 1,1,-1
 339 743 l 1,2,-1
 1065 1469 l 1,3,-1
 1330 1469 l 1,4,-1
 720 879 l 1,5,6
 734 859 734 859 765 815 c 128,-1,7
 796 771 796 771 838.5 711.5 c 128,-1,8
 881 652 881 652 931.5 581.5 c 128,-1,9
 982 511 982 511 1034 438 c 128,-1,10
 1086 365 1086 365 1136 295 c 128,-1,11
 1186 225 1186 225 1228.5 165.5 c 128,-1,12
 1271 106 1271 106 1302.5 62.5 c 128,-1,13
 1334 19 1334 19 1348 0 c 1,14,-1
 1098 0 l 1,15,-1
 580 743 l 1,16,-1
 500 667 l 2,17,18
 459 628 459 628 418.5 589.5 c 128,-1,19
 378 551 378 551 339 513 c 1,20,-1
 339 0 l 1,21,-1
 152 0 l 1,22,-1
 152 1469 l 1,0,-1
EndSplineSet
Substitution2: "<17001,16003> Urdu lookup 89 subtable" K
EndChar

StartChar: L
Encoding: 76 76 47
AltUni2: 00216c.ffffffff.0
Width: 1134
GlyphClass: 2
Flags: W
LayerCount: 2
Fore
SplineSet
153 1469 m 1,0,-1
 344 1469 l 1,1,-1
 344 168 l 1,2,-1
 1092 168 l 1,3,-1
 1092 0 l 1,4,-1
 153 0 l 1,5,-1
 153 1469 l 1,0,-1
EndSplineSet
Substitution2: "<17001,16003> Urdu lookup 89 subtable" L
EndChar

StartChar: M
Encoding: 77 77 48
AltUni2: 00216f.ffffffff.0
Width: 1701
GlyphClass: 2
Flags: W
LayerCount: 2
Fore
SplineSet
146 1469 m 1,0,-1
 426 1469 l 1,1,-1
 853 210 l 1,2,3
 858 226 858 226 876.5 282 c 128,-1,4
 895 338 895 338 923 420.5 c 128,-1,5
 951 503 951 503 985 604.5 c 128,-1,6
 1019 706 1019 706 1055 812.5 c 128,-1,7
 1091 919 1091 919 1126.5 1024 c 128,-1,8
 1162 1129 1162 1129 1192 1218 c 128,-1,9
 1222 1307 1222 1307 1244.5 1373.5 c 128,-1,10
 1267 1440 1267 1440 1277 1469 c 1,11,-1
 1554 1469 l 1,12,-1
 1554 0 l 1,13,-1
 1372 0 l 1,14,-1
 1372 868 l 2,15,16
 1372 888 1372 888 1372.5 926.5 c 128,-1,17
 1373 965 1373 965 1374 1015 c 128,-1,18
 1375 1065 1375 1065 1375.5 1122.5 c 128,-1,19
 1376 1180 1376 1180 1376 1238 c 1,20,-1
 1367 1240 l 1,21,22
 1358 1212 1358 1212 1337 1150 c 128,-1,23
 1316 1088 1316 1088 1288 1004 c 128,-1,24
 1260 920 1260 920 1226 821 c 128,-1,25
 1192 722 1192 722 1157.5 619.5 c 128,-1,26
 1123 517 1123 517 1089 418 c 128,-1,27
 1055 319 1055 319 1027 235.5 c 128,-1,28
 999 152 999 152 978 90 c 128,-1,29
 957 28 957 28 948 0 c 1,30,-1
 755 0 l 1,31,-1
 333 1240 l 1,32,-1
 324 1238 l 1,33,-1
 324 1196 l 2,34,35
 324 1172 324 1172 325 1126.5 c 128,-1,36
 326 1081 326 1081 326.5 1031.5 c 128,-1,37
 327 982 327 982 328 936.5 c 128,-1,38
 329 891 329 891 329 868 c 2,39,-1
 329 0 l 1,40,-1
 146 0 l 1,41,-1
 146 1469 l 1,0,-1
EndSplineSet
Substitution2: "<17001,16003> Urdu lookup 89 subtable" M
EndChar

StartChar: N
Encoding: 78 78 49
Width: 1474
GlyphClass: 2
Flags: W
LayerCount: 2
Fore
SplineSet
152 1469 m 1,0,-1
 382 1469 l 1,1,-1
 1134 264 l 1,2,-1
 1134 1469 l 1,3,-1
 1316 1469 l 1,4,-1
 1316 0 l 1,5,-1
 1098 0 l 1,6,-1
 335 1204 l 1,7,-1
 335 0 l 1,8,-1
 152 0 l 1,9,-1
 152 1469 l 1,0,-1
EndSplineSet
Substitution2: "<17001,16003> Urdu lookup 89 subtable" N
EndChar

StartChar: O
Encoding: 79 79 50
Width: 1588
GlyphClass: 2
Flags: W
LayerCount: 2
Fore
SplineSet
1310 757 m 0,0,1
 1310 887 1310 887 1274.5 994 c 128,-1,2
 1239 1101 1239 1101 1172.5 1177.5 c 128,-1,3
 1106 1254 1106 1254 1011 1296.5 c 128,-1,4
 916 1339 916 1339 797 1339 c 0,5,6
 684 1339 684 1339 588 1299.5 c 128,-1,7
 492 1260 492 1260 422.5 1181.5 c 128,-1,8
 353 1103 353 1103 313.5 986 c 128,-1,9
 274 869 274 869 274 714 c 0,10,11
 274 468 274 468 399 298 c 0,12,13
 525 128 525 128 805 128 c 0,14,15
 1071 128 1071 128 1190 319 c 0,16,17
 1250 416 1250 416 1280 523.5 c 128,-1,18
 1310 631 1310 631 1310 757 c 0,0,1
1361 1260 m 0,19,20
 1434 1161 1434 1161 1470.5 1038.5 c 128,-1,21
 1507 916 1507 916 1507 760 c 0,22,23
 1507 599 1507 599 1462.5 459.5 c 128,-1,24
 1418 320 1418 320 1340 212 c 1,25,26
 1240 85 1240 85 1101.5 21 c 128,-1,27
 963 -43 963 -43 781 -43 c 0,28,29
 612 -43 612 -43 478.5 14.5 c 128,-1,30
 345 72 345 72 248 180 c 1,31,32
 166 288 166 288 120.5 426 c 128,-1,33
 75 564 75 564 75 727 c 0,34,35
 75 874 75 874 114.5 1003.5 c 128,-1,36
 154 1133 154 1133 223 1238 c 1,37,38
 270 1297 270 1297 331.5 1347 c 128,-1,39
 393 1397 393 1397 465 1433 c 128,-1,40
 537 1469 537 1469 618 1489.5 c 128,-1,41
 699 1510 699 1510 785 1510 c 0,42,43
 1174 1510 1174 1510 1361 1260 c 0,19,20
EndSplineSet
Substitution2: "<17001,16003> Urdu lookup 89 subtable" O
EndChar

StartChar: P
Encoding: 80 80 51
Width: 1361
GlyphClass: 2
Flags: W
LayerCount: 2
Fore
SplineSet
950 1274 m 1,0,1
 885 1305 885 1305 765 1305 c 2,2,-1
 363 1305 l 1,3,-1
 363 785 l 1,4,-1
 765 785 l 2,5,6
 833 785 833 785 889 798.5 c 128,-1,7
 945 812 945 812 986 843 c 128,-1,8
 1027 874 1027 874 1049.5 924.5 c 128,-1,9
 1072 975 1072 975 1072 1049 c 0,10,11
 1072 1213 1072 1213 950 1273 c 1,12,-1
 950 1274 l 1,0,1
171 1469 m 1,13,-1
 832 1469 l 2,14,15
 930 1469 930 1469 1010 1441 c 128,-1,16
 1090 1413 1090 1413 1147 1359 c 128,-1,17
 1204 1305 1204 1305 1235 1227 c 128,-1,18
 1266 1149 1266 1149 1266 1050 c 0,19,20
 1266 878 1266 878 1159 750 c 0,21,22
 1054 624 1054 624 832 624 c 2,23,-1
 363 624 l 1,24,-1
 363 0 l 1,25,-1
 171 0 l 1,26,-1
 171 1469 l 1,13,-1
EndSplineSet
Substitution2: "<17001,16003> Urdu lookup 89 subtable" P
EndChar

StartChar: Q
Encoding: 81 81 52
Width: 1588
GlyphClass: 2
Flags: W
LayerCount: 2
Fore
SplineSet
860 302 m 1,0,1
 885 331 885 331 909 360.5 c 128,-1,2
 933 390 933 390 957 419 c 1,3,-1
 1151 270 l 1,4,5
 1197 324 1197 324 1228.5 384.5 c 128,-1,6
 1260 445 1260 445 1276 508 c 0,7,8
 1293 574 1293 574 1302 635.5 c 128,-1,9
 1311 697 1311 697 1310 757 c 1,10,11
 1310 887 1310 887 1274.5 994 c 128,-1,12
 1239 1101 1239 1101 1172.5 1177.5 c 128,-1,13
 1106 1254 1106 1254 1011 1296.5 c 128,-1,14
 916 1339 916 1339 797 1339 c 256,15,16
 678 1339 678 1339 581.5 1301 c 128,-1,17
 485 1263 485 1263 416.5 1185.5 c 128,-1,18
 348 1108 348 1108 311 990.5 c 128,-1,19
 274 873 274 873 274 714 c 0,20,21
 274 581 274 581 308 473 c 128,-1,22
 342 365 342 365 409 288.5 c 128,-1,23
 476 212 476 212 575.5 170 c 128,-1,24
 675 128 675 128 806 128 c 0,25,26
 869 128 869 128 924.5 137.5 c 128,-1,27
 980 147 980 147 1025 173 c 1,28,-1
 860 302 l 1,0,1
1494 -1 m 1,29,30
 1469 -30 1469 -30 1445.5 -59 c 128,-1,31
 1422 -88 1422 -88 1397 -117 c 1,32,-1
 1170 57 l 1,33,34
 1089 12 1089 12 991.5 -15.5 c 128,-1,35
 894 -43 894 -43 782 -43 c 0,36,37
 612 -43 612 -43 477.5 14.5 c 128,-1,38
 343 72 343 72 246 180 c 1,39,40
 165 289 165 289 120 426.5 c 128,-1,41
 75 564 75 564 75 727 c 0,42,43
 75 874 75 874 114.5 1003.5 c 128,-1,44
 154 1133 154 1133 223 1238 c 1,45,46
 270 1297 270 1297 331.5 1347 c 128,-1,47
 393 1397 393 1397 465 1433 c 128,-1,48
 537 1469 537 1469 618 1489.5 c 128,-1,49
 699 1510 699 1510 785 1510 c 0,50,51
 957 1510 957 1510 1091.5 1458 c 128,-1,52
 1226 1406 1226 1406 1318 1308.5 c 128,-1,53
 1410 1211 1410 1211 1458.5 1072.5 c 128,-1,54
 1507 934 1507 934 1507 760 c 0,55,56
 1507 620 1507 620 1472 486 c 0,57,58
 1446 389 1446 389 1398.5 304.5 c 128,-1,59
 1351 220 1351 220 1290 157 c 1,60,-1
 1494 -1 l 1,29,30
EndSplineSet
Substitution2: "<17001,16003> Urdu lookup 89 subtable" Q
EndChar

StartChar: R
Encoding: 82 82 53
Width: 1474
GlyphClass: 2
Flags: W
LayerCount: 2
Fore
SplineSet
834 793 m 2,0,1
 905 793 905 793 962 806 c 128,-1,2
 1019 819 1019 819 1059.5 849.5 c 128,-1,3
 1100 880 1100 880 1122 930.5 c 128,-1,4
 1144 981 1144 981 1144 1056 c 0,5,6
 1144 1183 1144 1183 1075.5 1244 c 128,-1,7
 1007 1305 1007 1305 861 1305 c 2,8,-1
 368 1305 l 1,9,-1
 368 793 l 1,10,-1
 834 793 l 2,0,1
176 1469 m 1,11,-1
 855 1469 l 2,12,13
 1098 1469 1098 1469 1218 1367.5 c 128,-1,14
 1338 1266 1338 1266 1338 1076 c 0,15,16
 1338 945 1338 945 1282 859.5 c 128,-1,17
 1226 774 1226 774 1124 721 c 1,18,19
 1168 703 1168 703 1201 680 c 128,-1,20
 1234 657 1234 657 1257 624.5 c 128,-1,21
 1280 592 1280 592 1293 547.5 c 128,-1,22
 1306 503 1306 503 1309 443 c 2,23,-1
 1316 246 l 2,24,25
 1318 194 1318 194 1323 157 c 128,-1,26
 1328 120 1328 120 1337.5 94 c 128,-1,27
 1347 68 1347 68 1361 52 c 128,-1,28
 1375 36 1375 36 1394 27 c 1,29,-1
 1394 0 l 1,30,-1
 1157 0 l 1,31,32
 1151 12 1151 12 1147 24.5 c 128,-1,33
 1143 37 1143 37 1140 54 c 128,-1,34
 1137 71 1137 71 1135 97 c 128,-1,35
 1133 123 1133 123 1131 162 c 2,36,-1
 1119 408 l 1,37,38
 1115 469 1115 469 1098.5 512 c 128,-1,39
 1082 555 1082 555 1048.5 582 c 128,-1,40
 1015 609 1015 609 961 621 c 128,-1,41
 907 633 907 633 827 633 c 2,42,-1
 368 633 l 1,43,-1
 368 0 l 1,44,-1
 176 0 l 1,45,-1
 176 1469 l 1,11,-1
EndSplineSet
Substitution2: "<17001,16003> Urdu lookup 89 subtable" R
EndChar

StartChar: S
Encoding: 83 83 54
Width: 1361
GlyphClass: 2
Flags: W
LayerCount: 2
Fore
SplineSet
275 468 m 1,0,1
 286 294 286 294 390.5 206 c 128,-1,2
 495 118 495 118 689 118 c 0,3,4
 779 118 779 118 850.5 136.5 c 128,-1,5
 922 155 922 155 972.5 188.5 c 128,-1,6
 1023 222 1023 222 1050 270 c 128,-1,7
 1077 318 1077 318 1077 377 c 0,8,9
 1077 437 1077 437 1057 481.5 c 128,-1,10
 1037 526 1037 526 1000 552 c 0,11,12
 969 573 969 573 918 592 c 128,-1,13
 867 611 867 611 806.5 628 c 128,-1,14
 746 645 746 645 682 659.5 c 128,-1,15
 618 674 618 674 559 686 c 0,16,17
 468 706 468 706 395.5 732 c 128,-1,18
 323 758 323 758 283 782 c 1,19,20
 217 830 217 830 180.5 898 c 128,-1,21
 144 966 144 966 144 1056 c 0,22,23
 144 1154 144 1154 178.5 1236.5 c 128,-1,24
 213 1319 213 1319 279.5 1379 c 128,-1,25
 346 1439 346 1439 444 1473 c 128,-1,26
 542 1507 542 1507 668 1507 c 0,27,28
 781 1507 781 1507 881 1480.5 c 128,-1,29
 981 1454 981 1454 1056 1398 c 128,-1,30
 1131 1342 1131 1342 1175.5 1254 c 128,-1,31
 1220 1166 1220 1166 1221 1044 c 1,32,-1
 1041 1044 l 1,33,34
 1030 1122 1030 1122 1001.5 1178 c 128,-1,35
 973 1234 973 1234 926.5 1270 c 128,-1,36
 880 1306 880 1306 814 1323.5 c 128,-1,37
 748 1341 748 1341 662 1341 c 0,38,39
 571 1341 571 1341 507 1319.5 c 128,-1,40
 443 1298 443 1298 402.5 1263 c 128,-1,41
 362 1228 362 1228 344 1183 c 128,-1,42
 326 1138 326 1138 326 1090 c 0,43,44
 326 1039 326 1039 349.5 996.5 c 128,-1,45
 373 954 373 954 418 928 c 256,46,47
 463 902 463 902 581 872 c 128,-1,48
 699 842 699 842 896 800 c 1,49,50
 968 783 968 783 1027 759 c 128,-1,51
 1086 735 1086 735 1125 707 c 0,52,53
 1264 606 1264 606 1264 409 c 0,54,55
 1264 165 1264 165 1087 61 c 0,56,57
 911 -43 911 -43 675 -43 c 0,58,59
 537 -43 537 -43 429 -7 c 128,-1,60
 321 29 321 29 247 95.5 c 128,-1,61
 173 162 173 162 134 256.5 c 128,-1,62
 95 351 95 351 95 468 c 1,63,-1
 275 468 l 1,0,1
EndSplineSet
Substitution2: "<17001,16003> Urdu lookup 89 subtable" S
EndChar

StartChar: T
Encoding: 84 84 55
Width: 1246
GlyphClass: 2
Flags: W
LayerCount: 2
Fore
SplineSet
1219 1469 m 1,0,-1
 1219 1301 l 1,1,-1
 722 1301 l 1,2,-1
 722 0 l 1,3,-1
 526 0 l 1,4,-1
 526 1301 l 1,5,-1
 29 1301 l 1,6,-1
 29 1469 l 1,7,-1
 1219 1469 l 1,0,-1
EndSplineSet
Substitution2: "<17001,16003> Urdu lookup 89 subtable" T
EndChar

StartChar: U
Encoding: 85 85 56
Width: 1474
GlyphClass: 2
Flags: W
LayerCount: 2
Fore
SplineSet
361 1469 m 1,0,-1
 361 560 l 2,1,2
 361 351 361 351 454.5 239.5 c 128,-1,3
 548 128 548 128 727 128 c 0,4,5
 929 128 929 128 1027.5 236.5 c 128,-1,6
 1126 345 1126 345 1126 560 c 2,7,-1
 1126 1469 l 1,8,-1
 1321 1469 l 1,9,-1
 1321 643 l 2,10,11
 1321 509 1321 509 1302 404 c 128,-1,12
 1283 299 1283 299 1249 227 c 1,13,14
 1214 168 1214 168 1163.5 119 c 128,-1,15
 1113 70 1113 70 1049 35 c 128,-1,16
 985 0 985 0 908 -19.5 c 128,-1,17
 831 -39 831 -39 743 -39 c 256,18,19
 655 -39 655 -39 578.5 -19.5 c 128,-1,20
 502 0 502 0 438 35 c 128,-1,21
 374 70 374 70 323.5 119 c 128,-1,22
 273 168 273 168 238 227 c 1,23,24
 204 299 204 299 185 404 c 128,-1,25
 166 509 166 509 166 643 c 2,26,-1
 166 1469 l 1,27,-1
 361 1469 l 1,0,-1
EndSplineSet
Substitution2: "<17001,16003> Urdu lookup 89 subtable" U
EndChar

StartChar: V
Encoding: 86 86 57
Width: 1361
GlyphClass: 2
Flags: W
LayerCount: 2
Fore
SplineSet
262 1469 m 1,0,-1
 689 201 l 1,1,-1
 993 1114 l 2,2,3
 1023 1205 1023 1205 1052.5 1292 c 128,-1,4
 1082 1379 1082 1379 1111 1469 c 1,5,-1
 1326 1469 l 1,6,7
 1192 1101 1192 1101 1058.5 734.5 c 128,-1,8
 925 368 925 368 791 0 c 1,9,-1
 584 0 l 1,10,11
 450 369 450 369 317.5 734.5 c 128,-1,12
 185 1100 185 1100 51 1469 c 1,13,-1
 262 1469 l 1,0,-1
EndSplineSet
Substitution2: "<17001,16003> Urdu lookup 89 subtable" V
EndChar

StartChar: W
Encoding: 87 87 58
Width: 1928
GlyphClass: 2
Flags: W
LayerCount: 2
Fore
SplineSet
241 1469 m 1,0,-1
 519 273 l 1,1,-1
 527 273 l 1,2,3
 535 300 535 300 551.5 360 c 128,-1,4
 568 420 568 420 590.5 500.5 c 128,-1,5
 613 581 613 581 639.5 677 c 128,-1,6
 666 773 666 773 693.5 871.5 c 128,-1,7
 721 970 721 970 747.5 1066 c 128,-1,8
 774 1162 774 1162 796.5 1242.5 c 128,-1,9
 819 1323 819 1323 835.5 1382.5 c 128,-1,10
 852 1442 852 1442 859 1469 c 1,11,-1
 1071 1469 l 1,12,-1
 1403 273 l 1,13,-1
 1411 273 l 1,14,15
 1417 300 1417 300 1431 359.5 c 128,-1,16
 1445 419 1445 419 1463.5 500 c 128,-1,17
 1482 581 1482 581 1504.5 677 c 128,-1,18
 1527 773 1527 773 1550 871.5 c 128,-1,19
 1573 970 1573 970 1595.5 1066 c 128,-1,20
 1618 1162 1618 1162 1636.5 1242.5 c 128,-1,21
 1655 1323 1655 1323 1669 1382.5 c 128,-1,22
 1683 1442 1683 1442 1689 1469 c 1,23,-1
 1900 1469 l 1,24,25
 1803 1101 1803 1101 1707 734.5 c 128,-1,26
 1611 368 1611 368 1514 0 c 1,27,-1
 1310 0 l 1,28,-1
 966 1236 l 1,29,30
 958 1208 958 1208 941 1146 c 128,-1,31
 924 1084 924 1084 900.5 1000.5 c 128,-1,32
 877 917 877 917 849.5 818 c 128,-1,33
 822 719 822 719 793.5 617 c 128,-1,34
 765 515 765 515 737.5 416 c 128,-1,35
 710 317 710 317 686.5 233.5 c 128,-1,36
 663 150 663 150 645.5 88.5 c 128,-1,37
 628 27 628 27 620 0 c 1,38,-1
 416 0 l 1,39,40
 319 370 319 370 224 734.5 c 128,-1,41
 129 1099 129 1099 32 1469 c 1,42,-1
 241 1469 l 1,0,-1
EndSplineSet
Substitution2: "<17001,16003> Urdu lookup 89 subtable" W
EndChar

StartChar: X
Encoding: 88 88 59
Width: 1361
GlyphClass: 2
Flags: W
LayerCount: 2
Fore
SplineSet
274 0 m 1,0,-1
 41 0 l 1,1,-1
 566 753 l 1,2,3
 555 769 555 769 530.5 805 c 128,-1,4
 506 841 506 841 472.5 889.5 c 128,-1,5
 439 938 439 938 399.5 995.5 c 128,-1,6
 360 1053 360 1053 319.5 1112 c 128,-1,7
 279 1171 279 1171 240 1228.5 c 128,-1,8
 201 1286 201 1286 167.5 1334 c 128,-1,9
 134 1382 134 1382 110 1417.5 c 128,-1,10
 86 1453 86 1453 75 1469 c 1,11,-1
 315 1469 l 1,12,-1
 694 901 l 1,13,14
 706 919 706 919 736.5 965 c 128,-1,15
 767 1011 767 1011 806.5 1070.5 c 128,-1,16
 846 1130 846 1130 889.5 1196 c 128,-1,17
 933 1262 933 1262 971 1319.5 c 128,-1,18
 1009 1377 1009 1377 1036 1418 c 128,-1,19
 1063 1459 1063 1459 1070 1469 c 1,20,-1
 1298 1469 l 1,21,-1
 807 753 l 1,22,23
 818 737 818 737 843.5 700 c 128,-1,24
 869 663 869 663 904 612 c 128,-1,25
 939 561 939 561 981 500.5 c 128,-1,26
 1023 440 1023 440 1066.5 377.5 c 128,-1,27
 1110 315 1110 315 1151.5 254 c 128,-1,28
 1193 193 1193 193 1228 142 c 128,-1,29
 1263 91 1263 91 1288 53.5 c 128,-1,30
 1313 16 1313 16 1323 0 c 1,31,-1
 1084 0 l 1,32,-1
 684 610 l 1,33,-1
 274 0 l 1,0,-1
EndSplineSet
Substitution2: "<17001,16003> Urdu lookup 89 subtable" X
EndChar

StartChar: Y
Encoding: 89 89 60
Width: 1361
GlyphClass: 2
Flags: W
LayerCount: 2
Fore
SplineSet
40 1469 m 1,0,-1
 265 1469 l 1,1,-1
 691 756 l 1,2,3
 700 770 700 770 721 804.5 c 128,-1,4
 742 839 742 839 770.5 886.5 c 128,-1,5
 799 934 799 934 833 991 c 128,-1,6
 867 1048 867 1048 902 1106.5 c 128,-1,7
 937 1165 937 1165 971.5 1223 c 128,-1,8
 1006 1281 1006 1281 1035 1329.5 c 128,-1,9
 1064 1378 1064 1378 1085.5 1415 c 128,-1,10
 1107 1452 1107 1452 1117 1469 c 1,11,-1
 1343 1469 l 1,12,-1
 788 591 l 1,13,-1
 788 0 l 1,14,-1
 595 0 l 1,15,-1
 595 591 l 1,16,-1
 40 1469 l 1,0,-1
EndSplineSet
Substitution2: "<17001,16003> Urdu lookup 89 subtable" Y
EndChar

StartChar: Z
Encoding: 90 90 61
Width: 1246
GlyphClass: 2
Flags: W
LayerCount: 2
Fore
SplineSet
43 161 m 1,0,-1
 952 1301 l 1,1,-1
 109 1301 l 1,2,-1
 109 1469 l 1,3,-1
 1198 1469 l 1,4,-1
 1198 1302 l 1,5,-1
 284 168 l 1,6,-1
 1198 168 l 1,7,-1
 1198 0 l 1,8,-1
 43 0 l 1,9,-1
 43 161 l 1,0,-1
EndSplineSet
Substitution2: "<17001,16003> Urdu lookup 89 subtable" Z
EndChar

StartChar: bracketleft
Encoding: 91 91 62
Width: 610
GlyphClass: 2
Flags: W
LayerCount: 2
Fore
SplineSet
100 -465 m 1,0,-1
 100 1504 l 1,1,-1
 510 1504 l 1,2,-1
 510 1378 l 1,3,-1
 234 1378 l 1,4,-1
 234 -337 l 1,5,-1
 510 -337 l 1,6,-1
 510 -465 l 1,7,-1
 100 -465 l 1,0,-1
EndSplineSet
Substitution2: "<17001,16003> Urdu lookup 89 subtable" bracketleft
EndChar

StartChar: backslash
Encoding: 92 92 63
Width: 564
GlyphClass: 2
Flags: W
LayerCount: 2
Fore
SplineSet
78 1469 m 1,0,1
 221 1100 221 1100 362.5 734.5 c 128,-1,2
 504 369 504 369 648 0 c 1,3,-1
 501 0 l 1,4,5
 358 369 358 369 216.5 734.5 c 128,-1,6
 75 1100 75 1100 -68 1469 c 1,7,-1
 78 1469 l 1,0,1
EndSplineSet
Substitution2: "<17001,16003> Urdu lookup 89 subtable" backslash
EndChar

StartChar: bracketright
Encoding: 93 93 64
Width: 710
GlyphClass: 2
Flags: W
LayerCount: 2
Fore
SplineSet
100 -465 m 1,0,-1
 100 -337 l 1,1,-1
 373 -337 l 1,2,-1
 373 1378 l 1,3,-1
 100 1378 l 1,4,-1
 100 1504 l 1,5,-1
 510 1504 l 1,6,-1
 510 -465 l 1,7,-1
 100 -465 l 1,0,-1
EndSplineSet
Substitution2: "<17001,16003> Urdu lookup 89 subtable" bracketright
EndChar

StartChar: asciicircum
Encoding: 94 94 65
Width: 956
GlyphClass: 2
Flags: W
LayerCount: 2
Fore
SplineSet
549 1469 m 1,0,1
 637 1251 637 1251 724 1039 c 128,-1,2
 811 827 811 827 899 609 c 1,3,-1
 746 609 l 1,4,-1
 475 1283 l 1,5,6
 466 1261 466 1261 444 1207 c 128,-1,7
 422 1153 422 1153 394 1083 c 128,-1,8
 366 1013 366 1013 335.5 936 c 128,-1,9
 305 859 305 859 278 791 c 128,-1,10
 251 723 251 723 231 673.5 c 128,-1,11
 211 624 211 624 205 609 c 1,12,-1
 51 609 l 1,13,14
 139 827 139 827 225.5 1039 c 128,-1,15
 312 1251 312 1251 399 1469 c 1,16,-1
 549 1469 l 1,0,1
EndSplineSet
Substitution2: "<17001,16003> Urdu lookup 89 subtable" asciicircum
EndChar

StartChar: underscore
Encoding: 95 95 66
Width: 1134
GlyphClass: 2
Flags: W
LayerCount: 2
Fore
SplineSet
-4 -960 m 1,0,-1
 -4 -826 l 1,1,-1
 1133 -826 l 1,2,-1
 1133 -960 l 1,3,-1
 -4 -960 l 1,0,-1
EndSplineSet
Substitution2: "<17001,16003> Urdu lookup 89 subtable" underscore
EndChar

StartChar: grave
Encoding: 96 96 67
Width: 677
GlyphClass: 2
Flags: W
LayerCount: 2
Fore
SplineSet
452 1220 m 1,0,-1
 322 1220 l 1,1,2
 259 1289 259 1289 191.5 1362 c 128,-1,3
 124 1435 124 1435 61 1502 c 1,4,-1
 274 1502 l 1,5,-1
 452 1220 l 1,0,-1
EndSplineSet
Substitution2: "<17001,16003> Urdu lookup 89 subtable" grave
EndChar

StartChar: a
Encoding: 97 97 68
Width: 1134
GlyphClass: 2
Flags: W
LayerCount: 2
Fore
SplineSet
456 110 m 0,0,1
 553 110 553 110 643 155 c 0,2,3
 796 230 796 230 796 398 c 2,4,-1
 796 551 l 1,5,6
 761 530 761 530 707.5 514.5 c 128,-1,7
 654 499 654 499 603 492 c 2,8,-1
 493 478 l 2,9,10
 430 470 430 470 386 455.5 c 128,-1,11
 342 441 342 441 313.5 417.5 c 128,-1,12
 285 394 285 394 272 361 c 128,-1,13
 259 328 259 328 259 283 c 0,14,15
 259 243 259 243 275.5 211 c 128,-1,16
 292 179 292 179 319 156.5 c 128,-1,17
 346 134 346 134 381.5 122 c 128,-1,18
 417 110 417 110 456 110 c 0,0,1
703 644 m 1,19,20
 751 652 751 652 776.5 681 c 128,-1,21
 802 710 802 710 802 770 c 0,22,23
 802 866 802 866 735 908.5 c 128,-1,24
 668 951 668 951 543 951 c 0,25,26
 430 951 430 951 370.5 904.5 c 128,-1,27
 311 858 311 858 295 748 c 1,28,-1
 134 748 l 1,29,30
 137 845 137 845 168.5 913 c 128,-1,31
 200 981 200 981 260 1018 c 0,32,33
 385 1095 385 1095 547 1095 c 0,34,35
 640 1095 640 1095 717.5 1078 c 128,-1,36
 795 1061 795 1061 851 1025.5 c 128,-1,37
 907 990 907 990 938 934.5 c 128,-1,38
 969 879 969 879 969 802 c 2,39,-1
 969 181 l 2,40,41
 969 152 969 152 981.5 133.5 c 128,-1,42
 994 115 994 115 1033 115 c 0,43,44
 1045 115 1045 115 1059 116.5 c 128,-1,45
 1073 118 1073 118 1089 120 c 1,46,-1
 1089 -6 l 1,47,48
 1069 -12 1069 -12 1055 -15.5 c 128,-1,49
 1041 -19 1041 -19 1028 -20.5 c 128,-1,50
 1015 -22 1015 -22 1001 -22.5 c 128,-1,51
 987 -23 987 -23 968 -23 c 0,52,53
 898 -23 898 -23 858 16.5 c 128,-1,54
 818 56 818 56 804 147 c 1,55,56
 741 69 741 69 640 16 c 0,57,58
 539 -36 539 -36 414 -36 c 0,59,60
 339 -36 339 -36 277 -12 c 128,-1,61
 215 12 215 12 171 54.5 c 128,-1,62
 127 97 127 97 102.5 154.5 c 128,-1,63
 78 212 78 212 78 279 c 0,64,65
 78 353 78 353 102 410 c 128,-1,66
 126 467 126 467 170.5 508 c 128,-1,67
 215 549 215 549 277 574 c 128,-1,68
 339 599 339 599 414 608 c 2,69,-1
 703 644 l 1,19,20
EndSplineSet
Substitution2: "<17001,16003> Urdu lookup 89 subtable" a
EndChar

StartChar: b
Encoding: 98 98 69
Width: 1134
GlyphClass: 2
Flags: W
LayerCount: 2
Fore
SplineSet
878 546 m 0,0,1
 878 630 878 630 859.5 702.5 c 128,-1,2
 841 775 841 775 804.5 828.5 c 128,-1,3
 768 882 768 882 713 913 c 128,-1,4
 658 944 658 944 586 944 c 0,5,6
 461 944 461 944 365 851 c 0,7,8
 317 805 317 805 295 728.5 c 128,-1,9
 273 652 273 652 272 546 c 1,10,11
 272 337 272 337 349 227.5 c 128,-1,12
 426 118 426 118 581 118 c 0,13,14
 655 118 655 118 711 149.5 c 128,-1,15
 767 181 767 181 804 237.5 c 128,-1,16
 841 294 841 294 859.5 373 c 128,-1,17
 878 452 878 452 878 546 c 0,0,1
115 1474 m 1,18,-1
 282 1474 l 1,19,-1
 282 932 l 1,20,21
 345 1014 345 1014 427.5 1055.5 c 128,-1,22
 510 1097 510 1097 607 1097 c 0,23,24
 706 1097 706 1097 788 1063 c 128,-1,25
 870 1029 870 1029 929 961.5 c 128,-1,26
 988 894 988 894 1021 792.5 c 128,-1,27
 1054 691 1054 691 1054 555 c 0,28,29
 1054 432 1054 432 1023.5 324.5 c 128,-1,30
 993 217 993 217 934 137.5 c 128,-1,31
 875 58 875 58 789 12 c 128,-1,32
 703 -34 703 -34 592 -34 c 0,33,34
 532 -34 532 -34 480.5 -18.5 c 128,-1,35
 429 -3 429 -3 387 24 c 0,36,37
 361 41 361 41 331.5 72 c 128,-1,38
 302 103 302 103 273 145 c 1,39,-1
 273 0 l 1,40,-1
 115 0 l 1,41,-1
 115 1474 l 1,18,-1
EndSplineSet
Substitution2: "<17001,16003> Urdu lookup 89 subtable" b
EndChar

StartChar: c
Encoding: 99 99 70
AltUni2: 00217d.ffffffff.0
Width: 1019
GlyphClass: 2
Flags: W
LayerCount: 2
Fore
SplineSet
801 715 m 1,0,1
 793 765 793 765 775.5 807.5 c 128,-1,2
 758 850 758 850 727 881 c 128,-1,3
 696 912 696 912 650.5 929.5 c 128,-1,4
 605 947 605 947 540 947 c 0,5,6
 468 947 468 947 412.5 916.5 c 128,-1,7
 357 886 357 886 318.5 829 c 128,-1,8
 280 772 280 772 260 689.5 c 128,-1,9
 240 607 240 607 240 503 c 0,10,11
 240 422 240 422 257.5 351.5 c 128,-1,12
 275 281 275 281 310.5 228.5 c 128,-1,13
 346 176 346 176 400.5 146 c 128,-1,14
 455 116 455 116 528 116 c 0,15,16
 641 116 641 116 708.5 184.5 c 128,-1,17
 776 253 776 253 801 373 c 1,18,-1
 968 373 l 1,19,20
 952 268 952 268 914 192 c 128,-1,21
 876 116 876 116 818 66.5 c 128,-1,22
 760 17 760 17 683.5 -7 c 128,-1,23
 607 -31 607 -31 514 -31 c 0,24,25
 407 -31 407 -31 323 10.5 c 128,-1,26
 239 52 239 52 180.5 124 c 128,-1,27
 122 196 122 196 90 294 c 128,-1,28
 58 392 58 392 56 505 c 1,29,30
 56 647 56 647 92 757.5 c 128,-1,31
 128 868 128 868 192.5 944 c 128,-1,32
 257 1020 257 1020 346 1060 c 128,-1,33
 435 1100 435 1100 540 1100 c 0,34,35
 630 1100 630 1100 703.5 1080 c 128,-1,36
 777 1060 777 1060 831.5 1014 c 128,-1,37
 886 968 886 968 921 895 c 128,-1,38
 956 822 956 822 968 715 c 1,39,-1
 801 715 l 1,0,1
EndSplineSet
Substitution2: "<17001,16003> Urdu lookup 89 subtable" c
EndChar

StartChar: d
Encoding: 100 100 71
AltUni2: 00217e.ffffffff.0
Width: 1134
GlyphClass: 2
Flags: W
LayerCount: 2
Fore
SplineSet
548 112 m 0,0,1
 611 112 611 112 664.5 140.5 c 128,-1,2
 718 169 718 169 757 223 c 128,-1,3
 796 277 796 277 818 355.5 c 128,-1,4
 840 434 840 434 840 534 c 0,5,6
 840 638 840 638 817 714 c 128,-1,7
 794 790 794 790 754 840 c 128,-1,8
 714 890 714 890 660.5 914.5 c 128,-1,9
 607 939 607 939 546 939 c 0,10,11
 478 939 478 939 421 912.5 c 128,-1,12
 364 886 364 886 322.5 833.5 c 128,-1,13
 281 781 281 781 258 703 c 128,-1,14
 235 625 235 625 235 522 c 0,15,16
 235 437 235 437 253 362 c 128,-1,17
 271 287 271 287 309 231.5 c 128,-1,18
 347 176 347 176 406.5 144 c 128,-1,19
 466 112 466 112 548 112 c 0,0,1
717 1037 m 1,20,21
 742 1023 742 1023 770.5 994.5 c 128,-1,22
 799 966 799 966 833 924 c 1,23,-1
 833 1474 l 1,24,-1
 998 1474 l 1,25,-1
 998 0 l 1,26,-1
 844 0 l 1,27,-1
 844 159 l 1,28,29
 776 55 776 55 689.5 8.5 c 128,-1,30
 603 -38 603 -38 492 -38 c 0,31,32
 402 -38 402 -38 323 1 c 128,-1,33
 244 40 244 40 184.5 112 c 128,-1,34
 125 184 125 184 90 285.5 c 128,-1,35
 55 387 55 387 53 512 c 1,36,37
 53 627 53 627 83 731 c 128,-1,38
 113 835 113 835 171.5 914.5 c 128,-1,39
 230 994 230 994 315.5 1041 c 128,-1,40
 401 1088 401 1088 512 1088 c 0,41,42
 636 1088 636 1088 717 1037 c 1,20,21
EndSplineSet
Substitution2: "<17001,16003> Urdu lookup 89 subtable" d
EndChar

StartChar: e
Encoding: 101 101 72
Width: 1134
GlyphClass: 2
Flags: W
LayerCount: 2
Fore
SplineSet
866 616 m 1,0,1
 851 785 851 785 775.5 864.5 c 128,-1,2
 700 944 700 944 562 944 c 0,3,4
 500 944 500 944 446 919.5 c 128,-1,5
 392 895 392 895 351.5 851.5 c 128,-1,6
 311 808 311 808 286.5 747.5 c 128,-1,7
 262 687 262 687 259 616 c 1,8,-1
 866 616 l 1,0,1
956 902 m 0,9,10
 981 864 981 864 999 814 c 128,-1,11
 1017 764 1017 764 1027 713 c 0,12,13
 1035 676 1035 676 1039.5 617.5 c 128,-1,14
 1044 559 1044 559 1043 480 c 1,15,-1
 254 480 l 1,16,17
 257 399 257 399 276 331 c 128,-1,18
 295 263 295 263 332.5 214.5 c 128,-1,19
 370 166 370 166 426.5 138.5 c 128,-1,20
 483 111 483 111 560 111 c 0,21,22
 614 111 614 111 662 126 c 128,-1,23
 710 141 710 141 748.5 169.5 c 128,-1,24
 787 198 787 198 815 238.5 c 128,-1,25
 843 279 843 279 858 330 c 1,26,-1
 1027 330 l 1,27,28
 1022 302 1022 302 1008.5 268.5 c 128,-1,29
 995 235 995 235 977 202 c 128,-1,30
 959 169 959 169 937.5 138.5 c 128,-1,31
 916 108 916 108 894 86 c 1,32,-1
 895 86 l 1,33,34
 832 26 832 26 743 -6 c 128,-1,35
 654 -38 654 -38 545 -38 c 0,36,37
 446 -38 446 -38 359 -1 c 128,-1,38
 272 36 272 36 207.5 106.5 c 128,-1,39
 143 177 143 177 106 279.5 c 128,-1,40
 69 382 69 382 69 514 c 0,41,42
 69 643 69 643 105.5 749.5 c 128,-1,43
 142 856 142 856 208 932.5 c 128,-1,44
 274 1009 274 1009 367 1051 c 128,-1,45
 460 1093 460 1093 573 1093 c 0,46,47
 629 1093 629 1093 685.5 1079 c 128,-1,48
 742 1065 742 1065 793 1039.5 c 128,-1,49
 844 1014 844 1014 886.5 979 c 128,-1,50
 929 944 929 944 956 902 c 0,9,10
EndSplineSet
Substitution2: "<17001,16003> Urdu lookup 89 subtable" e
EndChar

StartChar: f
Encoding: 102 102 73
Width: 564
GlyphClass: 2
Flags: W
LayerCount: 2
Fore
SplineSet
214 1400 m 0,0,1
 276 1490 276 1490 455 1490 c 0,2,3
 471 1490 471 1490 490 1489.5 c 128,-1,4
 509 1489 509 1489 528 1487 c 1,5,-1
 528 1330 l 1,6,7
 520 1332 520 1332 513 1332 c 128,-1,8
 506 1332 506 1332 500 1332 c 0,9,10
 443 1332 443 1332 412 1325 c 128,-1,11
 381 1318 381 1318 367 1291 c 128,-1,12
 353 1264 353 1264 351 1210.5 c 128,-1,13
 349 1157 349 1157 349 1064 c 1,14,-1
 528 1064 l 1,15,-1
 528 929 l 1,16,-1
 346 929 l 1,17,-1
 346 0 l 1,18,-1
 175 0 l 1,19,-1
 175 929 l 1,20,-1
 25 929 l 1,21,-1
 25 1064 l 1,22,-1
 175 1064 l 1,23,-1
 175 1237 l 1,24,25
 179 1350 179 1350 214 1400 c 0,0,1
EndSplineSet
Substitution2: "<17001,16003> Urdu lookup 89 subtable" f
EndChar

StartChar: g
Encoding: 103 103 74
Width: 1134
GlyphClass: 2
Flags: W
LayerCount: 2
Fore
SplineSet
538 937 m 0,0,1
 390 937 390 937 312.5 830.5 c 128,-1,2
 235 724 235 724 235 503 c 0,3,4
 235 412 235 412 254.5 341.5 c 128,-1,5
 274 271 274 271 310.5 223.5 c 128,-1,6
 347 176 347 176 398 151.5 c 128,-1,7
 449 127 449 127 512 127 c 0,8,9
 587 127 587 127 647 155.5 c 128,-1,10
 707 184 707 184 748.5 237.5 c 128,-1,11
 790 291 790 291 812.5 367.5 c 128,-1,12
 835 444 835 444 835 539 c 0,13,14
 835 641 835 641 812.5 715.5 c 128,-1,15
 790 790 790 790 750.5 839.5 c 128,-1,16
 711 889 711 889 656.5 913 c 128,-1,17
 602 937 602 937 538 937 c 0,0,1
724 1027 m 0,18,19
 750 1010 750 1010 777 983 c 128,-1,20
 804 956 804 956 835 917 c 1,21,-1
 835 1059 l 1,22,-1
 993 1059 l 1,23,-1
 993 84 l 2,24,25
 993 -195 993 -195 874 -325 c 128,-1,26
 755 -455 755 -455 512 -455 c 0,27,28
 429 -455 429 -455 356 -437 c 128,-1,29
 283 -419 283 -419 227 -381 c 128,-1,30
 171 -343 171 -343 135.5 -284 c 128,-1,31
 100 -225 100 -225 92 -142 c 1,32,-1
 267 -142 l 1,33,34
 286 -234 286 -234 346.5 -274 c 128,-1,35
 407 -314 407 -314 516 -314 c 0,36,37
 619 -314 619 -314 689 -275.5 c 128,-1,38
 759 -237 759 -237 793 -165 c 0,39,40
 811 -126 811 -126 819.5 -54 c 128,-1,41
 828 18 828 18 828 115 c 2,42,-1
 828 158 l 1,43,44
 765 64 765 64 691 26 c 0,45,46
 616 -13 616 -13 491 -13 c 0,47,48
 315 -13 315 -13 186 110 c 0,49,50
 120 173 120 173 90 273.5 c 128,-1,51
 60 374 60 374 58 518 c 1,52,53
 58 653 58 653 93.5 758.5 c 128,-1,54
 129 864 129 864 189.5 937.5 c 128,-1,55
 250 1011 250 1011 331.5 1049.5 c 128,-1,56
 413 1088 413 1088 505 1088 c 0,57,58
 630 1088 630 1088 724 1027 c 0,18,19
EndSplineSet
Substitution2: "<17001,16003> Urdu lookup 89 subtable" g
EndChar

StartChar: h
Encoding: 104 104 75
Width: 1134
GlyphClass: 2
Flags: W
LayerCount: 2
Fore
SplineSet
129 1474 m 1,0,-1
 301 1474 l 1,1,-1
 301 917 l 1,2,3
 337 962 337 962 368 992 c 128,-1,4
 399 1022 399 1022 423 1039 c 0,5,6
 466 1069 466 1069 520 1082 c 128,-1,7
 574 1095 574 1095 640 1095 c 0,8,9
 730 1095 730 1095 797 1071.5 c 128,-1,10
 864 1048 864 1048 909 998.5 c 128,-1,11
 954 949 954 949 976 872 c 128,-1,12
 998 795 998 795 998 687 c 2,13,-1
 998 0 l 1,14,-1
 821 0 l 1,15,-1
 821 675 l 2,16,17
 821 744 821 744 809.5 794.5 c 128,-1,18
 798 845 798 845 771.5 877.5 c 128,-1,19
 745 910 745 910 703 926 c 128,-1,20
 661 942 661 942 601 942 c 0,21,22
 489 942 489 942 395 863 c 0,23,24
 301 785 301 785 301 567 c 2,25,-1
 301 0 l 1,26,-1
 129 0 l 1,27,-1
 129 1474 l 1,0,-1
EndSplineSet
Substitution2: "<17001,16003> Urdu lookup 89 subtable" h
EndChar

StartChar: i
Encoding: 105 105 76
Width: 450
GlyphClass: 2
Flags: W
LayerCount: 2
Fore
SplineSet
130 1469 m 1,0,-1
 307 1469 l 1,1,-1
 307 1272 l 1,2,-1
 130 1272 l 1,3,-1
 130 1469 l 1,0,-1
130 1064 m 1,4,-1
 307 1064 l 1,5,-1
 307 0 l 1,6,-1
 130 0 l 1,7,-1
 130 1064 l 1,4,-1
EndSplineSet
Substitution2: "<17001,16003> Urdu lookup 89 subtable" i
EndChar

StartChar: j
Encoding: 106 106 77
Width: 450
GlyphClass: 2
Flags: W
LayerCount: 2
Fore
SplineSet
304 1268 m 1,0,-1
 131 1268 l 1,1,-1
 131 1469 l 1,2,-1
 304 1469 l 1,3,-1
 304 1268 l 1,0,-1
-40 -281 m 1,4,5
 80 -276 80 -276 104 -258 c 0,6,7
 131 -237 131 -237 131 -145 c 2,8,-1
 131 1064 l 1,9,-1
 304 1064 l 1,10,-1
 304 -164 l 2,11,12
 304 -238 304 -238 288 -289.5 c 128,-1,13
 272 -341 272 -341 238.5 -373 c 128,-1,14
 205 -405 205 -405 153 -419.5 c 128,-1,15
 101 -434 101 -434 29 -434 c 0,16,17
 16 -434 16 -434 2 -433.5 c 128,-1,18
 -12 -433 -12 -433 -40 -430 c 1,19,-1
 -40 -281 l 1,4,5
EndSplineSet
Substitution2: "<17001,16003> Urdu lookup 89 subtable" j
EndChar

StartChar: k
Encoding: 107 107 78
Width: 1019
GlyphClass: 2
Flags: W
LayerCount: 2
Fore
SplineSet
125 1469 m 1,0,-1
 290 1469 l 1,1,-1
 290 605 l 1,2,3
 304 619 304 619 340.5 655 c 128,-1,4
 377 691 377 691 424.5 738 c 128,-1,5
 472 785 472 785 525.5 837.5 c 128,-1,6
 579 890 579 890 626.5 937 c 128,-1,7
 674 984 674 984 710 1019.5 c 128,-1,8
 746 1055 746 1055 760 1069 c 1,9,-1
 980 1069 l 1,10,-1
 573 671 l 1,11,12
 679 507 679 507 790 335.5 c 128,-1,13
 901 164 901 164 1006 0 c 1,14,-1
 785 0 l 1,15,-1
 447 545 l 1,16,17
 409 510 409 510 368 472.5 c 128,-1,18
 327 435 327 435 290 401 c 1,19,-1
 290 0 l 1,20,-1
 125 0 l 1,21,-1
 125 1469 l 1,0,-1
EndSplineSet
Substitution2: "<17001,16003> Urdu lookup 89 subtable" k
EndChar

StartChar: l
Encoding: 108 108 79
AltUni2: 00217c.ffffffff.0
Width: 450
GlyphClass: 2
Flags: W
LayerCount: 2
Fore
SplineSet
135 1469 m 1,0,-1
 309 1469 l 1,1,-1
 309 0 l 1,2,-1
 135 0 l 1,3,-1
 135 1469 l 1,0,-1
EndSplineSet
Substitution2: "<17001,16003> Urdu lookup 89 subtable" l
EndChar

StartChar: m
Encoding: 109 109 80
AltUni2: 00217f.ffffffff.0
Width: 1701
GlyphClass: 2
Flags: W
LayerCount: 2
Fore
SplineSet
127 1069 m 1,0,-1
 298 1069 l 1,1,-1
 298 910 l 1,2,3
 369 997 369 997 421 1033 c 0,4,5
 464 1062 464 1062 514 1077.5 c 128,-1,6
 564 1093 564 1093 621 1093 c 0,7,8
 672 1093 672 1093 714 1084.5 c 128,-1,9
 756 1076 756 1076 791 1055.5 c 128,-1,10
 826 1035 826 1035 855 1002 c 128,-1,11
 884 969 884 969 909 920 c 1,12,13
 972 1008 972 1008 1053 1050.5 c 128,-1,14
 1134 1093 1134 1093 1234 1093 c 0,15,16
 1400 1093 1400 1093 1484 1002 c 128,-1,17
 1568 911 1568 911 1568 713 c 2,18,-1
 1568 0 l 1,19,-1
 1388 0 l 1,20,-1
 1388 744 l 2,21,22
 1388 800 1388 800 1372.5 837 c 128,-1,23
 1357 874 1357 874 1331 896 c 128,-1,24
 1305 918 1305 918 1271 927.5 c 128,-1,25
 1237 937 1237 937 1199 937 c 0,26,27
 1146 937 1146 937 1098 919.5 c 128,-1,28
 1050 902 1050 902 1014 863.5 c 128,-1,29
 978 825 978 825 956.5 765.5 c 128,-1,30
 935 706 935 706 935 622 c 2,31,-1
 935 0 l 1,32,-1
 758 0 l 1,33,-1
 758 699 l 2,34,35
 758 767 758 767 748 813 c 128,-1,36
 738 859 738 859 716 887 c 128,-1,37
 694 915 694 915 659 927 c 128,-1,38
 624 939 624 939 574 939 c 0,39,40
 472 939 472 939 386 858 c 256,41,42
 300 777 300 777 300 567 c 2,43,-1
 300 0 l 1,44,-1
 127 0 l 1,45,-1
 127 1069 l 1,0,-1
EndSplineSet
Substitution2: "<17001,16003> Urdu lookup 89 subtable" m
EndChar

StartChar: n
Encoding: 110 110 81
Width: 1134
GlyphClass: 2
Flags: W
LayerCount: 2
Fore
SplineSet
129 1069 m 1,0,-1
 292 1069 l 1,1,-1
 292 909 l 1,2,3
 372 1007 372 1007 458 1050 c 128,-1,4
 544 1093 544 1093 649 1093 c 0,5,6
 738 1093 738 1093 804 1070 c 128,-1,7
 870 1047 870 1047 913 998 c 128,-1,8
 956 949 956 949 977 872 c 128,-1,9
 998 795 998 795 998 687 c 2,10,-1
 998 0 l 1,11,-1
 823 0 l 1,12,-1
 823 675 l 2,13,14
 823 804 823 804 772.5 871.5 c 128,-1,15
 722 939 722 939 614 939 c 0,16,17
 533 939 533 939 477 913 c 128,-1,18
 421 887 421 887 375 835 c 0,19,20
 352 808 352 808 337.5 782 c 128,-1,21
 323 756 323 756 315 724.5 c 128,-1,22
 307 693 307 693 304 653.5 c 128,-1,23
 301 614 301 614 301 560 c 2,24,-1
 301 0 l 1,25,-1
 129 0 l 1,26,-1
 129 1069 l 1,0,-1
EndSplineSet
Substitution2: "<17001,16003> Urdu lookup 89 subtable" n
EndChar

StartChar: o
Encoding: 111 111 82
Width: 1134
GlyphClass: 2
Flags: W
LayerCount: 2
Fore
SplineSet
870 552 m 1,0,1
 870 627 870 627 858 689 c 128,-1,2
 846 751 846 751 824 796 c 1,3,4
 782 865 782 865 713.5 908 c 128,-1,5
 645 951 645 951 554 951 c 0,6,7
 470 951 470 951 409 915.5 c 128,-1,8
 348 880 348 880 309 820 c 128,-1,9
 270 760 270 760 251.5 681 c 128,-1,10
 233 602 233 602 233 514 c 0,11,12
 233 429 233 429 251.5 355 c 128,-1,13
 270 281 270 281 309 226.5 c 128,-1,14
 348 172 348 172 408 140.5 c 128,-1,15
 468 109 468 109 552 109 c 0,16,17
 731 109 731 109 802 247 c 0,18,19
 837 316 837 316 852.5 393.5 c 128,-1,20
 868 471 868 471 870 552 c 1,0,1
1050 557 m 0,21,22
 1050 428 1050 428 1017.5 321 c 128,-1,23
 985 214 985 214 925 129 c 1,24,25
 798 -39 798 -39 535 -39 c 0,26,27
 424 -39 424 -39 335 0.5 c 128,-1,28
 246 40 246 40 184 112 c 128,-1,29
 122 184 122 184 89 285.5 c 128,-1,30
 56 387 56 387 56 511 c 0,31,32
 56 645 56 645 91 753.5 c 128,-1,33
 126 862 126 862 191.5 939 c 128,-1,34
 257 1016 257 1016 350 1058 c 128,-1,35
 443 1100 443 1100 559 1100 c 0,36,37
 662 1100 662 1100 751.5 1066 c 128,-1,38
 841 1032 841 1032 907.5 964 c 128,-1,39
 974 896 974 896 1012 794 c 128,-1,40
 1050 692 1050 692 1050 557 c 0,21,22
EndSplineSet
Substitution2: "<17001,16003> Urdu lookup 89 subtable" o
EndChar

StartChar: p
Encoding: 112 112 83
Width: 1134
GlyphClass: 2
Flags: W
LayerCount: 2
Fore
SplineSet
878 541 m 0,0,1
 878 738 878 738 800 841.5 c 128,-1,2
 722 945 722 945 579 945 c 0,3,4
 430 945 430 945 355 833.5 c 128,-1,5
 280 722 280 722 280 496 c 0,6,7
 280 308 280 308 358 211 c 128,-1,8
 436 114 436 114 579 114 c 0,9,10
 643 114 643 114 697.5 141 c 128,-1,11
 752 168 752 168 792 222 c 128,-1,12
 832 276 832 276 855 356 c 128,-1,13
 878 436 878 436 878 541 c 0,0,1
115 1064 m 1,14,-1
 282 1064 l 1,15,-1
 282 914 l 1,16,17
 351 1005 351 1005 432.5 1050 c 128,-1,18
 514 1095 514 1095 620 1095 c 0,19,20
 710 1095 710 1095 789.5 1060 c 128,-1,21
 869 1025 869 1025 927.5 956.5 c 128,-1,22
 986 888 986 888 1020 788 c 128,-1,23
 1054 688 1054 688 1054 558 c 0,24,25
 1054 419 1054 419 1023 308.5 c 128,-1,26
 992 198 992 198 934 121.5 c 128,-1,27
 876 45 876 45 792 4.5 c 128,-1,28
 708 -36 708 -36 603 -36 c 0,29,30
 543 -36 543 -36 492 -21.5 c 128,-1,31
 441 -7 441 -7 401 16 c 0,32,33
 378 30 378 30 348.5 59.5 c 128,-1,34
 319 89 319 89 287 128 c 1,35,-1
 287 -429 l 1,36,-1
 115 -429 l 1,37,-1
 115 1064 l 1,14,-1
EndSplineSet
Substitution2: "<17001,16003> Urdu lookup 89 subtable" p
EndChar

StartChar: q
Encoding: 113 113 84
Width: 1134
GlyphClass: 2
Flags: W
LayerCount: 2
Fore
SplineSet
276 284 m 1,0,1
 348 114 348 114 529 114 c 0,2,3
 679 114 679 114 756 227 c 128,-1,4
 833 340 833 340 833 544 c 0,5,6
 833 740 833 740 754.5 841 c 128,-1,7
 676 942 676 942 527 942 c 0,8,9
 470 942 470 942 417.5 917 c 128,-1,10
 365 892 365 892 325 840 c 128,-1,11
 285 788 285 788 261 708.5 c 128,-1,12
 237 629 237 629 237 520 c 0,13,14
 237 379 237 379 276 284 c 1,0,1
732 1027 m 0,15,16
 757 1009 757 1009 782 981.5 c 128,-1,17
 807 954 807 954 835 912 c 1,18,-1
 835 1069 l 1,19,-1
 998 1069 l 1,20,-1
 998 -429 l 1,21,-1
 825 -429 l 1,22,-1
 825 133 l 1,23,24
 776 55 776 55 696 10.5 c 128,-1,25
 616 -34 616 -34 496 -34 c 0,26,27
 325 -34 325 -34 191 100 c 1,28,29
 57 232 57 232 57 507 c 0,30,31
 57 635 57 635 90 742.5 c 128,-1,32
 123 850 123 850 182.5 928 c 128,-1,33
 242 1006 242 1006 325.5 1049.5 c 128,-1,34
 409 1093 409 1093 509 1093 c 0,35,36
 642 1093 642 1093 732 1027 c 0,15,16
EndSplineSet
Substitution2: "<17001,16003> Urdu lookup 89 subtable" q
EndChar

StartChar: r
Encoding: 114 114 85
Width: 677
GlyphClass: 2
Flags: W
LayerCount: 2
Fore
SplineSet
134 1069 m 1,0,-1
 298 1069 l 1,1,-1
 298 891 l 1,2,-1
 307 889 l 1,3,4
 321 919 321 919 349 954.5 c 128,-1,5
 377 990 377 990 415.5 1020.5 c 128,-1,6
 454 1051 454 1051 500 1072 c 128,-1,7
 546 1093 546 1093 596 1093 c 0,8,9
 601 1093 601 1093 613 1092.5 c 128,-1,10
 625 1092 625 1092 651 1089 c 1,11,-1
 651 906 l 1,12,13
 637 908 637 908 624 909 c 128,-1,14
 611 910 611 910 595 910 c 0,15,16
 526 910 526 910 472.5 885 c 128,-1,17
 419 860 419 860 382.5 819 c 128,-1,18
 346 778 346 778 326.5 725 c 128,-1,19
 307 672 307 672 307 615 c 2,20,-1
 307 0 l 1,21,-1
 134 0 l 1,22,-1
 134 1069 l 1,0,-1
EndSplineSet
Substitution2: "<17001,16003> Urdu lookup 89 subtable" r
EndChar

StartChar: s
Encoding: 115 115 86
Width: 1019
GlyphClass: 2
Flags: W
LayerCount: 2
Fore
SplineSet
228 330 m 1,0,1
 239 208 239 208 310.5 156 c 128,-1,2
 382 104 382 104 515 104 c 0,3,4
 565 104 565 104 611.5 114.5 c 128,-1,5
 658 125 658 125 694 147 c 128,-1,6
 730 169 730 169 751.5 204 c 128,-1,7
 773 239 773 239 773 287 c 0,8,9
 773 328 773 328 755.5 354 c 128,-1,10
 738 380 738 380 696 400 c 128,-1,11
 654 420 654 420 584 438.5 c 128,-1,12
 514 457 514 457 409 483 c 0,13,14
 325 504 325 504 265 530.5 c 128,-1,15
 205 557 205 557 167 590.5 c 128,-1,16
 129 624 129 624 111.5 666 c 128,-1,17
 94 708 94 708 93 759 c 1,18,19
 93 836 93 836 122 898.5 c 128,-1,20
 151 961 151 961 203.5 1005 c 128,-1,21
 256 1049 256 1049 330 1073 c 128,-1,22
 404 1097 404 1097 495 1097 c 0,23,24
 590 1097 590 1097 666 1073 c 128,-1,25
 742 1049 742 1049 795 1005.5 c 128,-1,26
 848 962 848 962 877 901.5 c 128,-1,27
 906 841 906 841 907 767 c 1,28,-1
 744 767 l 1,29,30
 736 850 736 850 671.5 900.5 c 128,-1,31
 607 951 607 951 481 951 c 0,32,33
 375 951 375 951 321.5 910.5 c 128,-1,34
 268 870 268 870 268 804 c 0,35,36
 268 764 268 764 286 736.5 c 128,-1,37
 304 709 304 709 341.5 688.5 c 128,-1,38
 379 668 379 668 438.5 650.5 c 128,-1,39
 498 633 498 633 580 613 c 0,40,41
 676 590 676 590 741 567 c 128,-1,42
 806 544 806 544 840 523 c 0,43,44
 891 491 891 491 917 435.5 c 128,-1,45
 943 380 943 380 943 308 c 0,46,47
 943 239 943 239 914.5 176 c 128,-1,48
 886 113 886 113 835 62 c 1,49,-1
 836 62 l 1,50,51
 782 11 782 11 700 -15 c 128,-1,52
 618 -41 618 -41 506 -41 c 0,53,54
 384 -41 384 -41 301.5 -12 c 128,-1,55
 219 17 219 17 167.5 67 c 128,-1,56
 116 117 116 117 92 184.5 c 128,-1,57
 68 252 68 252 63 330 c 1,58,-1
 228 330 l 1,0,1
EndSplineSet
Substitution2: "<17001,16003> Urdu lookup 89 subtable" s
EndChar

StartChar: t
Encoding: 116 116 87
Width: 564
GlyphClass: 2
Flags: W
LayerCount: 2
Fore
SplineSet
166 1370 m 1,0,-1
 342 1370 l 1,1,-1
 342 1069 l 1,2,-1
 514 1069 l 1,3,-1
 514 929 l 1,4,-1
 342 929 l 1,5,-1
 342 223 l 2,6,7
 342 195 342 195 349 177 c 128,-1,8
 356 159 356 159 371.5 149 c 128,-1,9
 387 139 387 139 412.5 135.5 c 128,-1,10
 438 132 438 132 475 132 c 0,11,12
 484 132 484 132 493.5 132 c 128,-1,13
 503 132 503 132 514 134 c 1,14,-1
 514 -1 l 1,15,16
 483 -10 483 -10 450.5 -13.5 c 128,-1,17
 418 -17 418 -17 380 -17 c 0,18,19
 316 -17 316 -17 274.5 0.5 c 128,-1,20
 233 18 233 18 209 48.5 c 128,-1,21
 185 79 185 79 175.5 121 c 128,-1,22
 166 163 166 163 166 212 c 2,23,-1
 166 929 l 1,24,-1
 20 929 l 1,25,-1
 20 1069 l 1,26,-1
 166 1069 l 1,27,-1
 166 1370 l 1,0,-1
EndSplineSet
Substitution2: "<17001,16003> Urdu lookup 89 subtable" t
EndChar

StartChar: u
Encoding: 117 117 88
Width: 1134
GlyphClass: 2
Flags: W
LayerCount: 2
Fore
SplineSet
301 1069 m 1,0,-1
 301 357 l 2,1,2
 301 242 301 242 353.5 182.5 c 128,-1,3
 406 123 406 123 512 123 c 0,4,5
 660 123 660 123 735.5 224.5 c 128,-1,6
 811 326 811 326 811 544 c 2,7,-1
 811 1069 l 1,8,-1
 983 1069 l 1,9,-1
 983 0 l 1,10,-1
 821 0 l 1,11,-1
 823 169 l 1,12,13
 765 72 765 72 676.5 21.5 c 128,-1,14
 588 -29 588 -29 479 -29 c 0,15,16
 125 -29 125 -29 125 341 c 2,17,-1
 125 1069 l 1,18,-1
 301 1069 l 1,0,-1
EndSplineSet
Substitution2: "<17001,16003> Urdu lookup 89 subtable" u
EndChar

StartChar: v
Encoding: 118 118 89
Width: 1019
GlyphClass: 2
Flags: W
LayerCount: 2
Fore
SplineSet
210 1069 m 1,0,-1
 501 182 l 1,1,2
 507 200 507 200 522.5 245.5 c 128,-1,3
 538 291 538 291 559 353.5 c 128,-1,4
 580 416 580 416 605.5 490.5 c 128,-1,5
 631 565 631 565 657 641.5 c 128,-1,6
 683 718 683 718 708 790.5 c 128,-1,7
 733 863 733 863 753 921.5 c 128,-1,8
 773 980 773 980 787 1019.5 c 128,-1,9
 801 1059 801 1059 805 1069 c 1,10,-1
 992 1069 l 1,11,12
 891 801 891 801 791.5 535 c 128,-1,13
 692 269 692 269 591 0 c 1,14,-1
 403 0 l 1,15,16
 304 269 304 269 206.5 534.5 c 128,-1,17
 109 800 109 800 11 1069 c 1,18,-1
 210 1069 l 1,0,-1
EndSplineSet
Substitution2: "<17001,16003> Urdu lookup 89 subtable" v
EndChar

StartChar: w
Encoding: 119 119 90
Width: 1474
GlyphClass: 2
Flags: W
LayerCount: 2
Fore
SplineSet
204 1069 m 1,0,-1
 410 226 l 1,1,-1
 418 226 l 1,2,3
 422 243 422 243 432 283.5 c 128,-1,4
 442 324 442 324 456 380.5 c 128,-1,5
 470 437 470 437 486.5 504 c 128,-1,6
 503 571 503 571 520.5 641 c 128,-1,7
 538 711 538 711 554.5 779 c 128,-1,8
 571 847 571 847 585.5 904.5 c 128,-1,9
 600 962 600 962 611 1005.5 c 128,-1,10
 622 1049 622 1049 627 1069 c 1,11,-1
 825 1069 l 1,12,-1
 1035 231 l 1,13,-1
 1043 231 l 1,14,15
 1047 246 1047 246 1057 285.5 c 128,-1,16
 1067 325 1067 325 1081.5 380.5 c 128,-1,17
 1096 436 1096 436 1113.5 502.5 c 128,-1,18
 1131 569 1131 569 1149 638.5 c 128,-1,19
 1167 708 1167 708 1185 776.5 c 128,-1,20
 1203 845 1203 845 1218.5 903 c 128,-1,21
 1234 961 1234 961 1245.5 1004.5 c 128,-1,22
 1257 1048 1257 1048 1262 1069 c 1,23,-1
 1434 1069 l 1,24,25
 1356 798 1356 798 1279 534.5 c 128,-1,26
 1202 271 1202 271 1124 0 c 1,27,-1
 943 0 l 1,28,-1
 724 829 l 1,29,-1
 716 829 l 1,30,31
 662 620 662 620 610 414.5 c 128,-1,32
 558 209 558 209 504 0 c 1,33,-1
 323 0 l 1,34,35
 245 271 245 271 169 535 c 128,-1,36
 93 799 93 799 15 1069 c 1,37,-1
 204 1069 l 1,0,-1
EndSplineSet
Substitution2: "<17001,16003> Urdu lookup 89 subtable" w
EndChar

StartChar: x
Encoding: 120 120 91
Width: 1019
GlyphClass: 2
Flags: W
LayerCount: 2
Fore
SplineSet
31 1069 m 1,0,-1
 254 1069 l 1,1,-1
 504 687 l 1,2,3
 511 697 511 697 530.5 726.5 c 128,-1,4
 550 756 550 756 576.5 795.5 c 128,-1,5
 603 835 603 835 632 879 c 128,-1,6
 661 923 661 923 686.5 962 c 128,-1,7
 712 1001 712 1001 731.5 1030 c 128,-1,8
 751 1059 751 1059 757 1069 c 1,9,10
 811 1068 811 1068 861.5 1066.5 c 128,-1,11
 912 1065 912 1065 966 1064 c 1,12,-1
 608 548 l 1,13,14
 616 536 616 536 643.5 495.5 c 128,-1,15
 671 455 671 455 708.5 399.5 c 128,-1,16
 746 344 746 344 789 281.5 c 128,-1,17
 832 219 832 219 871 162 c 128,-1,18
 910 105 910 105 940 61 c 128,-1,19
 970 17 970 17 982 0 c 1,20,-1
 762 0 l 1,21,-1
 492 406 l 1,22,23
 426 304 426 304 361 203.5 c 128,-1,24
 296 103 296 103 230 0 c 1,25,-1
 11 0 l 1,26,-1
 386 548 l 1,27,-1
 31 1069 l 1,0,-1
EndSplineSet
Substitution2: "<17001,16003> Urdu lookup 89 subtable" x
EndChar

StartChar: y
Encoding: 121 121 92
Width: 1019
GlyphClass: 2
Flags: W
LayerCount: 2
Fore
SplineSet
801 1069 m 1,0,-1
 990 1069 l 1,1,2
 988 1063 988 1063 977 1032 c 128,-1,3
 966 1001 966 1001 950.5 956.5 c 128,-1,4
 935 912 935 912 916 859 c 128,-1,5
 897 806 897 806 879.5 756.5 c 128,-1,6
 862 707 862 707 847 665.5 c 128,-1,7
 832 624 832 624 824 602 c 0,8,9
 819 586 819 586 806 549 c 128,-1,10
 793 512 793 512 776 465.5 c 128,-1,11
 759 419 759 419 740 367 c 128,-1,12
 721 315 721 315 704.5 270.5 c 128,-1,13
 688 226 688 226 675.5 193 c 128,-1,14
 663 160 663 160 659 150 c 0,15,16
 581 -52 581 -52 526 -178.5 c 128,-1,17
 471 -305 471 -305 439 -353 c 1,18,19
 407 -395 407 -395 351 -418 c 128,-1,20
 295 -441 295 -441 220 -441 c 0,21,22
 201 -441 201 -441 187.5 -440.5 c 128,-1,23
 174 -440 174 -440 162.5 -438.5 c 128,-1,24
 151 -437 151 -437 140 -434.5 c 128,-1,25
 129 -432 129 -432 115 -428 c 1,26,-1
 115 -273 l 1,27,28
 138 -279 138 -279 153.5 -282.5 c 128,-1,29
 169 -286 169 -286 180 -287.5 c 128,-1,30
 191 -289 191 -289 199 -289.5 c 128,-1,31
 207 -290 207 -290 216 -290 c 0,32,33
 264 -290 264 -290 291 -272 c 128,-1,34
 318 -254 318 -254 333 -231 c 0,35,36
 337 -225 337 -225 348.5 -198.5 c 128,-1,37
 360 -172 360 -172 373.5 -140 c 128,-1,38
 387 -108 387 -108 399 -78 c 128,-1,39
 411 -48 411 -48 416 -35 c 1,40,41
 407 -11 407 -11 387 44 c 128,-1,42
 367 99 367 99 340.5 174 c 128,-1,43
 314 249 314 249 282.5 337.5 c 128,-1,44
 251 426 251 426 218.5 517.5 c 128,-1,45
 186 609 186 609 154.5 697.5 c 128,-1,46
 123 786 123 786 96.5 860.5 c 128,-1,47
 70 935 70 935 50 990 c 128,-1,48
 30 1045 30 1045 21 1069 c 1,49,-1
 215 1069 l 1,50,-1
 507 182 l 1,51,-1
 801 1069 l 1,0,-1
EndSplineSet
Substitution2: "<17001,16003> Urdu lookup 89 subtable" y
EndChar

StartChar: z
Encoding: 122 122 93
Width: 1019
GlyphClass: 2
Flags: W
LayerCount: 2
Fore
SplineSet
49 138 m 1,0,-1
 691 915 l 1,1,-1
 96 915 l 1,2,-1
 96 1069 l 1,3,-1
 922 1069 l 1,4,-1
 922 926 l 1,5,-1
 284 154 l 1,6,-1
 941 154 l 1,7,-1
 941 0 l 1,8,-1
 49 0 l 1,9,-1
 49 138 l 1,0,-1
EndSplineSet
Substitution2: "<17001,16003> Urdu lookup 89 subtable" z
EndChar

StartChar: braceleft
Encoding: 123 123 94
Width: 818
GlyphClass: 2
Flags: W
LayerCount: 2
Fore
SplineSet
100 600 m 1,0,1
 158 608 158 608 207 632 c 128,-1,2
 256 656 256 656 292 691 c 128,-1,3
 328 726 328 726 348 771 c 128,-1,4
 368 816 368 816 368 865 c 0,5,6
 368 880 368 880 364.5 906 c 128,-1,7
 361 932 361 932 355 963.5 c 128,-1,8
 349 995 349 995 343 1029 c 128,-1,9
 337 1063 337 1063 331 1094.5 c 128,-1,10
 325 1126 325 1126 321.5 1151.5 c 128,-1,11
 318 1177 318 1177 318 1192 c 0,12,13
 318 1272 318 1272 346.5 1345 c 128,-1,14
 375 1418 375 1418 427 1476.5 c 128,-1,15
 479 1535 479 1535 553 1575 c 128,-1,16
 627 1615 627 1615 718 1630 c 1,17,-1
 718 1586 l 1,18,19
 464 1527 464 1527 464 1326 c 0,20,21
 464 1310 464 1310 467.5 1282 c 128,-1,22
 471 1254 471 1254 477 1220 c 128,-1,23
 483 1186 483 1186 489 1149 c 128,-1,24
 495 1112 495 1112 501 1078 c 128,-1,25
 507 1044 507 1044 510.5 1015 c 128,-1,26
 514 986 514 986 514 969 c 0,27,28
 514 705 514 705 195 573 c 1,29,30
 519 446 519 446 519 196 c 0,31,32
 519 169 519 169 511.5 118 c 128,-1,33
 504 67 504 67 494.5 11 c 128,-1,34
 485 -45 485 -45 477.5 -96 c 128,-1,35
 470 -147 470 -147 470 -174 c 0,36,37
 470 -222 470 -222 488.5 -265 c 128,-1,38
 507 -308 507 -308 540 -341.5 c 128,-1,39
 573 -375 573 -375 618.5 -397 c 128,-1,40
 664 -419 664 -419 718 -426 c 1,41,-1
 718 -477 l 1,42,43
 627 -461 627 -461 554 -422.5 c 128,-1,44
 481 -384 481 -384 429.5 -327 c 128,-1,45
 378 -270 378 -270 350 -197.5 c 128,-1,46
 322 -125 322 -125 322 -41 c 0,47,48
 322 -16 322 -16 329.5 32 c 128,-1,49
 337 80 337 80 346 133 c 128,-1,50
 355 186 355 186 362.5 234.5 c 128,-1,51
 370 283 370 283 370 309 c 0,52,53
 370 497 370 497 100 557 c 1,54,-1
 100 600 l 1,0,1
EndSplineSet
Substitution2: "<17001,16003> Urdu lookup 89 subtable" braceleft
EndChar

StartChar: bar
Encoding: 124 124 95
Width: 527
GlyphClass: 2
Flags: W
LayerCount: 2
Fore
SplineSet
345 0 m 1,0,-1
 180 0 l 1,1,-1
 180 1490 l 1,2,-1
 345 1490 l 1,3,-1
 345 0 l 1,0,-1
EndSplineSet
Substitution2: "<17001,16003> Urdu lookup 89 subtable" bar
EndChar

StartChar: braceright
Encoding: 125 125 96
Width: 818
GlyphClass: 2
Flags: W
LayerCount: 2
Fore
SplineSet
718 557 m 1,0,1
 449 497 449 497 449 309 c 0,2,3
 449 283 449 283 456.5 234.5 c 128,-1,4
 464 186 464 186 473 133 c 128,-1,5
 482 80 482 80 489.5 32 c 128,-1,6
 497 -16 497 -16 497 -41 c 0,7,8
 497 -125 497 -125 469 -197.5 c 128,-1,9
 441 -270 441 -270 389 -327 c 128,-1,10
 337 -384 337 -384 263.5 -422.5 c 128,-1,11
 190 -461 190 -461 100 -477 c 1,12,-1
 100 -426 l 1,13,14
 154 -419 154 -419 199.5 -397 c 128,-1,15
 245 -375 245 -375 278 -341.5 c 128,-1,16
 311 -308 311 -308 329.5 -265 c 128,-1,17
 348 -222 348 -222 348 -174 c 0,18,19
 348 -147 348 -147 340.5 -96 c 128,-1,20
 333 -45 333 -45 324 11 c 128,-1,21
 315 67 315 67 307.5 118 c 128,-1,22
 300 169 300 169 300 196 c 0,23,24
 300 445 300 445 623 573 c 1,25,26
 305 705 305 705 305 969 c 0,27,28
 305 987 305 987 308.5 1015.5 c 128,-1,29
 312 1044 312 1044 318 1078 c 128,-1,30
 324 1112 324 1112 330 1149 c 128,-1,31
 336 1186 336 1186 342 1220 c 128,-1,32
 348 1254 348 1254 351.5 1281.5 c 128,-1,33
 355 1309 355 1309 355 1326 c 0,34,35
 355 1528 355 1528 100 1586 c 1,36,-1
 100 1630 l 1,37,38
 191 1615 191 1615 265 1575 c 128,-1,39
 339 1535 339 1535 391.5 1476.5 c 128,-1,40
 444 1418 444 1418 472.5 1345 c 128,-1,41
 501 1272 501 1272 501 1192 c 0,42,43
 501 1178 501 1178 497.5 1152 c 128,-1,44
 494 1126 494 1126 488 1094.5 c 128,-1,45
 482 1063 482 1063 476 1029 c 128,-1,46
 470 995 470 995 464 963.5 c 128,-1,47
 458 932 458 932 454.5 906 c 128,-1,48
 451 880 451 880 451 865 c 0,49,50
 451 815 451 815 471 770.5 c 128,-1,51
 491 726 491 726 527 690.5 c 128,-1,52
 563 655 563 655 612 631.5 c 128,-1,53
 661 608 661 608 718 600 c 1,54,-1
 718 557 l 1,0,1
EndSplineSet
Substitution2: "<17001,16003> Urdu lookup 89 subtable" braceright
EndChar

StartChar: asciitilde
Encoding: 126 126 97
Width: 1191
GlyphClass: 2
Flags: W
LayerCount: 2
Fore
SplineSet
366 683 m 0,0,1
 417 676 417 676 462 659 c 128,-1,2
 507 642 507 642 555 622 c 0,3,4
 563 619 563 619 581.5 612 c 128,-1,5
 600 605 600 605 623.5 596 c 128,-1,6
 647 587 647 587 673 577 c 128,-1,7
 699 567 699 567 722 558.5 c 128,-1,8
 745 550 745 550 762 544 c 128,-1,9
 779 538 779 538 785 536 c 0,10,11
 812 527 812 527 835.5 525.5 c 128,-1,12
 859 524 859 524 880 521 c 1,13,14
 918 521 918 521 950 537 c 128,-1,15
 982 553 982 553 1007 580.5 c 128,-1,16
 1032 608 1032 608 1049.5 644.5 c 128,-1,17
 1067 681 1067 681 1076 721 c 1,18,-1
 1185 721 l 1,19,20
 1172 648 1172 648 1147.5 585.5 c 128,-1,21
 1123 523 1123 523 1087 466 c 0,22,23
 1015 351 1015 351 868 351 c 0,24,25
 845 351 845 351 823 354 c 128,-1,26
 801 357 801 357 771.5 365.5 c 128,-1,27
 742 374 742 374 699 390 c 128,-1,28
 656 406 656 406 591 432 c 0,29,30
 553 447 553 447 513 462 c 128,-1,31
 473 477 473 477 435 489.5 c 128,-1,32
 397 502 397 502 362.5 509.5 c 128,-1,33
 328 517 328 517 301 517 c 0,34,35
 265 517 265 517 237.5 507.5 c 128,-1,36
 210 498 210 498 187.5 475.5 c 128,-1,37
 165 453 165 453 146 415.5 c 128,-1,38
 127 378 127 378 109 322 c 1,39,-1
 -1 322 l 1,40,41
 11 383 11 383 32.5 448 c 128,-1,42
 54 513 54 513 89.5 566 c 128,-1,43
 125 619 125 619 178 653.5 c 128,-1,44
 231 688 231 688 306 688 c 0,45,46
 320 688 320 688 335 686.5 c 128,-1,47
 350 685 350 685 366 683 c 0,0,1
EndSplineSet
Substitution2: "<17001,16003> Urdu lookup 89 subtable" asciitilde
EndChar

StartChar: Adieresis
Encoding: 196 196 98
Width: 1361
GlyphClass: 2
Flags: W
LayerCount: 2
Fore
SplineSet
757 1819 m 1,0,-1
 937 1819 l 1,1,-1
 937 1618 l 1,2,-1
 757 1618 l 1,3,-1
 757 1819 l 1,0,-1
424 1819 m 1,4,-1
 604 1819 l 1,5,-1
 604 1618 l 1,6,-1
 424 1618 l 1,7,-1
 424 1819 l 1,4,-1
913 597 m 1,8,9
 908 613 908 613 896 646.5 c 128,-1,10
 884 680 884 680 868.5 726 c 128,-1,11
 853 772 853 772 834 825.5 c 128,-1,12
 815 879 815 879 796 934.5 c 128,-1,13
 777 990 777 990 758.5 1043.5 c 128,-1,14
 740 1097 740 1097 725 1142 c 128,-1,15
 710 1187 710 1187 698.5 1220 c 128,-1,16
 687 1253 687 1253 682 1267 c 1,17,18
 676 1251 676 1251 663.5 1217 c 128,-1,19
 651 1183 651 1183 634 1137 c 128,-1,20
 617 1091 617 1091 597 1037 c 128,-1,21
 577 983 577 983 556.5 928 c 128,-1,22
 536 873 536 873 516.5 819.5 c 128,-1,23
 497 766 497 766 481 721 c 128,-1,24
 465 676 465 676 453 643.5 c 128,-1,25
 441 611 441 611 436 597 c 1,26,-1
 913 597 l 1,8,9
580 1469 m 1,27,-1
 801 1469 l 1,28,29
 934 1102 934 1102 1067.5 735 c 128,-1,30
 1201 368 1201 368 1334 0 c 1,31,-1
 1123 0 l 1,32,-1
 974 442 l 1,33,-1
 383 442 l 1,34,35
 380 434 380 434 368 400.5 c 128,-1,36
 356 367 356 367 339.5 320.5 c 128,-1,37
 323 274 323 274 304 221 c 128,-1,38
 285 168 285 168 268.5 121.5 c 128,-1,39
 252 75 252 75 240 41.5 c 128,-1,40
 228 8 228 8 225 0 c 1,41,-1
 28 0 l 1,42,-1
 580 1469 l 1,27,-1
EndSplineSet
Substitution2: "<17001,16003> Urdu lookup 89 subtable" Adieresis
EndChar

StartChar: Aring
Encoding: 197 197 99
AltUni2: 00212b.ffffffff.0
Width: 1361
GlyphClass: 2
Flags: W
LayerCount: 2
Fore
SplineSet
701 1612 m 0,0,1
 728 1612 728 1612 751.5 1622.5 c 128,-1,2
 775 1633 775 1633 793 1651 c 128,-1,3
 811 1669 811 1669 821.5 1693 c 128,-1,4
 832 1717 832 1717 832 1743 c 0,5,6
 832 1770 832 1770 821.5 1793.5 c 128,-1,7
 811 1817 811 1817 793 1834.5 c 128,-1,8
 775 1852 775 1852 751.5 1862.5 c 128,-1,9
 728 1873 728 1873 701 1873 c 0,10,11
 676 1873 676 1873 652.5 1862.5 c 128,-1,12
 629 1852 629 1852 611 1834.5 c 128,-1,13
 593 1817 593 1817 582 1793.5 c 128,-1,14
 571 1770 571 1770 571 1743 c 0,15,16
 571 1717 571 1717 581.5 1693 c 128,-1,17
 592 1669 592 1669 610 1651 c 128,-1,18
 628 1633 628 1633 651.5 1622.5 c 128,-1,19
 675 1612 675 1612 701 1612 c 0,0,1
701 1949 m 256,20,21
 743 1949 743 1949 780.5 1932.5 c 128,-1,22
 818 1916 818 1916 846.5 1887.5 c 128,-1,23
 875 1859 875 1859 891.5 1822 c 128,-1,24
 908 1785 908 1785 908 1743 c 256,25,26
 908 1701 908 1701 891.5 1663.5 c 128,-1,27
 875 1626 875 1626 847 1598 c 128,-1,28
 819 1570 819 1570 781 1553.5 c 128,-1,29
 743 1537 743 1537 701 1537 c 0,30,31
 658 1537 658 1537 621 1553.5 c 128,-1,32
 584 1570 584 1570 556 1598 c 128,-1,33
 528 1626 528 1626 512 1663.5 c 128,-1,34
 496 1701 496 1701 496 1743 c 256,35,36
 496 1785 496 1785 512.5 1822 c 128,-1,37
 529 1859 529 1859 556.5 1887.5 c 128,-1,38
 584 1916 584 1916 621.5 1932.5 c 128,-1,39
 659 1949 659 1949 701 1949 c 256,20,21
913 597 m 1,40,41
 908 613 908 613 896 646.5 c 128,-1,42
 884 680 884 680 868.5 726 c 128,-1,43
 853 772 853 772 834 825.5 c 128,-1,44
 815 879 815 879 796 934.5 c 128,-1,45
 777 990 777 990 758.5 1043.5 c 128,-1,46
 740 1097 740 1097 725 1142 c 128,-1,47
 710 1187 710 1187 698.5 1220 c 128,-1,48
 687 1253 687 1253 682 1267 c 1,49,50
 676 1251 676 1251 663.5 1217 c 128,-1,51
 651 1183 651 1183 634 1137 c 128,-1,52
 617 1091 617 1091 597 1037 c 128,-1,53
 577 983 577 983 556.5 928 c 128,-1,54
 536 873 536 873 516.5 819.5 c 128,-1,55
 497 766 497 766 481 721 c 128,-1,56
 465 676 465 676 453 643.5 c 128,-1,57
 441 611 441 611 436 597 c 1,58,-1
 913 597 l 1,40,41
580 1469 m 1,59,-1
 801 1469 l 1,60,61
 934 1102 934 1102 1067.5 735 c 128,-1,62
 1201 368 1201 368 1334 0 c 1,63,-1
 1123 0 l 1,64,-1
 974 442 l 1,65,-1
 383 442 l 1,66,67
 380 434 380 434 368 400.5 c 128,-1,68
 356 367 356 367 339.5 320.5 c 128,-1,69
 323 274 323 274 304 221 c 128,-1,70
 285 168 285 168 268.5 121.5 c 128,-1,71
 252 75 252 75 240 41.5 c 128,-1,72
 228 8 228 8 225 0 c 1,73,-1
 28 0 l 1,74,-1
 580 1469 l 1,59,-1
EndSplineSet
Substitution2: "<17001,16003> Urdu lookup 89 subtable" Aring
EndChar

StartChar: Ccedilla
Encoding: 199 199 100
Width: 1474
GlyphClass: 2
Flags: W
LayerCount: 2
Fore
SplineSet
1185 1034 m 1,0,1
 1168 1105 1168 1105 1135 1162 c 128,-1,2
 1102 1219 1102 1219 1051.5 1259 c 128,-1,3
 1001 1299 1001 1299 931.5 1321 c 128,-1,4
 862 1343 862 1343 772 1343 c 0,5,6
 664 1343 664 1343 573.5 1305 c 128,-1,7
 483 1267 483 1267 418.5 1190 c 128,-1,8
 354 1113 354 1113 318 995 c 128,-1,9
 282 877 282 877 282 716 c 0,10,11
 282 585 282 585 312.5 477 c 128,-1,12
 343 369 343 369 404 292 c 128,-1,13
 465 215 465 215 556 172.5 c 128,-1,14
 647 130 647 130 768 130 c 0,15,16
 940 130 940 130 1050 233 c 128,-1,17
 1160 336 1160 336 1199 535 c 1,18,-1
 1388 535 l 1,19,20
 1375 423 1375 423 1329.5 325.5 c 128,-1,21
 1284 228 1284 228 1215 150 c 1,22,23
 1130 62 1130 62 1014 13 c 128,-1,24
 898 -36 898 -36 763 -38 c 1,25,26
 745 -63 745 -63 728 -88 c 128,-1,27
 711 -113 711 -113 691 -140 c 1,28,29
 735 -128 735 -128 774 -128 c 0,30,31
 843 -128 843 -128 887.5 -167 c 128,-1,32
 932 -206 932 -206 932 -281 c 0,33,34
 932 -317 932 -317 918 -350 c 128,-1,35
 904 -383 904 -383 874.5 -408 c 128,-1,36
 845 -433 845 -433 799.5 -448 c 128,-1,37
 754 -463 754 -463 691 -463 c 0,38,39
 669 -463 669 -463 648.5 -461 c 128,-1,40
 628 -459 628 -459 606 -454 c 128,-1,41
 584 -449 584 -449 558 -441 c 128,-1,42
 532 -433 532 -433 499 -422 c 1,43,44
 507 -402 507 -402 515 -385.5 c 128,-1,45
 523 -369 523 -369 531 -349 c 1,46,47
 555 -358 555 -358 573 -363.5 c 128,-1,48
 591 -369 591 -369 606 -372.5 c 128,-1,49
 621 -376 621 -376 634.5 -377 c 128,-1,50
 648 -378 648 -378 662 -378 c 0,51,52
 719 -378 719 -378 751 -355 c 128,-1,53
 783 -332 783 -332 783 -287 c 0,54,55
 783 -253 783 -253 755.5 -228 c 128,-1,56
 728 -203 728 -203 682 -203 c 0,57,58
 659 -203 659 -203 641 -207 c 128,-1,59
 623 -211 623 -211 601 -220 c 1,60,61
 593 -209 593 -209 585 -201 c 128,-1,62
 577 -193 577 -193 569 -183 c 1,63,-1
 675 -38 l 1,64,65
 492 -36 492 -36 318 101 c 1,66,67
 206 213 206 213 145.5 375.5 c 128,-1,68
 85 538 85 538 85 750 c 0,69,70
 85 918 85 918 133.5 1057.5 c 128,-1,71
 182 1197 182 1197 271 1297.5 c 128,-1,72
 360 1398 360 1398 487 1454 c 128,-1,73
 614 1510 614 1510 770 1510 c 0,74,75
 1050 1510 1050 1510 1203 1363 c 0,76,77
 1354 1218 1354 1218 1372 1034 c 1,78,-1
 1185 1034 l 1,0,1
EndSplineSet
Substitution2: "<17001,16003> Urdu lookup 89 subtable" Ccedilla
EndChar

StartChar: Eacute
Encoding: 201 201 101
Width: 1361
GlyphClass: 2
Flags: W
LayerCount: 2
Fore
SplineSet
974 1876 m 1,0,1
 907 1804 907 1804 843 1735 c 128,-1,2
 779 1666 779 1666 712 1594 c 1,3,-1
 582 1594 l 1,4,5
 630 1667 630 1667 672 1735 c 128,-1,6
 714 1803 714 1803 760 1876 c 1,7,-1
 974 1876 l 1,0,1
171 1469 m 1,8,-1
 1240 1469 l 1,9,-1
 1240 1296 l 1,10,-1
 358 1296 l 1,11,-1
 358 840 l 1,12,-1
 1173 840 l 1,13,-1
 1173 677 l 1,14,-1
 358 677 l 1,15,-1
 358 168 l 1,16,-1
 1255 168 l 1,17,-1
 1255 0 l 1,18,-1
 171 0 l 1,19,-1
 171 1469 l 1,8,-1
EndSplineSet
Substitution2: "<17001,16003> Urdu lookup 89 subtable" Eacute
EndChar

StartChar: Ntilde
Encoding: 209 209 102
Width: 1474
GlyphClass: 2
Flags: W
LayerCount: 2
Fore
SplineSet
768 1777 m 0,0,1
 796 1765 796 1765 819.5 1758 c 128,-1,2
 843 1751 843 1751 869 1751 c 0,3,4
 914 1751 914 1751 939.5 1771.5 c 128,-1,5
 965 1792 965 1792 972 1843 c 1,6,-1
 1068 1843 l 1,7,8
 1057 1782 1057 1782 1036.5 1741 c 128,-1,9
 1016 1700 1016 1700 989 1674.5 c 128,-1,10
 962 1649 962 1649 929.5 1638 c 128,-1,11
 897 1627 897 1627 861 1627 c 0,12,13
 843 1627 843 1627 821 1632 c 128,-1,14
 799 1637 799 1637 776.5 1644 c 128,-1,15
 754 1651 754 1651 732 1659 c 128,-1,16
 710 1667 710 1667 693 1673 c 0,17,18
 645 1690 645 1690 615 1698.5 c 128,-1,19
 585 1707 585 1707 556 1707 c 0,20,21
 519 1707 519 1707 496 1684.5 c 128,-1,22
 473 1662 473 1662 464 1613 c 1,23,-1
 374 1613 l 1,24,25
 410 1827 410 1827 582 1827 c 0,26,27
 599 1827 599 1827 617 1825 c 128,-1,28
 635 1823 635 1823 657 1817 c 128,-1,29
 679 1811 679 1811 706 1801.5 c 128,-1,30
 733 1792 733 1792 768 1777 c 0,0,1
152 1469 m 1,31,-1
 382 1469 l 1,32,-1
 1134 264 l 1,33,-1
 1134 1469 l 1,34,-1
 1316 1469 l 1,35,-1
 1316 0 l 1,36,-1
 1098 0 l 1,37,-1
 335 1204 l 1,38,-1
 335 0 l 1,39,-1
 152 0 l 1,40,-1
 152 1469 l 1,31,-1
EndSplineSet
Substitution2: "<17001,16003> Urdu lookup 89 subtable" Ntilde
EndChar

StartChar: Odieresis
Encoding: 214 214 103
Width: 1588
GlyphClass: 2
Flags: W
LayerCount: 2
Fore
SplineSet
534 1859 m 1,0,-1
 714 1859 l 1,1,-1
 714 1659 l 1,2,-1
 534 1659 l 1,3,-1
 534 1859 l 1,0,-1
1310 757 m 0,4,5
 1310 887 1310 887 1274.5 994 c 128,-1,6
 1239 1101 1239 1101 1172.5 1177.5 c 128,-1,7
 1106 1254 1106 1254 1011 1296.5 c 128,-1,8
 916 1339 916 1339 797 1339 c 0,9,10
 684 1339 684 1339 588 1299.5 c 128,-1,11
 492 1260 492 1260 422.5 1181.5 c 128,-1,12
 353 1103 353 1103 313.5 986 c 128,-1,13
 274 869 274 869 274 714 c 0,14,15
 274 468 274 468 399 298 c 0,16,17
 525 128 525 128 805 128 c 0,18,19
 934 128 934 128 1032 178.5 c 128,-1,20
 1130 229 1130 229 1190 319 c 1,21,22
 1248 416 1248 416 1279 525 c 128,-1,23
 1310 634 1310 634 1310 757 c 0,4,5
1361 1260 m 0,24,25
 1434 1161 1434 1161 1470.5 1038.5 c 128,-1,26
 1507 916 1507 916 1507 760 c 0,27,28
 1507 599 1507 599 1462.5 459.5 c 128,-1,29
 1418 320 1418 320 1340 212 c 1,30,31
 1240 85 1240 85 1101.5 21 c 128,-1,32
 963 -43 963 -43 781 -43 c 0,33,34
 612 -43 612 -43 478.5 14.5 c 128,-1,35
 345 72 345 72 248 180 c 1,36,37
 166 288 166 288 120.5 426 c 128,-1,38
 75 564 75 564 75 727 c 0,39,40
 75 874 75 874 114.5 1003.5 c 128,-1,41
 154 1133 154 1133 223 1238 c 1,42,43
 270 1297 270 1297 331.5 1347 c 128,-1,44
 393 1397 393 1397 465 1433 c 128,-1,45
 537 1469 537 1469 618 1489.5 c 128,-1,46
 699 1510 699 1510 785 1510 c 0,47,48
 1174 1510 1174 1510 1361 1260 c 0,24,25
894 1859 m 1,49,-1
 1074 1859 l 1,50,-1
 1074 1659 l 1,51,-1
 894 1659 l 1,52,-1
 894 1859 l 1,49,-1
EndSplineSet
Substitution2: "<17001,16003> Urdu lookup 89 subtable" Odieresis
EndChar

StartChar: Udieresis
Encoding: 220 220 104
Width: 1474
GlyphClass: 2
Flags: W
LayerCount: 2
Fore
SplineSet
487 1819 m 1,0,-1
 667 1819 l 1,1,-1
 667 1618 l 1,2,-1
 487 1618 l 1,3,-1
 487 1819 l 1,0,-1
820 1819 m 1,4,-1
 1000 1819 l 1,5,-1
 1000 1618 l 1,6,-1
 820 1618 l 1,7,-1
 820 1819 l 1,4,-1
361 1469 m 1,8,-1
 361 560 l 2,9,10
 361 351 361 351 454.5 239.5 c 128,-1,11
 548 128 548 128 727 128 c 0,12,13
 929 128 929 128 1027.5 236.5 c 128,-1,14
 1126 345 1126 345 1126 560 c 2,15,-1
 1126 1469 l 1,16,-1
 1321 1469 l 1,17,-1
 1321 643 l 2,18,19
 1321 509 1321 509 1302 404 c 128,-1,20
 1283 299 1283 299 1249 227 c 1,21,22
 1214 168 1214 168 1163.5 119 c 128,-1,23
 1113 70 1113 70 1049 35 c 128,-1,24
 985 0 985 0 908 -19.5 c 128,-1,25
 831 -39 831 -39 743 -39 c 256,26,27
 655 -39 655 -39 578.5 -19.5 c 128,-1,28
 502 0 502 0 438 35 c 128,-1,29
 374 70 374 70 323.5 119 c 128,-1,30
 273 168 273 168 238 227 c 1,31,32
 204 299 204 299 185 404 c 128,-1,33
 166 509 166 509 166 643 c 2,34,-1
 166 1469 l 1,35,-1
 361 1469 l 1,8,-1
EndSplineSet
Substitution2: "<17001,16003> Urdu lookup 89 subtable" Udieresis
EndChar

StartChar: aacute
Encoding: 225 225 105
Width: 1134
GlyphClass: 2
Flags: W
LayerCount: 2
Fore
SplineSet
813 1502 m 1,0,1
 746 1430 746 1430 681.5 1361 c 128,-1,2
 617 1292 617 1292 551 1220 c 1,3,-1
 420 1220 l 1,4,5
 466 1293 466 1293 509.5 1361 c 128,-1,6
 553 1429 553 1429 599 1502 c 1,7,-1
 813 1502 l 1,0,1
456 110 m 0,8,9
 553 110 553 110 643 155 c 0,10,11
 796 230 796 230 796 398 c 2,12,-1
 796 551 l 1,13,14
 761 530 761 530 707.5 514.5 c 128,-1,15
 654 499 654 499 603 492 c 2,16,-1
 493 478 l 2,17,18
 368 462 368 462 313.5 416.5 c 128,-1,19
 259 371 259 371 259 283 c 0,20,21
 259 243 259 243 275.5 211 c 128,-1,22
 292 179 292 179 319 156.5 c 128,-1,23
 346 134 346 134 381.5 122 c 128,-1,24
 417 110 417 110 456 110 c 0,8,9
703 644 m 1,25,26
 751 652 751 652 776.5 681 c 128,-1,27
 802 710 802 710 802 770 c 0,28,29
 802 866 802 866 735 908.5 c 128,-1,30
 668 951 668 951 543 951 c 0,31,32
 430 951 430 951 370.5 904.5 c 128,-1,33
 311 858 311 858 295 748 c 1,34,-1
 134 748 l 1,35,36
 137 845 137 845 168.5 913 c 128,-1,37
 200 981 200 981 260 1018 c 0,38,39
 385 1095 385 1095 547 1095 c 0,40,41
 640 1095 640 1095 717.5 1078 c 128,-1,42
 795 1061 795 1061 851 1025.5 c 128,-1,43
 907 990 907 990 938 934.5 c 128,-1,44
 969 879 969 879 969 802 c 2,45,-1
 969 181 l 2,46,47
 969 152 969 152 981.5 133.5 c 128,-1,48
 994 115 994 115 1033 115 c 0,49,50
 1045 115 1045 115 1059 116.5 c 128,-1,51
 1073 118 1073 118 1089 120 c 1,52,-1
 1089 -6 l 1,53,54
 1069 -12 1069 -12 1055 -15.5 c 128,-1,55
 1041 -19 1041 -19 1028 -20.5 c 128,-1,56
 1015 -22 1015 -22 1001 -22.5 c 128,-1,57
 987 -23 987 -23 968 -23 c 0,58,59
 898 -23 898 -23 858 16.5 c 128,-1,60
 818 56 818 56 804 147 c 1,61,62
 741 69 741 69 640 16 c 0,63,64
 539 -36 539 -36 414 -36 c 0,65,66
 339 -36 339 -36 277 -12 c 128,-1,67
 215 12 215 12 171 54.5 c 128,-1,68
 127 97 127 97 102.5 154.5 c 128,-1,69
 78 212 78 212 78 279 c 0,70,71
 78 353 78 353 102 410 c 128,-1,72
 126 467 126 467 170.5 508 c 128,-1,73
 215 549 215 549 277 574 c 128,-1,74
 339 599 339 599 414 608 c 2,75,-1
 703 644 l 1,25,26
EndSplineSet
Substitution2: "<17001,16003> Urdu lookup 89 subtable" aacute
EndChar

StartChar: agrave
Encoding: 224 224 106
Width: 1134
GlyphClass: 2
Flags: W
LayerCount: 2
Fore
SplineSet
683 1220 m 1,0,-1
 553 1220 l 1,1,2
 490 1289 490 1289 422 1362 c 128,-1,3
 354 1435 354 1435 291 1502 c 1,4,-1
 504 1502 l 1,5,-1
 683 1220 l 1,0,-1
456 110 m 0,6,7
 553 110 553 110 643 155 c 0,8,9
 796 230 796 230 796 398 c 2,10,-1
 796 551 l 1,11,12
 761 530 761 530 707.5 514.5 c 128,-1,13
 654 499 654 499 603 492 c 2,14,-1
 493 478 l 2,15,16
 368 462 368 462 313.5 416.5 c 128,-1,17
 259 371 259 371 259 283 c 0,18,19
 259 243 259 243 275.5 211 c 128,-1,20
 292 179 292 179 319 156.5 c 128,-1,21
 346 134 346 134 381.5 122 c 128,-1,22
 417 110 417 110 456 110 c 0,6,7
703 644 m 1,23,24
 751 652 751 652 776.5 681 c 128,-1,25
 802 710 802 710 802 770 c 0,26,27
 802 866 802 866 735 908.5 c 128,-1,28
 668 951 668 951 543 951 c 0,29,30
 430 951 430 951 370.5 904.5 c 128,-1,31
 311 858 311 858 295 748 c 1,32,-1
 134 748 l 1,33,34
 137 845 137 845 168.5 913 c 128,-1,35
 200 981 200 981 260 1018 c 0,36,37
 385 1095 385 1095 547 1095 c 0,38,39
 640 1095 640 1095 717.5 1078 c 128,-1,40
 795 1061 795 1061 851 1025.5 c 128,-1,41
 907 990 907 990 938 934.5 c 128,-1,42
 969 879 969 879 969 802 c 2,43,-1
 969 181 l 2,44,45
 969 152 969 152 981.5 133.5 c 128,-1,46
 994 115 994 115 1033 115 c 0,47,48
 1045 115 1045 115 1059 116.5 c 128,-1,49
 1073 118 1073 118 1089 120 c 1,50,-1
 1089 -6 l 1,51,52
 1069 -12 1069 -12 1055 -15.5 c 128,-1,53
 1041 -19 1041 -19 1028 -20.5 c 128,-1,54
 1015 -22 1015 -22 1001 -22.5 c 128,-1,55
 987 -23 987 -23 968 -23 c 0,56,57
 898 -23 898 -23 858 16.5 c 128,-1,58
 818 56 818 56 804 147 c 1,59,60
 741 69 741 69 640 16 c 0,61,62
 539 -36 539 -36 414 -36 c 0,63,64
 339 -36 339 -36 277 -12 c 128,-1,65
 215 12 215 12 171 54.5 c 128,-1,66
 127 97 127 97 102.5 154.5 c 128,-1,67
 78 212 78 212 78 279 c 0,68,69
 78 353 78 353 102 410 c 128,-1,70
 126 467 126 467 170.5 508 c 128,-1,71
 215 549 215 549 277 574 c 128,-1,72
 339 599 339 599 414 608 c 2,73,-1
 703 644 l 1,23,24
EndSplineSet
Substitution2: "<17001,16003> Urdu lookup 89 subtable" agrave
EndChar

StartChar: acircumflex
Encoding: 226 226 107
Width: 1134
GlyphClass: 2
Flags: W
LayerCount: 2
Fore
SplineSet
645 1502 m 1,0,1
 696 1432 696 1432 745.5 1361 c 128,-1,2
 795 1290 795 1290 846 1220 c 1,3,-1
 690 1220 l 1,4,-1
 552 1415 l 1,5,6
 486 1316 486 1316 415 1220 c 1,7,-1
 260 1220 l 1,8,9
 311 1293 311 1293 359 1361 c 128,-1,10
 407 1429 407 1429 458 1502 c 1,11,-1
 645 1502 l 1,0,1
456 110 m 0,12,13
 553 110 553 110 643 155 c 0,14,15
 796 230 796 230 796 398 c 2,16,-1
 796 551 l 1,17,18
 761 530 761 530 707.5 514.5 c 128,-1,19
 654 499 654 499 603 492 c 2,20,-1
 493 478 l 2,21,22
 368 462 368 462 313.5 416.5 c 128,-1,23
 259 371 259 371 259 283 c 0,24,25
 259 243 259 243 275.5 211 c 128,-1,26
 292 179 292 179 319 156.5 c 128,-1,27
 346 134 346 134 381.5 122 c 128,-1,28
 417 110 417 110 456 110 c 0,12,13
703 644 m 1,29,30
 751 652 751 652 776.5 681 c 128,-1,31
 802 710 802 710 802 770 c 0,32,33
 802 866 802 866 735 908.5 c 128,-1,34
 668 951 668 951 543 951 c 0,35,36
 430 951 430 951 370.5 904.5 c 128,-1,37
 311 858 311 858 295 748 c 1,38,-1
 134 748 l 1,39,40
 137 845 137 845 168.5 913 c 128,-1,41
 200 981 200 981 260 1018 c 0,42,43
 385 1095 385 1095 547 1095 c 0,44,45
 640 1095 640 1095 717.5 1078 c 128,-1,46
 795 1061 795 1061 851 1025.5 c 128,-1,47
 907 990 907 990 938 934.5 c 128,-1,48
 969 879 969 879 969 802 c 2,49,-1
 969 181 l 2,50,51
 969 152 969 152 981.5 133.5 c 128,-1,52
 994 115 994 115 1033 115 c 0,53,54
 1045 115 1045 115 1059 116.5 c 128,-1,55
 1073 118 1073 118 1089 120 c 1,56,-1
 1089 -6 l 1,57,58
 1069 -12 1069 -12 1055 -15.5 c 128,-1,59
 1041 -19 1041 -19 1028 -20.5 c 128,-1,60
 1015 -22 1015 -22 1001 -22.5 c 128,-1,61
 987 -23 987 -23 968 -23 c 0,62,63
 898 -23 898 -23 858 16.5 c 128,-1,64
 818 56 818 56 804 147 c 1,65,66
 741 69 741 69 640 16 c 0,67,68
 539 -36 539 -36 414 -36 c 0,69,70
 339 -36 339 -36 277 -12 c 128,-1,71
 215 12 215 12 171 54.5 c 128,-1,72
 127 97 127 97 102.5 154.5 c 128,-1,73
 78 212 78 212 78 279 c 0,74,75
 78 353 78 353 102 410 c 128,-1,76
 126 467 126 467 170.5 508 c 128,-1,77
 215 549 215 549 277 574 c 128,-1,78
 339 599 339 599 414 608 c 2,79,-1
 703 644 l 1,29,30
EndSplineSet
Substitution2: "<17001,16003> Urdu lookup 89 subtable" acircumflex
EndChar

StartChar: adieresis
Encoding: 228 228 108
Width: 1134
GlyphClass: 2
Flags: W
LayerCount: 2
Fore
SplineSet
627 1445 m 1,0,-1
 808 1445 l 1,1,-1
 808 1244 l 1,2,-1
 627 1244 l 1,3,-1
 627 1445 l 1,0,-1
295 1445 m 1,4,-1
 475 1445 l 1,5,-1
 475 1244 l 1,6,-1
 295 1244 l 1,7,-1
 295 1445 l 1,4,-1
456 110 m 0,8,9
 553 110 553 110 643 155 c 0,10,11
 796 230 796 230 796 398 c 2,12,-1
 796 551 l 1,13,14
 761 530 761 530 707.5 514.5 c 128,-1,15
 654 499 654 499 603 492 c 2,16,-1
 493 478 l 2,17,18
 368 462 368 462 313.5 416.5 c 128,-1,19
 259 371 259 371 259 283 c 0,20,21
 259 243 259 243 275.5 211 c 128,-1,22
 292 179 292 179 319 156.5 c 128,-1,23
 346 134 346 134 381.5 122 c 128,-1,24
 417 110 417 110 456 110 c 0,8,9
703 644 m 1,25,26
 751 652 751 652 776.5 681 c 128,-1,27
 802 710 802 710 802 770 c 0,28,29
 802 866 802 866 735 908.5 c 128,-1,30
 668 951 668 951 543 951 c 0,31,32
 430 951 430 951 370.5 904.5 c 128,-1,33
 311 858 311 858 295 748 c 1,34,-1
 134 748 l 1,35,36
 137 845 137 845 168.5 913 c 128,-1,37
 200 981 200 981 260 1018 c 0,38,39
 385 1095 385 1095 547 1095 c 0,40,41
 640 1095 640 1095 717.5 1078 c 128,-1,42
 795 1061 795 1061 851 1025.5 c 128,-1,43
 907 990 907 990 938 934.5 c 128,-1,44
 969 879 969 879 969 802 c 2,45,-1
 969 181 l 2,46,47
 969 152 969 152 981.5 133.5 c 128,-1,48
 994 115 994 115 1033 115 c 0,49,50
 1045 115 1045 115 1059 116.5 c 128,-1,51
 1073 118 1073 118 1089 120 c 1,52,-1
 1089 -6 l 1,53,54
 1069 -12 1069 -12 1055 -15.5 c 128,-1,55
 1041 -19 1041 -19 1028 -20.5 c 128,-1,56
 1015 -22 1015 -22 1001 -22.5 c 128,-1,57
 987 -23 987 -23 968 -23 c 0,58,59
 898 -23 898 -23 858 16.5 c 128,-1,60
 818 56 818 56 804 147 c 1,61,62
 741 69 741 69 640 16 c 0,63,64
 539 -36 539 -36 414 -36 c 0,65,66
 339 -36 339 -36 277 -12 c 128,-1,67
 215 12 215 12 171 54.5 c 128,-1,68
 127 97 127 97 102.5 154.5 c 128,-1,69
 78 212 78 212 78 279 c 0,70,71
 78 353 78 353 102 410 c 128,-1,72
 126 467 126 467 170.5 508 c 128,-1,73
 215 549 215 549 277 574 c 128,-1,74
 339 599 339 599 414 608 c 2,75,-1
 703 644 l 1,25,26
EndSplineSet
Substitution2: "<17001,16003> Urdu lookup 89 subtable" adieresis
EndChar

StartChar: atilde
Encoding: 227 227 109
Width: 1134
GlyphClass: 2
Flags: W
LayerCount: 2
Fore
SplineSet
599 1403 m 0,0,1
 627 1391 627 1391 650.5 1384 c 128,-1,2
 674 1377 674 1377 700 1377 c 0,3,4
 746 1377 746 1377 771 1398.5 c 128,-1,5
 796 1420 796 1420 803 1469 c 1,6,-1
 899 1469 l 1,7,8
 889 1409 889 1409 868.5 1367.5 c 128,-1,9
 848 1326 848 1326 821 1300.5 c 128,-1,10
 794 1275 794 1275 761 1264 c 128,-1,11
 728 1253 728 1253 692 1253 c 0,12,13
 674 1253 674 1253 652 1258 c 128,-1,14
 630 1263 630 1263 607.5 1269.5 c 128,-1,15
 585 1276 585 1276 563.5 1284 c 128,-1,16
 542 1292 542 1292 524 1298 c 0,17,18
 476 1315 476 1315 446 1323.5 c 128,-1,19
 416 1332 416 1332 387 1332 c 0,20,21
 350 1332 350 1332 327 1309.5 c 128,-1,22
 304 1287 304 1287 295 1239 c 1,23,-1
 205 1239 l 1,24,25
 225 1348 225 1348 275.5 1400.5 c 128,-1,26
 326 1453 326 1453 413 1453 c 0,27,28
 430 1453 430 1453 447.5 1451 c 128,-1,29
 465 1449 465 1449 487 1443 c 128,-1,30
 509 1437 509 1437 536.5 1427.5 c 128,-1,31
 564 1418 564 1418 599 1403 c 0,0,1
456 110 m 0,32,33
 553 110 553 110 643 155 c 0,34,35
 796 230 796 230 796 398 c 2,36,-1
 796 551 l 1,37,38
 761 530 761 530 707.5 514.5 c 128,-1,39
 654 499 654 499 603 492 c 2,40,-1
 493 478 l 2,41,42
 368 462 368 462 313.5 416.5 c 128,-1,43
 259 371 259 371 259 283 c 0,44,45
 259 243 259 243 275.5 211 c 128,-1,46
 292 179 292 179 319 156.5 c 128,-1,47
 346 134 346 134 381.5 122 c 128,-1,48
 417 110 417 110 456 110 c 0,32,33
703 644 m 1,49,50
 751 652 751 652 776.5 681 c 128,-1,51
 802 710 802 710 802 770 c 0,52,53
 802 866 802 866 735 908.5 c 128,-1,54
 668 951 668 951 543 951 c 0,55,56
 430 951 430 951 370.5 904.5 c 128,-1,57
 311 858 311 858 295 748 c 1,58,-1
 134 748 l 1,59,60
 137 845 137 845 168.5 913 c 128,-1,61
 200 981 200 981 260 1018 c 0,62,63
 385 1095 385 1095 547 1095 c 0,64,65
 640 1095 640 1095 717.5 1078 c 128,-1,66
 795 1061 795 1061 851 1025.5 c 128,-1,67
 907 990 907 990 938 934.5 c 128,-1,68
 969 879 969 879 969 802 c 2,69,-1
 969 181 l 2,70,71
 969 152 969 152 981.5 133.5 c 128,-1,72
 994 115 994 115 1033 115 c 0,73,74
 1045 115 1045 115 1059 116.5 c 128,-1,75
 1073 118 1073 118 1089 120 c 1,76,-1
 1089 -6 l 1,77,78
 1069 -12 1069 -12 1055 -15.5 c 128,-1,79
 1041 -19 1041 -19 1028 -20.5 c 128,-1,80
 1015 -22 1015 -22 1001 -22.5 c 128,-1,81
 987 -23 987 -23 968 -23 c 0,82,83
 898 -23 898 -23 858 16.5 c 128,-1,84
 818 56 818 56 804 147 c 1,85,86
 741 69 741 69 640 16 c 0,87,88
 539 -36 539 -36 414 -36 c 0,89,90
 339 -36 339 -36 277 -12 c 128,-1,91
 215 12 215 12 171 54.5 c 128,-1,92
 127 97 127 97 102.5 154.5 c 128,-1,93
 78 212 78 212 78 279 c 0,94,95
 78 353 78 353 102 410 c 128,-1,96
 126 467 126 467 170.5 508 c 128,-1,97
 215 549 215 549 277 574 c 128,-1,98
 339 599 339 599 414 608 c 2,99,-1
 703 644 l 1,49,50
EndSplineSet
Substitution2: "<17001,16003> Urdu lookup 89 subtable" atilde
EndChar

StartChar: aring
Encoding: 229 229 110
Width: 1134
GlyphClass: 2
Flags: W
LayerCount: 2
Fore
SplineSet
551 1290 m 256,0,1
 577 1290 577 1290 601 1300.5 c 128,-1,2
 625 1311 625 1311 643 1329 c 128,-1,3
 661 1347 661 1347 671.5 1370.5 c 128,-1,4
 682 1394 682 1394 682 1421 c 0,5,6
 682 1447 682 1447 671.5 1471 c 128,-1,7
 661 1495 661 1495 643 1513 c 128,-1,8
 625 1531 625 1531 601 1541.5 c 128,-1,9
 577 1552 577 1552 551 1552 c 256,10,11
 525 1552 525 1552 501.5 1541.5 c 128,-1,12
 478 1531 478 1531 460 1513 c 128,-1,13
 442 1495 442 1495 431.5 1471 c 128,-1,14
 421 1447 421 1447 421 1421 c 0,15,16
 421 1394 421 1394 431.5 1370.5 c 128,-1,17
 442 1347 442 1347 460 1329 c 128,-1,18
 478 1311 478 1311 501.5 1300.5 c 128,-1,19
 525 1290 525 1290 551 1290 c 256,0,1
551 1627 m 256,20,21
 593 1627 593 1627 630.5 1610.5 c 128,-1,22
 668 1594 668 1594 696 1566 c 128,-1,23
 724 1538 724 1538 740.5 1500.5 c 128,-1,24
 757 1463 757 1463 757 1421 c 256,25,26
 757 1379 757 1379 740.5 1341 c 128,-1,27
 724 1303 724 1303 696 1275 c 128,-1,28
 668 1247 668 1247 630.5 1230.5 c 128,-1,29
 593 1214 593 1214 551 1214 c 0,30,31
 508 1214 508 1214 470.5 1230.5 c 128,-1,32
 433 1247 433 1247 405 1275 c 128,-1,33
 377 1303 377 1303 361 1341 c 128,-1,34
 345 1379 345 1379 345 1421 c 256,35,36
 345 1463 345 1463 361.5 1500.5 c 128,-1,37
 378 1538 378 1538 406 1566 c 128,-1,38
 434 1594 434 1594 471.5 1610.5 c 128,-1,39
 509 1627 509 1627 551 1627 c 256,20,21
456 110 m 0,40,41
 553 110 553 110 643 155 c 0,42,43
 796 230 796 230 796 398 c 2,44,-1
 796 551 l 1,45,46
 761 530 761 530 707.5 514.5 c 128,-1,47
 654 499 654 499 603 492 c 2,48,-1
 493 478 l 2,49,50
 368 462 368 462 313.5 416.5 c 128,-1,51
 259 371 259 371 259 283 c 0,52,53
 259 243 259 243 275.5 211 c 128,-1,54
 292 179 292 179 319 156.5 c 128,-1,55
 346 134 346 134 381.5 122 c 128,-1,56
 417 110 417 110 456 110 c 0,40,41
703 644 m 1,57,58
 751 652 751 652 776.5 681 c 128,-1,59
 802 710 802 710 802 770 c 0,60,61
 802 866 802 866 735 908.5 c 128,-1,62
 668 951 668 951 543 951 c 0,63,64
 430 951 430 951 370.5 904.5 c 128,-1,65
 311 858 311 858 295 748 c 1,66,-1
 134 748 l 1,67,68
 137 845 137 845 168.5 913 c 128,-1,69
 200 981 200 981 260 1018 c 0,70,71
 385 1095 385 1095 547 1095 c 0,72,73
 640 1095 640 1095 717.5 1078 c 128,-1,74
 795 1061 795 1061 851 1025.5 c 128,-1,75
 907 990 907 990 938 934.5 c 128,-1,76
 969 879 969 879 969 802 c 2,77,-1
 969 181 l 2,78,79
 969 152 969 152 981.5 133.5 c 128,-1,80
 994 115 994 115 1033 115 c 0,81,82
 1045 115 1045 115 1059 116.5 c 128,-1,83
 1073 118 1073 118 1089 120 c 1,84,-1
 1089 -6 l 1,85,86
 1069 -12 1069 -12 1055 -15.5 c 128,-1,87
 1041 -19 1041 -19 1028 -20.5 c 128,-1,88
 1015 -22 1015 -22 1001 -22.5 c 128,-1,89
 987 -23 987 -23 968 -23 c 0,90,91
 898 -23 898 -23 858 16.5 c 128,-1,92
 818 56 818 56 804 147 c 1,93,94
 741 69 741 69 640 16 c 0,95,96
 539 -36 539 -36 414 -36 c 0,97,98
 339 -36 339 -36 277 -12 c 128,-1,99
 215 12 215 12 171 54.5 c 128,-1,100
 127 97 127 97 102.5 154.5 c 128,-1,101
 78 212 78 212 78 279 c 0,102,103
 78 353 78 353 102 410 c 128,-1,104
 126 467 126 467 170.5 508 c 128,-1,105
 215 549 215 549 277 574 c 128,-1,106
 339 599 339 599 414 608 c 2,107,-1
 703 644 l 1,57,58
EndSplineSet
Substitution2: "<17001,16003> Urdu lookup 89 subtable" aring
EndChar

StartChar: ccedilla
Encoding: 231 231 111
Width: 1019
GlyphClass: 2
Flags: W
LayerCount: 2
Fore
SplineSet
801 715 m 1,0,1
 793 765 793 765 775.5 807.5 c 128,-1,2
 758 850 758 850 727 881 c 128,-1,3
 696 912 696 912 650.5 929.5 c 128,-1,4
 605 947 605 947 540 947 c 0,5,6
 468 947 468 947 412.5 916.5 c 128,-1,7
 357 886 357 886 318.5 829 c 128,-1,8
 280 772 280 772 260 689.5 c 128,-1,9
 240 607 240 607 240 503 c 0,10,11
 240 422 240 422 257.5 351.5 c 128,-1,12
 275 281 275 281 310.5 228.5 c 128,-1,13
 346 176 346 176 400.5 146 c 128,-1,14
 455 116 455 116 528 116 c 0,15,16
 641 116 641 116 708.5 184.5 c 128,-1,17
 776 253 776 253 801 373 c 1,18,-1
 968 373 l 1,19,20
 952 268 952 268 914.5 192.5 c 128,-1,21
 877 117 877 117 821.5 67.5 c 128,-1,22
 766 18 766 18 694.5 -6 c 128,-1,23
 623 -30 623 -30 540 -31 c 1,24,25
 523 -56 523 -56 502.5 -84.5 c 128,-1,26
 482 -113 482 -113 462 -140 c 1,27,28
 506 -128 506 -128 546 -128 c 0,29,30
 615 -128 615 -128 659.5 -167 c 128,-1,31
 704 -206 704 -206 704 -281 c 0,32,33
 704 -317 704 -317 690 -350 c 128,-1,34
 676 -383 676 -383 646.5 -408 c 128,-1,35
 617 -433 617 -433 571.5 -448 c 128,-1,36
 526 -463 526 -463 463 -463 c 0,37,38
 441 -463 441 -463 420.5 -461 c 128,-1,39
 400 -459 400 -459 378 -454 c 128,-1,40
 356 -449 356 -449 330 -441 c 128,-1,41
 304 -433 304 -433 271 -422 c 1,42,43
 279 -402 279 -402 287 -385.5 c 128,-1,44
 295 -369 295 -369 303 -349 c 1,45,46
 327 -358 327 -358 345 -363.5 c 128,-1,47
 363 -369 363 -369 378 -372.5 c 128,-1,48
 393 -376 393 -376 406.5 -377 c 128,-1,49
 420 -378 420 -378 434 -378 c 0,50,51
 491 -378 491 -378 523 -355 c 128,-1,52
 555 -332 555 -332 555 -287 c 0,53,54
 555 -253 555 -253 527.5 -228 c 128,-1,55
 500 -203 500 -203 454 -203 c 0,56,57
 431 -203 431 -203 413 -207 c 128,-1,58
 395 -211 395 -211 373 -220 c 1,59,60
 365 -209 365 -209 357 -201 c 128,-1,61
 349 -193 349 -193 341 -183 c 1,62,-1
 454 -31 l 1,63,64
 363 -31 363 -31 289.5 13 c 128,-1,65
 216 57 216 57 164 131 c 128,-1,66
 112 205 112 205 84 302 c 128,-1,67
 56 399 56 399 56 505 c 0,68,69
 56 647 56 647 92 757.5 c 128,-1,70
 128 868 128 868 192.5 944 c 128,-1,71
 257 1020 257 1020 346 1060 c 128,-1,72
 435 1100 435 1100 540 1100 c 0,73,74
 630 1100 630 1100 703.5 1080 c 128,-1,75
 777 1060 777 1060 831.5 1014 c 128,-1,76
 886 968 886 968 921 895 c 128,-1,77
 956 822 956 822 968 715 c 1,78,-1
 801 715 l 1,0,1
EndSplineSet
Substitution2: "<17001,16003> Urdu lookup 89 subtable" ccedilla
EndChar

StartChar: eacute
Encoding: 233 233 112
Width: 1134
GlyphClass: 2
Flags: W
LayerCount: 2
Fore
SplineSet
817 1502 m 1,0,1
 750 1430 750 1430 686 1361 c 128,-1,2
 622 1292 622 1292 555 1220 c 1,3,-1
 424 1220 l 1,4,5
 472 1293 472 1293 514.5 1361 c 128,-1,6
 557 1429 557 1429 603 1502 c 1,7,-1
 817 1502 l 1,0,1
866 616 m 1,8,9
 851 785 851 785 775.5 864.5 c 128,-1,10
 700 944 700 944 562 944 c 0,11,12
 500 944 500 944 446 919.5 c 128,-1,13
 392 895 392 895 351.5 851.5 c 128,-1,14
 311 808 311 808 286.5 747.5 c 128,-1,15
 262 687 262 687 259 616 c 1,16,-1
 866 616 l 1,8,9
956 902 m 0,17,18
 981 864 981 864 999 814 c 128,-1,19
 1017 764 1017 764 1027 713 c 0,20,21
 1035 676 1035 676 1039.5 617.5 c 128,-1,22
 1044 559 1044 559 1043 480 c 1,23,-1
 254 480 l 1,24,25
 257 399 257 399 276 331 c 128,-1,26
 295 263 295 263 332.5 214.5 c 128,-1,27
 370 166 370 166 426.5 138.5 c 128,-1,28
 483 111 483 111 560 111 c 0,29,30
 614 111 614 111 662 126 c 128,-1,31
 710 141 710 141 748.5 169.5 c 128,-1,32
 787 198 787 198 815 238.5 c 128,-1,33
 843 279 843 279 858 330 c 1,34,-1
 1027 330 l 1,35,36
 1022 302 1022 302 1008.5 268.5 c 128,-1,37
 995 235 995 235 977 202 c 128,-1,38
 959 169 959 169 937.5 138.5 c 128,-1,39
 916 108 916 108 894 86 c 1,40,-1
 895 86 l 1,41,42
 832 26 832 26 743 -6 c 128,-1,43
 654 -38 654 -38 545 -38 c 0,44,45
 446 -38 446 -38 359 -1 c 128,-1,46
 272 36 272 36 207.5 106.5 c 128,-1,47
 143 177 143 177 106 279.5 c 128,-1,48
 69 382 69 382 69 514 c 0,49,50
 69 643 69 643 105.5 749.5 c 128,-1,51
 142 856 142 856 208 932.5 c 128,-1,52
 274 1009 274 1009 367 1051 c 128,-1,53
 460 1093 460 1093 573 1093 c 0,54,55
 629 1093 629 1093 685.5 1079 c 128,-1,56
 742 1065 742 1065 793 1039.5 c 128,-1,57
 844 1014 844 1014 886.5 979 c 128,-1,58
 929 944 929 944 956 902 c 0,17,18
EndSplineSet
Substitution2: "<17001,16003> Urdu lookup 89 subtable" eacute
EndChar

StartChar: egrave
Encoding: 232 232 113
Width: 1134
GlyphClass: 2
Flags: W
LayerCount: 2
Fore
SplineSet
687 1220 m 1,0,-1
 557 1220 l 1,1,2
 494 1289 494 1289 426 1362 c 128,-1,3
 358 1435 358 1435 295 1502 c 1,4,-1
 509 1502 l 1,5,-1
 687 1220 l 1,0,-1
866 616 m 1,6,7
 851 785 851 785 775.5 864.5 c 128,-1,8
 700 944 700 944 562 944 c 0,9,10
 500 944 500 944 446 919.5 c 128,-1,11
 392 895 392 895 351.5 851.5 c 128,-1,12
 311 808 311 808 286.5 747.5 c 128,-1,13
 262 687 262 687 259 616 c 1,14,-1
 866 616 l 1,6,7
956 902 m 0,15,16
 981 864 981 864 999 814 c 128,-1,17
 1017 764 1017 764 1027 713 c 0,18,19
 1035 676 1035 676 1039.5 617.5 c 128,-1,20
 1044 559 1044 559 1043 480 c 1,21,-1
 254 480 l 1,22,23
 257 399 257 399 276 331 c 128,-1,24
 295 263 295 263 332.5 214.5 c 128,-1,25
 370 166 370 166 426.5 138.5 c 128,-1,26
 483 111 483 111 560 111 c 0,27,28
 614 111 614 111 662 126 c 128,-1,29
 710 141 710 141 748.5 169.5 c 128,-1,30
 787 198 787 198 815 238.5 c 128,-1,31
 843 279 843 279 858 330 c 1,32,-1
 1027 330 l 1,33,34
 1022 302 1022 302 1008.5 268.5 c 128,-1,35
 995 235 995 235 977 202 c 128,-1,36
 959 169 959 169 937.5 138.5 c 128,-1,37
 916 108 916 108 894 86 c 1,38,-1
 895 86 l 1,39,40
 832 26 832 26 743 -6 c 128,-1,41
 654 -38 654 -38 545 -38 c 0,42,43
 446 -38 446 -38 359 -1 c 128,-1,44
 272 36 272 36 207.5 106.5 c 128,-1,45
 143 177 143 177 106 279.5 c 128,-1,46
 69 382 69 382 69 514 c 0,47,48
 69 643 69 643 105.5 749.5 c 128,-1,49
 142 856 142 856 208 932.5 c 128,-1,50
 274 1009 274 1009 367 1051 c 128,-1,51
 460 1093 460 1093 573 1093 c 0,52,53
 629 1093 629 1093 685.5 1079 c 128,-1,54
 742 1065 742 1065 793 1039.5 c 128,-1,55
 844 1014 844 1014 886.5 979 c 128,-1,56
 929 944 929 944 956 902 c 0,15,16
EndSplineSet
Substitution2: "<17001,16003> Urdu lookup 89 subtable" egrave
EndChar

StartChar: ecircumflex
Encoding: 234 234 114
Width: 1134
GlyphClass: 2
Flags: W
LayerCount: 2
Fore
SplineSet
650 1502 m 1,0,1
 699 1432 699 1432 750 1361 c 128,-1,2
 801 1290 801 1290 850 1220 c 1,3,-1
 694 1220 l 1,4,-1
 556 1415 l 1,5,6
 490 1316 490 1316 419 1220 c 1,7,-1
 264 1220 l 1,8,9
 315 1293 315 1293 363 1361 c 128,-1,10
 411 1429 411 1429 462 1502 c 1,11,-1
 650 1502 l 1,0,1
866 616 m 1,12,13
 851 785 851 785 775.5 864.5 c 128,-1,14
 700 944 700 944 562 944 c 0,15,16
 500 944 500 944 446 919.5 c 128,-1,17
 392 895 392 895 351.5 851.5 c 128,-1,18
 311 808 311 808 286.5 747.5 c 128,-1,19
 262 687 262 687 259 616 c 1,20,-1
 866 616 l 1,12,13
956 902 m 0,21,22
 981 864 981 864 999 814 c 128,-1,23
 1017 764 1017 764 1027 713 c 0,24,25
 1035 676 1035 676 1039.5 617.5 c 128,-1,26
 1044 559 1044 559 1043 480 c 1,27,-1
 254 480 l 1,28,29
 257 399 257 399 276 331 c 128,-1,30
 295 263 295 263 332.5 214.5 c 128,-1,31
 370 166 370 166 426.5 138.5 c 128,-1,32
 483 111 483 111 560 111 c 0,33,34
 614 111 614 111 662 126 c 128,-1,35
 710 141 710 141 748.5 169.5 c 128,-1,36
 787 198 787 198 815 238.5 c 128,-1,37
 843 279 843 279 858 330 c 1,38,-1
 1027 330 l 1,39,40
 1022 302 1022 302 1008.5 268.5 c 128,-1,41
 995 235 995 235 977 202 c 128,-1,42
 959 169 959 169 937.5 138.5 c 128,-1,43
 916 108 916 108 894 86 c 1,44,-1
 895 86 l 1,45,46
 832 26 832 26 743 -6 c 128,-1,47
 654 -38 654 -38 545 -38 c 0,48,49
 446 -38 446 -38 359 -1 c 128,-1,50
 272 36 272 36 207.5 106.5 c 128,-1,51
 143 177 143 177 106 279.5 c 128,-1,52
 69 382 69 382 69 514 c 0,53,54
 69 643 69 643 105.5 749.5 c 128,-1,55
 142 856 142 856 208 932.5 c 128,-1,56
 274 1009 274 1009 367 1051 c 128,-1,57
 460 1093 460 1093 573 1093 c 0,58,59
 629 1093 629 1093 685.5 1079 c 128,-1,60
 742 1065 742 1065 793 1039.5 c 128,-1,61
 844 1014 844 1014 886.5 979 c 128,-1,62
 929 944 929 944 956 902 c 0,21,22
EndSplineSet
Substitution2: "<17001,16003> Urdu lookup 89 subtable" ecircumflex
EndChar

StartChar: edieresis
Encoding: 235 235 115
Width: 1134
GlyphClass: 2
Flags: W
LayerCount: 2
Fore
SplineSet
632 1445 m 1,0,-1
 812 1445 l 1,1,-1
 812 1244 l 1,2,-1
 632 1244 l 1,3,-1
 632 1445 l 1,0,-1
299 1445 m 1,4,-1
 479 1445 l 1,5,-1
 479 1244 l 1,6,-1
 299 1244 l 1,7,-1
 299 1445 l 1,4,-1
866 616 m 1,8,9
 851 785 851 785 775.5 864.5 c 128,-1,10
 700 944 700 944 562 944 c 0,11,12
 500 944 500 944 446 919.5 c 128,-1,13
 392 895 392 895 351.5 851.5 c 128,-1,14
 311 808 311 808 286.5 747.5 c 128,-1,15
 262 687 262 687 259 616 c 1,16,-1
 866 616 l 1,8,9
956 902 m 0,17,18
 981 864 981 864 999 814 c 128,-1,19
 1017 764 1017 764 1027 713 c 0,20,21
 1035 676 1035 676 1039.5 617.5 c 128,-1,22
 1044 559 1044 559 1043 480 c 1,23,-1
 254 480 l 1,24,25
 257 399 257 399 276 331 c 128,-1,26
 295 263 295 263 332.5 214.5 c 128,-1,27
 370 166 370 166 426.5 138.5 c 128,-1,28
 483 111 483 111 560 111 c 0,29,30
 614 111 614 111 662 126 c 128,-1,31
 710 141 710 141 748.5 169.5 c 128,-1,32
 787 198 787 198 815 238.5 c 128,-1,33
 843 279 843 279 858 330 c 1,34,-1
 1027 330 l 1,35,36
 1022 302 1022 302 1008.5 268.5 c 128,-1,37
 995 235 995 235 977 202 c 128,-1,38
 959 169 959 169 937.5 138.5 c 128,-1,39
 916 108 916 108 894 86 c 1,40,-1
 895 86 l 1,41,42
 832 26 832 26 743 -6 c 128,-1,43
 654 -38 654 -38 545 -38 c 0,44,45
 446 -38 446 -38 359 -1 c 128,-1,46
 272 36 272 36 207.5 106.5 c 128,-1,47
 143 177 143 177 106 279.5 c 128,-1,48
 69 382 69 382 69 514 c 0,49,50
 69 643 69 643 105.5 749.5 c 128,-1,51
 142 856 142 856 208 932.5 c 128,-1,52
 274 1009 274 1009 367 1051 c 128,-1,53
 460 1093 460 1093 573 1093 c 0,54,55
 629 1093 629 1093 685.5 1079 c 128,-1,56
 742 1065 742 1065 793 1039.5 c 128,-1,57
 844 1014 844 1014 886.5 979 c 128,-1,58
 929 944 929 944 956 902 c 0,17,18
EndSplineSet
Substitution2: "<17001,16003> Urdu lookup 89 subtable" edieresis
EndChar

StartChar: iacute
Encoding: 237 237 116
Width: 564
GlyphClass: 2
Flags: W
LayerCount: 2
Fore
SplineSet
530 1502 m 1,0,1
 464 1430 464 1430 399.5 1361 c 128,-1,2
 335 1292 335 1292 269 1220 c 1,3,-1
 138 1220 l 1,4,5
 184 1293 184 1293 226.5 1361 c 128,-1,6
 269 1429 269 1429 317 1502 c 1,7,-1
 530 1502 l 1,0,1
181 1064 m 1,8,-1
 357 1064 l 1,9,-1
 357 0 l 1,10,-1
 181 0 l 1,11,-1
 181 1064 l 1,8,-1
EndSplineSet
Substitution2: "<17001,16003> Urdu lookup 89 subtable" iacute
EndChar

StartChar: igrave
Encoding: 236 236 117
Width: 564
GlyphClass: 2
Flags: W
LayerCount: 2
Fore
SplineSet
396 1220 m 1,0,-1
 266 1220 l 1,1,2
 203 1289 203 1289 135.5 1362 c 128,-1,3
 68 1435 68 1435 5 1502 c 1,4,-1
 218 1502 l 1,5,-1
 396 1220 l 1,0,-1
177 1064 m 1,6,-1
 353 1064 l 1,7,-1
 353 0 l 1,8,-1
 177 0 l 1,9,-1
 177 1064 l 1,6,-1
EndSplineSet
Substitution2: "<17001,16003> Urdu lookup 89 subtable" igrave
EndChar

StartChar: icircumflex
Encoding: 238 238 118
Width: 564
GlyphClass: 2
Flags: W
LayerCount: 2
Fore
SplineSet
361 1502 m 1,0,1
 410 1432 410 1432 461 1361 c 128,-1,2
 512 1290 512 1290 561 1220 c 1,3,-1
 405 1220 l 1,4,-1
 267 1415 l 1,5,6
 233 1366 233 1366 199 1317 c 128,-1,7
 165 1268 165 1268 130 1220 c 1,8,-1
 -25 1220 l 1,9,10
 26 1293 26 1293 74 1361 c 128,-1,11
 122 1429 122 1429 173 1502 c 1,12,-1
 361 1502 l 1,0,1
178 1064 m 1,13,-1
 355 1064 l 1,14,-1
 355 0 l 1,15,-1
 178 0 l 1,16,-1
 178 1064 l 1,13,-1
EndSplineSet
Substitution2: "<17001,16003> Urdu lookup 89 subtable" icircumflex
EndChar

StartChar: idieresis
Encoding: 239 239 119
Width: 564
GlyphClass: 2
Flags: W
LayerCount: 2
Fore
SplineSet
13 1445 m 1,0,-1
 193 1445 l 1,1,-1
 193 1244 l 1,2,-1
 13 1244 l 1,3,-1
 13 1445 l 1,0,-1
346 1445 m 1,4,-1
 526 1445 l 1,5,-1
 526 1244 l 1,6,-1
 346 1244 l 1,7,-1
 346 1445 l 1,4,-1
181 1064 m 1,8,-1
 358 1064 l 1,9,-1
 358 0 l 1,10,-1
 181 0 l 1,11,-1
 181 1064 l 1,8,-1
EndSplineSet
Substitution2: "<17001,16003> Urdu lookup 89 subtable" idieresis
EndChar

StartChar: ntilde
Encoding: 241 241 120
Width: 1134
GlyphClass: 2
Flags: W
LayerCount: 2
Fore
SplineSet
597 1403 m 0,0,1
 625 1391 625 1391 648.5 1384 c 128,-1,2
 672 1377 672 1377 698 1377 c 0,3,4
 744 1377 744 1377 769.5 1398.5 c 128,-1,5
 795 1420 795 1420 801 1469 c 1,6,-1
 897 1469 l 1,7,8
 887 1409 887 1409 866.5 1368 c 128,-1,9
 846 1327 846 1327 819 1301.5 c 128,-1,10
 792 1276 792 1276 759 1264.5 c 128,-1,11
 726 1253 726 1253 690 1253 c 0,12,13
 672 1253 672 1253 650 1258 c 128,-1,14
 628 1263 628 1263 605.5 1269.5 c 128,-1,15
 583 1276 583 1276 561.5 1284 c 128,-1,16
 540 1292 540 1292 522 1298 c 0,17,18
 474 1315 474 1315 444 1323.5 c 128,-1,19
 414 1332 414 1332 385 1332 c 0,20,21
 348 1332 348 1332 325 1309.5 c 128,-1,22
 302 1287 302 1287 293 1239 c 1,23,-1
 203 1239 l 1,24,25
 239 1453 239 1453 411 1453 c 0,26,27
 428 1453 428 1453 446 1451 c 128,-1,28
 464 1449 464 1449 486 1443 c 128,-1,29
 508 1437 508 1437 535 1427.5 c 128,-1,30
 562 1418 562 1418 597 1403 c 0,0,1
129 1069 m 1,31,-1
 292 1069 l 1,32,-1
 292 909 l 1,33,34
 372 1007 372 1007 458 1050 c 128,-1,35
 544 1093 544 1093 649 1093 c 0,36,37
 738 1093 738 1093 804 1070 c 128,-1,38
 870 1047 870 1047 913 998 c 128,-1,39
 956 949 956 949 977 872 c 128,-1,40
 998 795 998 795 998 687 c 2,41,-1
 998 0 l 1,42,-1
 823 0 l 1,43,-1
 823 675 l 2,44,45
 823 804 823 804 772.5 871.5 c 128,-1,46
 722 939 722 939 614 939 c 0,47,48
 533 939 533 939 477 913 c 128,-1,49
 421 887 421 887 375 835 c 0,50,51
 352 808 352 808 337.5 782 c 128,-1,52
 323 756 323 756 315 724.5 c 128,-1,53
 307 693 307 693 304 653.5 c 128,-1,54
 301 614 301 614 301 560 c 2,55,-1
 301 0 l 1,56,-1
 129 0 l 1,57,-1
 129 1069 l 1,31,-1
EndSplineSet
Substitution2: "<17001,16003> Urdu lookup 89 subtable" ntilde
EndChar

StartChar: oacute
Encoding: 243 243 121
Width: 1134
GlyphClass: 2
Flags: W
LayerCount: 2
Fore
SplineSet
814 1502 m 1,0,1
 747 1430 747 1430 683 1361 c 128,-1,2
 619 1292 619 1292 552 1220 c 1,3,-1
 421 1220 l 1,4,5
 469 1293 469 1293 511.5 1361 c 128,-1,6
 554 1429 554 1429 600 1502 c 1,7,-1
 814 1502 l 1,0,1
870 552 m 1,8,9
 870 627 870 627 858 689 c 128,-1,10
 846 751 846 751 824 796 c 1,11,12
 782 865 782 865 713.5 908 c 128,-1,13
 645 951 645 951 554 951 c 0,14,15
 470 951 470 951 409 915.5 c 128,-1,16
 348 880 348 880 309 820 c 128,-1,17
 270 760 270 760 251.5 681 c 128,-1,18
 233 602 233 602 233 514 c 0,19,20
 233 429 233 429 251.5 355 c 128,-1,21
 270 281 270 281 309 226.5 c 128,-1,22
 348 172 348 172 408 140.5 c 128,-1,23
 468 109 468 109 552 109 c 0,24,25
 731 109 731 109 802 247 c 0,26,27
 837 316 837 316 852.5 393.5 c 128,-1,28
 868 471 868 471 870 552 c 1,8,9
1050 557 m 0,29,30
 1050 428 1050 428 1017.5 321 c 128,-1,31
 985 214 985 214 925 129 c 1,32,33
 798 -39 798 -39 535 -39 c 0,34,35
 424 -39 424 -39 335 0.5 c 128,-1,36
 246 40 246 40 184 112 c 128,-1,37
 122 184 122 184 89 285.5 c 128,-1,38
 56 387 56 387 56 511 c 0,39,40
 56 645 56 645 91 753.5 c 128,-1,41
 126 862 126 862 191.5 939 c 128,-1,42
 257 1016 257 1016 350 1058 c 128,-1,43
 443 1100 443 1100 559 1100 c 0,44,45
 662 1100 662 1100 751.5 1066 c 128,-1,46
 841 1032 841 1032 907.5 964 c 128,-1,47
 974 896 974 896 1012 794 c 128,-1,48
 1050 692 1050 692 1050 557 c 0,29,30
EndSplineSet
Substitution2: "<17001,16003> Urdu lookup 89 subtable" oacute
EndChar

StartChar: ograve
Encoding: 242 242 122
Width: 1134
GlyphClass: 2
Flags: W
LayerCount: 2
Fore
SplineSet
684 1220 m 1,0,-1
 554 1220 l 1,1,2
 491 1289 491 1289 423 1362 c 128,-1,3
 355 1435 355 1435 292 1502 c 1,4,-1
 506 1502 l 1,5,-1
 684 1220 l 1,0,-1
870 552 m 1,6,7
 870 627 870 627 858 689 c 128,-1,8
 846 751 846 751 824 796 c 1,9,10
 782 865 782 865 713.5 908 c 128,-1,11
 645 951 645 951 554 951 c 0,12,13
 470 951 470 951 409 915.5 c 128,-1,14
 348 880 348 880 309 820 c 128,-1,15
 270 760 270 760 251.5 681 c 128,-1,16
 233 602 233 602 233 514 c 0,17,18
 233 429 233 429 251.5 355 c 128,-1,19
 270 281 270 281 309 226.5 c 128,-1,20
 348 172 348 172 408 140.5 c 128,-1,21
 468 109 468 109 552 109 c 0,22,23
 731 109 731 109 802 247 c 0,24,25
 837 316 837 316 852.5 393.5 c 128,-1,26
 868 471 868 471 870 552 c 1,6,7
1050 557 m 0,27,28
 1050 428 1050 428 1017.5 321 c 128,-1,29
 985 214 985 214 925 129 c 1,30,31
 798 -39 798 -39 535 -39 c 0,32,33
 424 -39 424 -39 335 0.5 c 128,-1,34
 246 40 246 40 184 112 c 128,-1,35
 122 184 122 184 89 285.5 c 128,-1,36
 56 387 56 387 56 511 c 0,37,38
 56 645 56 645 91 753.5 c 128,-1,39
 126 862 126 862 191.5 939 c 128,-1,40
 257 1016 257 1016 350 1058 c 128,-1,41
 443 1100 443 1100 559 1100 c 0,42,43
 662 1100 662 1100 751.5 1066 c 128,-1,44
 841 1032 841 1032 907.5 964 c 128,-1,45
 974 896 974 896 1012 794 c 128,-1,46
 1050 692 1050 692 1050 557 c 0,27,28
EndSplineSet
Substitution2: "<17001,16003> Urdu lookup 89 subtable" ograve
EndChar

StartChar: ocircumflex
Encoding: 244 244 123
Width: 1134
GlyphClass: 2
Flags: W
LayerCount: 2
Fore
SplineSet
647 1502 m 1,0,1
 696 1432 696 1432 747 1361 c 128,-1,2
 798 1290 798 1290 847 1220 c 1,3,-1
 691 1220 l 1,4,-1
 553 1415 l 1,5,6
 487 1316 487 1316 416 1220 c 1,7,-1
 261 1220 l 1,8,9
 312 1293 312 1293 360 1361 c 128,-1,10
 408 1429 408 1429 459 1502 c 1,11,-1
 647 1502 l 1,0,1
870 552 m 1,12,13
 870 627 870 627 858 689 c 128,-1,14
 846 751 846 751 824 796 c 1,15,16
 782 865 782 865 713.5 908 c 128,-1,17
 645 951 645 951 554 951 c 0,18,19
 470 951 470 951 409 915.5 c 128,-1,20
 348 880 348 880 309 820 c 128,-1,21
 270 760 270 760 251.5 681 c 128,-1,22
 233 602 233 602 233 514 c 0,23,24
 233 429 233 429 251.5 355 c 128,-1,25
 270 281 270 281 309 226.5 c 128,-1,26
 348 172 348 172 408 140.5 c 128,-1,27
 468 109 468 109 552 109 c 0,28,29
 731 109 731 109 802 247 c 0,30,31
 837 316 837 316 852.5 393.5 c 128,-1,32
 868 471 868 471 870 552 c 1,12,13
1050 557 m 0,33,34
 1050 428 1050 428 1017.5 321 c 128,-1,35
 985 214 985 214 925 129 c 1,36,37
 798 -39 798 -39 535 -39 c 0,38,39
 424 -39 424 -39 335 0.5 c 128,-1,40
 246 40 246 40 184 112 c 128,-1,41
 122 184 122 184 89 285.5 c 128,-1,42
 56 387 56 387 56 511 c 0,43,44
 56 645 56 645 91 753.5 c 128,-1,45
 126 862 126 862 191.5 939 c 128,-1,46
 257 1016 257 1016 350 1058 c 128,-1,47
 443 1100 443 1100 559 1100 c 0,48,49
 662 1100 662 1100 751.5 1066 c 128,-1,50
 841 1032 841 1032 907.5 964 c 128,-1,51
 974 896 974 896 1012 794 c 128,-1,52
 1050 692 1050 692 1050 557 c 0,33,34
EndSplineSet
Substitution2: "<17001,16003> Urdu lookup 89 subtable" ocircumflex
EndChar

StartChar: odieresis
Encoding: 246 246 124
Width: 1134
GlyphClass: 2
Flags: W
LayerCount: 2
Fore
SplineSet
629 1445 m 1,0,-1
 809 1445 l 1,1,-1
 809 1244 l 1,2,-1
 629 1244 l 1,3,-1
 629 1445 l 1,0,-1
296 1445 m 1,4,-1
 476 1445 l 1,5,-1
 476 1244 l 1,6,-1
 296 1244 l 1,7,-1
 296 1445 l 1,4,-1
870 552 m 1,8,9
 870 627 870 627 858 689 c 128,-1,10
 846 751 846 751 824 796 c 1,11,12
 782 865 782 865 713.5 908 c 128,-1,13
 645 951 645 951 554 951 c 0,14,15
 470 951 470 951 409 915.5 c 128,-1,16
 348 880 348 880 309 820 c 128,-1,17
 270 760 270 760 251.5 681 c 128,-1,18
 233 602 233 602 233 514 c 0,19,20
 233 429 233 429 251.5 355 c 128,-1,21
 270 281 270 281 309 226.5 c 128,-1,22
 348 172 348 172 408 140.5 c 128,-1,23
 468 109 468 109 552 109 c 0,24,25
 731 109 731 109 802 247 c 0,26,27
 837 316 837 316 852.5 393.5 c 128,-1,28
 868 471 868 471 870 552 c 1,8,9
1050 557 m 0,29,30
 1050 428 1050 428 1017.5 321 c 128,-1,31
 985 214 985 214 925 129 c 1,32,33
 798 -39 798 -39 535 -39 c 0,34,35
 424 -39 424 -39 335 0.5 c 128,-1,36
 246 40 246 40 184 112 c 128,-1,37
 122 184 122 184 89 285.5 c 128,-1,38
 56 387 56 387 56 511 c 0,39,40
 56 645 56 645 91 753.5 c 128,-1,41
 126 862 126 862 191.5 939 c 128,-1,42
 257 1016 257 1016 350 1058 c 128,-1,43
 443 1100 443 1100 559 1100 c 0,44,45
 662 1100 662 1100 751.5 1066 c 128,-1,46
 841 1032 841 1032 907.5 964 c 128,-1,47
 974 896 974 896 1012 794 c 128,-1,48
 1050 692 1050 692 1050 557 c 0,29,30
EndSplineSet
Substitution2: "<17001,16003> Urdu lookup 89 subtable" odieresis
EndChar

StartChar: otilde
Encoding: 245 245 125
Width: 1134
GlyphClass: 2
Flags: W
LayerCount: 2
Fore
SplineSet
600 1403 m 0,0,1
 629 1391 629 1391 652 1384 c 128,-1,2
 675 1377 675 1377 701 1377 c 0,3,4
 747 1377 747 1377 772.5 1398.5 c 128,-1,5
 798 1420 798 1420 804 1469 c 1,6,-1
 900 1469 l 1,7,8
 890 1409 890 1409 869.5 1368 c 128,-1,9
 849 1327 849 1327 822 1301.5 c 128,-1,10
 795 1276 795 1276 762 1264.5 c 128,-1,11
 729 1253 729 1253 693 1253 c 0,12,13
 675 1253 675 1253 653 1258 c 128,-1,14
 631 1263 631 1263 608.5 1269.5 c 128,-1,15
 586 1276 586 1276 564.5 1284 c 128,-1,16
 543 1292 543 1292 525 1298 c 0,17,18
 477 1315 477 1315 447 1323.5 c 128,-1,19
 417 1332 417 1332 388 1332 c 0,20,21
 352 1332 352 1332 328.5 1309.5 c 128,-1,22
 305 1287 305 1287 296 1239 c 1,23,-1
 206 1239 l 1,24,25
 245 1453 245 1453 414 1453 c 0,26,27
 431 1453 431 1453 449 1451 c 128,-1,28
 467 1449 467 1449 489 1443 c 128,-1,29
 511 1437 511 1437 538 1427.5 c 128,-1,30
 565 1418 565 1418 600 1403 c 0,0,1
870 552 m 1,31,32
 870 627 870 627 858 689 c 128,-1,33
 846 751 846 751 824 796 c 1,34,35
 782 865 782 865 713.5 908 c 128,-1,36
 645 951 645 951 554 951 c 0,37,38
 470 951 470 951 409 915.5 c 128,-1,39
 348 880 348 880 309 820 c 128,-1,40
 270 760 270 760 251.5 681 c 128,-1,41
 233 602 233 602 233 514 c 0,42,43
 233 429 233 429 251.5 355 c 128,-1,44
 270 281 270 281 309 226.5 c 128,-1,45
 348 172 348 172 408 140.5 c 128,-1,46
 468 109 468 109 552 109 c 0,47,48
 731 109 731 109 802 247 c 0,49,50
 837 316 837 316 852.5 393.5 c 128,-1,51
 868 471 868 471 870 552 c 1,31,32
1050 557 m 0,52,53
 1050 428 1050 428 1017.5 321 c 128,-1,54
 985 214 985 214 925 129 c 1,55,56
 798 -39 798 -39 535 -39 c 0,57,58
 424 -39 424 -39 335 0.5 c 128,-1,59
 246 40 246 40 184 112 c 128,-1,60
 122 184 122 184 89 285.5 c 128,-1,61
 56 387 56 387 56 511 c 0,62,63
 56 645 56 645 91 753.5 c 128,-1,64
 126 862 126 862 191.5 939 c 128,-1,65
 257 1016 257 1016 350 1058 c 128,-1,66
 443 1100 443 1100 559 1100 c 0,67,68
 662 1100 662 1100 751.5 1066 c 128,-1,69
 841 1032 841 1032 907.5 964 c 128,-1,70
 974 896 974 896 1012 794 c 128,-1,71
 1050 692 1050 692 1050 557 c 0,52,53
EndSplineSet
Substitution2: "<17001,16003> Urdu lookup 89 subtable" otilde
EndChar

StartChar: uacute
Encoding: 250 250 126
Width: 1134
GlyphClass: 2
Flags: W
LayerCount: 2
Fore
SplineSet
815 1502 m 1,0,1
 748 1430 748 1430 684 1361 c 128,-1,2
 620 1292 620 1292 553 1220 c 1,3,-1
 422 1220 l 1,4,5
 470 1293 470 1293 512.5 1361 c 128,-1,6
 555 1429 555 1429 601 1502 c 1,7,-1
 815 1502 l 1,0,1
301 1069 m 1,8,-1
 301 357 l 2,9,10
 301 242 301 242 353.5 182.5 c 128,-1,11
 406 123 406 123 512 123 c 0,12,13
 660 123 660 123 735.5 224.5 c 128,-1,14
 811 326 811 326 811 544 c 2,15,-1
 811 1069 l 1,16,-1
 983 1069 l 1,17,-1
 983 0 l 1,18,-1
 821 0 l 1,19,-1
 823 169 l 1,20,21
 765 72 765 72 676.5 21.5 c 128,-1,22
 588 -29 588 -29 479 -29 c 0,23,24
 125 -29 125 -29 125 341 c 2,25,-1
 125 1069 l 1,26,-1
 301 1069 l 1,8,-1
EndSplineSet
Substitution2: "<17001,16003> Urdu lookup 89 subtable" uacute
EndChar

StartChar: ugrave
Encoding: 249 249 127
Width: 1134
GlyphClass: 2
Flags: W
LayerCount: 2
Fore
SplineSet
685 1220 m 1,0,-1
 555 1220 l 1,1,2
 492 1289 492 1289 424 1362 c 128,-1,3
 356 1435 356 1435 293 1502 c 1,4,-1
 507 1502 l 1,5,-1
 685 1220 l 1,0,-1
301 1069 m 1,6,-1
 301 357 l 2,7,8
 301 242 301 242 353.5 182.5 c 128,-1,9
 406 123 406 123 512 123 c 0,10,11
 660 123 660 123 735.5 224.5 c 128,-1,12
 811 326 811 326 811 544 c 2,13,-1
 811 1069 l 1,14,-1
 983 1069 l 1,15,-1
 983 0 l 1,16,-1
 821 0 l 1,17,-1
 823 169 l 1,18,19
 765 72 765 72 676.5 21.5 c 128,-1,20
 588 -29 588 -29 479 -29 c 0,21,22
 125 -29 125 -29 125 341 c 2,23,-1
 125 1069 l 1,24,-1
 301 1069 l 1,6,-1
EndSplineSet
Substitution2: "<17001,16003> Urdu lookup 89 subtable" ugrave
EndChar

StartChar: ucircumflex
Encoding: 251 251 128
Width: 1134
GlyphClass: 2
Flags: W
LayerCount: 2
Fore
SplineSet
648 1502 m 1,0,1
 697 1432 697 1432 748 1361 c 128,-1,2
 799 1290 799 1290 848 1220 c 1,3,-1
 692 1220 l 1,4,-1
 554 1415 l 1,5,6
 488 1316 488 1316 417 1220 c 1,7,-1
 262 1220 l 1,8,9
 313 1293 313 1293 361 1361 c 128,-1,10
 409 1429 409 1429 460 1502 c 1,11,-1
 648 1502 l 1,0,1
301 1069 m 1,12,-1
 301 357 l 2,13,14
 301 242 301 242 353.5 182.5 c 128,-1,15
 406 123 406 123 512 123 c 0,16,17
 660 123 660 123 735.5 224.5 c 128,-1,18
 811 326 811 326 811 544 c 2,19,-1
 811 1069 l 1,20,-1
 983 1069 l 1,21,-1
 983 0 l 1,22,-1
 821 0 l 1,23,-1
 823 169 l 1,24,25
 765 72 765 72 676.5 21.5 c 128,-1,26
 588 -29 588 -29 479 -29 c 0,27,28
 125 -29 125 -29 125 341 c 2,29,-1
 125 1069 l 1,30,-1
 301 1069 l 1,12,-1
EndSplineSet
Substitution2: "<17001,16003> Urdu lookup 89 subtable" ucircumflex
EndChar

StartChar: udieresis
Encoding: 252 252 129
Width: 1134
GlyphClass: 2
Flags: W
LayerCount: 2
Fore
SplineSet
297 1445 m 1,0,-1
 477 1445 l 1,1,-1
 477 1244 l 1,2,-1
 297 1244 l 1,3,-1
 297 1445 l 1,0,-1
630 1445 m 1,4,-1
 810 1445 l 1,5,-1
 810 1244 l 1,6,-1
 630 1244 l 1,7,-1
 630 1445 l 1,4,-1
301 1069 m 1,8,-1
 301 357 l 2,9,10
 301 242 301 242 353.5 182.5 c 128,-1,11
 406 123 406 123 512 123 c 0,12,13
 660 123 660 123 735.5 224.5 c 128,-1,14
 811 326 811 326 811 544 c 2,15,-1
 811 1069 l 1,16,-1
 983 1069 l 1,17,-1
 983 0 l 1,18,-1
 821 0 l 1,19,-1
 823 169 l 1,20,21
 765 72 765 72 676.5 21.5 c 128,-1,22
 588 -29 588 -29 479 -29 c 0,23,24
 125 -29 125 -29 125 341 c 2,25,-1
 125 1069 l 1,26,-1
 301 1069 l 1,8,-1
EndSplineSet
Substitution2: "<17001,16003> Urdu lookup 89 subtable" udieresis
EndChar

StartChar: dagger
Encoding: 8224 8224 130
Width: 1134
GlyphClass: 2
Flags: W
LayerCount: 2
Fore
SplineSet
77 886 m 1,0,-1
 77 1036 l 1,1,-1
 464 1036 l 1,2,-1
 464 1469 l 1,3,-1
 650 1469 l 1,4,-1
 650 1036 l 1,5,-1
 1038 1036 l 1,6,-1
 1038 886 l 1,7,-1
 650 886 l 1,8,-1
 650 -330 l 1,9,-1
 464 -330 l 1,10,-1
 464 886 l 1,11,-1
 77 886 l 1,0,-1
EndSplineSet
Substitution2: "<17001,16003> Urdu lookup 89 subtable" dagger
EndChar

StartChar: degree
Encoding: 176 176 131
Width: 814
GlyphClass: 2
Flags: W
LayerCount: 2
Fore
SplineSet
409 934 m 0,0,1
 448 934 448 934 484 950 c 128,-1,2
 520 966 520 966 547 993 c 128,-1,3
 574 1020 574 1020 590 1056 c 128,-1,4
 606 1092 606 1092 606 1132 c 0,5,6
 606 1171 606 1171 590.5 1206.5 c 128,-1,7
 575 1242 575 1242 548 1269.5 c 128,-1,8
 521 1297 521 1297 485.5 1313 c 128,-1,9
 450 1329 450 1329 409 1329 c 0,10,11
 370 1329 370 1329 334 1313.5 c 128,-1,12
 298 1298 298 1298 270.5 1271.5 c 128,-1,13
 243 1245 243 1245 226.5 1208.5 c 128,-1,14
 210 1172 210 1172 210 1130 c 0,15,16
 210 1091 210 1091 226 1055.5 c 128,-1,17
 242 1020 242 1020 269.5 993 c 128,-1,18
 297 966 297 966 333 950 c 128,-1,19
 369 934 369 934 409 934 c 0,0,1
708 1132 m 256,20,21
 708 1069 708 1069 684 1014 c 128,-1,22
 660 959 660 959 618.5 918.5 c 128,-1,23
 577 878 577 878 523 855 c 128,-1,24
 469 832 469 832 409 832 c 0,25,26
 343 832 343 832 288 857 c 128,-1,27
 233 882 233 882 193 923 c 128,-1,28
 153 964 153 964 130.5 1017.5 c 128,-1,29
 108 1071 108 1071 108 1129 c 0,30,31
 108 1192 108 1192 132 1247.5 c 128,-1,32
 156 1303 156 1303 197 1343.5 c 128,-1,33
 238 1384 238 1384 293 1407.5 c 128,-1,34
 348 1431 348 1431 409 1431 c 0,35,36
 472 1431 472 1431 526.5 1408 c 128,-1,37
 581 1385 581 1385 621.5 1344.5 c 128,-1,38
 662 1304 662 1304 685 1249.5 c 128,-1,39
 708 1195 708 1195 708 1132 c 256,20,21
EndSplineSet
Substitution2: "<17001,16003> Urdu lookup 89 subtable" degree
EndChar

StartChar: cent
Encoding: 162 162 132
Width: 1134
GlyphClass: 2
Flags: W
LayerCount: 2
Fore
SplineSet
328 265 m 1,0,1
 343 233 343 233 369 204 c 128,-1,2
 395 175 395 175 430 149 c 1,3,4
 435 166 435 166 446.5 205 c 128,-1,5
 458 244 458 244 473 296.5 c 128,-1,6
 488 349 488 349 506 412 c 128,-1,7
 524 475 524 475 542.5 539.5 c 128,-1,8
 561 604 561 604 579.5 667.5 c 128,-1,9
 598 731 598 731 613 784.5 c 128,-1,10
 628 838 628 838 639 878 c 128,-1,11
 650 918 650 918 655 937 c 1,12,13
 640 942 640 942 622 945.5 c 128,-1,14
 604 949 604 949 580 949 c 0,15,16
 517 949 517 949 461 918.5 c 128,-1,17
 405 888 405 888 364 831.5 c 128,-1,18
 323 775 323 775 299 696.5 c 128,-1,19
 275 618 275 618 275 522 c 0,20,21
 275 364 275 364 329 265 c 1,22,-1
 328 265 l 1,0,1
748 1274 m 1,23,-1
 824 1274 l 1,24,-1
 768 1073 l 1,25,26
 886 1022 886 1022 954 931.5 c 128,-1,27
 1022 841 1022 841 1035 710 c 1,28,-1
 874 710 l 1,29,30
 868 741 868 741 857 772.5 c 128,-1,31
 846 804 846 804 828.5 832 c 128,-1,32
 811 860 811 860 786 882 c 128,-1,33
 761 904 761 904 726 917 c 1,34,35
 721 898 721 898 709.5 857 c 128,-1,36
 698 816 698 816 682.5 760.5 c 128,-1,37
 667 705 667 705 648 639.5 c 128,-1,38
 629 574 629 574 610 507.5 c 128,-1,39
 591 441 591 441 572.5 376.5 c 128,-1,40
 554 312 554 312 539 259.5 c 128,-1,41
 524 207 524 207 513 169.5 c 128,-1,42
 502 132 502 132 498 118 c 1,43,44
 518 111 518 111 536 108.5 c 128,-1,45
 554 106 554 106 585 106 c 0,46,47
 698 106 698 106 767.5 167.5 c 128,-1,48
 837 229 837 229 877 368 c 1,49,-1
 1042 368 l 1,50,51
 1026 296 1026 296 999.5 234 c 128,-1,52
 973 172 973 172 940 126 c 1,53,54
 876 42 876 42 783 -0.5 c 128,-1,55
 690 -43 690 -43 569 -43 c 0,56,57
 534 -43 534 -43 509.5 -39.5 c 128,-1,58
 485 -36 485 -36 456 -28 c 1,59,60
 441 -82 441 -82 425.5 -135 c 128,-1,61
 410 -188 410 -188 394 -239 c 1,62,-1
 316 -239 l 1,63,-1
 385 -6 l 1,64,65
 309 30 309 30 253 83 c 128,-1,66
 197 136 197 136 165 205 c 0,67,68
 101 345 101 345 101 520 c 0,69,70
 101 646 101 646 134 752 c 128,-1,71
 167 858 167 858 230.5 935.5 c 128,-1,72
 294 1013 294 1013 387 1056.5 c 128,-1,73
 480 1100 480 1100 601 1100 c 0,74,75
 621 1100 621 1100 645 1097.5 c 128,-1,76
 669 1095 669 1095 695 1089 c 1,77,-1
 748 1274 l 1,23,-1
EndSplineSet
Substitution2: "<17001,16003> Urdu lookup 89 subtable" cent
EndChar

StartChar: sterling
Encoding: 163 163 133
Width: 1134
GlyphClass: 2
Flags: W
LayerCount: 2
Fore
SplineSet
62 113 m 1,0,1
 119 153 119 153 165.5 197 c 128,-1,2
 212 241 212 241 245 289 c 128,-1,3
 278 337 278 337 296 389.5 c 128,-1,4
 314 442 314 442 314 498 c 0,5,6
 314 527 314 527 305.5 561 c 128,-1,7
 297 595 297 595 273 653 c 1,8,-1
 52 653 l 1,9,-1
 52 749 l 1,10,-1
 217 749 l 1,11,12
 200 777 200 777 180.5 812.5 c 128,-1,13
 161 848 161 848 145 889.5 c 128,-1,14
 129 931 129 931 118.5 975.5 c 128,-1,15
 108 1020 108 1020 108 1066 c 0,16,17
 108 1221 108 1221 233 1343 c 0,18,19
 298 1406 298 1406 387 1436.5 c 128,-1,20
 476 1467 476 1467 597 1467 c 0,21,22
 819 1467 819 1467 932.5 1347 c 128,-1,23
 1046 1227 1046 1227 1050 1006 c 1,24,-1
 873 1006 l 1,25,26
 871 1158 871 1158 800 1236.5 c 128,-1,27
 729 1315 729 1315 582 1315 c 0,28,29
 511 1315 511 1315 457 1294.5 c 128,-1,30
 403 1274 403 1274 366 1238.5 c 128,-1,31
 329 1203 329 1203 310.5 1156.5 c 128,-1,32
 292 1110 292 1110 292 1058 c 0,33,34
 292 1002 292 1002 314 949 c 0,35,36
 324 926 324 926 348.5 876 c 128,-1,37
 373 826 373 826 413 749 c 1,38,-1
 741 749 l 1,39,-1
 741 653 l 1,40,-1
 455 653 l 1,41,42
 464 611 464 611 469.5 580 c 128,-1,43
 475 549 475 549 475 522 c 0,44,45
 475 422 475 422 418 328 c 128,-1,46
 361 234 361 234 237 138 c 1,47,-1
 242 131 l 1,48,49
 308 163 308 163 372 182 c 128,-1,50
 436 201 436 201 499 201 c 0,51,52
 518 201 518 201 549 195.5 c 128,-1,53
 580 190 580 190 615.5 182.5 c 128,-1,54
 651 175 651 175 688.5 165.5 c 128,-1,55
 726 156 726 156 758.5 148.5 c 128,-1,56
 791 141 791 141 814.5 135.5 c 128,-1,57
 838 130 838 130 847 130 c 0,58,59
 870 130 870 130 885 131.5 c 128,-1,60
 900 133 900 133 916 139.5 c 128,-1,61
 932 146 932 146 952 158.5 c 128,-1,62
 972 171 972 171 1005 193 c 1,63,64
 1024 163 1024 163 1044.5 128.5 c 128,-1,65
 1065 94 1065 94 1085 63 c 1,66,67
 1051 36 1051 36 1020 17 c 128,-1,68
 989 -2 989 -2 959 -13.5 c 128,-1,69
 929 -25 929 -25 898.5 -30.5 c 128,-1,70
 868 -36 868 -36 834 -36 c 0,71,72
 773 -36 773 -36 632 10 c 256,73,74
 491 56 491 56 406 56 c 0,75,76
 372 56 372 56 345.5 53 c 128,-1,77
 319 50 319 50 292 41.5 c 128,-1,78
 265 33 265 33 234 17.5 c 128,-1,79
 203 2 203 2 160 -23 c 1,80,-1
 62 113 l 1,0,1
EndSplineSet
Substitution2: "<17001,16003> Urdu lookup 89 subtable" sterling
EndChar

StartChar: section
Encoding: 167 167 134
Width: 1134
GlyphClass: 2
Flags: W
LayerCount: 2
Fore
SplineSet
727 208 m 1,0,1
 766 231 766 231 793 254.5 c 128,-1,2
 820 278 820 278 837.5 304.5 c 128,-1,3
 855 331 855 331 862.5 361 c 128,-1,4
 870 391 870 391 870 427 c 0,5,6
 870 465 870 465 860 495.5 c 128,-1,7
 850 526 850 526 824.5 554.5 c 128,-1,8
 799 583 799 583 755.5 613 c 128,-1,9
 712 643 712 643 646 682 c 0,10,11
 580 720 580 720 515 761.5 c 128,-1,12
 450 803 450 803 385 841 c 1,13,14
 309 798 309 798 274.5 750.5 c 128,-1,15
 240 703 240 703 240 637 c 0,16,17
 240 577 240 577 267 533 c 128,-1,18
 294 489 294 489 349 452 c 1,19,-1
 727 208 l 1,0,1
551 1470 m 0,20,21
 731 1470 731 1470 829 1380.5 c 128,-1,22
 927 1291 927 1291 931 1101 c 1,23,-1
 763 1101 l 1,24,25
 758 1164 758 1164 743.5 1207 c 128,-1,26
 729 1250 729 1250 704.5 1276 c 128,-1,27
 680 1302 680 1302 644 1313 c 128,-1,28
 608 1324 608 1324 560 1324 c 0,29,30
 463 1324 463 1324 412.5 1279 c 128,-1,31
 362 1234 362 1234 362 1156 c 0,32,33
 362 1114 362 1114 382 1077.5 c 128,-1,34
 402 1041 402 1041 438 1015 c 0,35,36
 454 1004 454 1004 482 987.5 c 128,-1,37
 510 971 510 971 545.5 951 c 128,-1,38
 581 931 581 931 621.5 907 c 128,-1,39
 662 883 662 883 703 857 c 1,40,41
 865 763 865 763 951.5 662.5 c 128,-1,42
 1038 562 1038 562 1038 459 c 0,43,44
 1038 402 1038 402 1019 349 c 128,-1,45
 1000 296 1000 296 967 253 c 0,46,47
 947 228 947 228 909 196 c 128,-1,48
 871 164 871 164 825 129 c 1,49,50
 849 105 849 105 869.5 77 c 128,-1,51
 890 49 890 49 905.5 18.5 c 128,-1,52
 921 -12 921 -12 929.5 -43.5 c 128,-1,53
 938 -75 938 -75 938 -105 c 0,54,55
 938 -171 938 -171 911.5 -231 c 128,-1,56
 885 -291 885 -291 835 -336 c 128,-1,57
 785 -381 785 -381 713.5 -407.5 c 128,-1,58
 642 -434 642 -434 552 -434 c 0,59,60
 438 -434 438 -434 355 -393.5 c 128,-1,61
 272 -353 272 -353 224 -284 c 1,62,63
 201 -245 201 -245 184 -186.5 c 128,-1,64
 167 -128 167 -128 162 -56 c 1,65,-1
 332 -56 l 1,66,67
 338 -119 338 -119 353 -162.5 c 128,-1,68
 368 -206 368 -206 393.5 -233.5 c 128,-1,69
 419 -261 419 -261 455.5 -273 c 128,-1,70
 492 -285 492 -285 540 -285 c 0,71,72
 652 -285 652 -285 705 -242.5 c 128,-1,73
 758 -200 758 -200 758 -112 c 0,74,75
 758 -38 758 -38 684 24 c 0,76,77
 674 33 674 33 633.5 60.5 c 128,-1,78
 593 88 593 88 538 125.5 c 128,-1,79
 483 163 483 163 420 205.5 c 128,-1,80
 357 248 357 248 300 285 c 1,81,82
 248 320 248 320 210 350.5 c 128,-1,83
 172 381 172 381 150 407 c 0,84,85
 72 497 72 497 72 606 c 0,86,87
 72 654 72 654 88 697.5 c 128,-1,88
 104 741 104 741 132.5 780 c 128,-1,89
 161 819 161 819 200.5 853.5 c 128,-1,90
 240 888 240 888 288 918 c 1,91,92
 237 969 237 969 214 1018.5 c 128,-1,93
 191 1068 191 1068 191 1128 c 0,94,95
 191 1201 191 1201 217 1263.5 c 128,-1,96
 243 1326 243 1326 290.5 1372 c 128,-1,97
 338 1418 338 1418 404 1444 c 128,-1,98
 470 1470 470 1470 551 1470 c 0,20,21
EndSplineSet
Substitution2: "<17001,16003> Urdu lookup 89 subtable" section
EndChar

StartChar: bullet
Encoding: 8226 8226 135
AltUni2: 0025cf.ffffffff.0
Width: 1151
GlyphClass: 2
Flags: W
LayerCount: 2
Fore
SplineSet
1051 530 m 0,0,1
 1051 427 1051 427 1015.5 339.5 c 128,-1,2
 980 252 980 252 916.5 188.5 c 128,-1,3
 853 125 853 125 766 89.5 c 128,-1,4
 679 54 679 54 576 54 c 256,5,6
 473 54 473 54 386 89.5 c 128,-1,7
 299 125 299 125 235.5 188 c 128,-1,8
 172 251 172 251 136 338.5 c 128,-1,9
 100 426 100 426 100 530 c 256,10,11
 100 634 100 634 136 721 c 128,-1,12
 172 808 172 808 235.5 870.5 c 128,-1,13
 299 933 299 933 386 968 c 128,-1,14
 473 1003 473 1003 576 1003 c 256,15,16
 679 1003 679 1003 766 967.5 c 128,-1,17
 853 932 853 932 916.5 869 c 128,-1,18
 980 806 980 806 1015.5 719 c 128,-1,19
 1051 632 1051 632 1051 530 c 0,0,1
EndSplineSet
Substitution2: "<17001,16003> Urdu lookup 89 subtable" bullet
EndChar

StartChar: paragraph
Encoding: 182 182 136
Width: 1095
GlyphClass: 2
Flags: W
LayerCount: 2
Fore
SplineSet
933 -365 m 1,0,-1
 794 -365 l 1,1,-1
 794 1360 l 1,2,-1
 553 1360 l 1,3,-1
 553 -365 l 1,4,-1
 413 -365 l 1,5,-1
 413 529 l 1,6,7
 304 531 304 531 223.5 567.5 c 128,-1,8
 143 604 143 604 91 676 c 0,9,10
 -15 823 -15 823 -15 997 c 0,11,12
 -15 1102 -15 1102 21 1189 c 128,-1,13
 57 1276 57 1276 122.5 1338.5 c 128,-1,14
 188 1401 188 1401 280 1435 c 128,-1,15
 372 1469 372 1469 484 1469 c 2,16,-1
 1059 1469 l 1,17,-1
 1059 1360 l 1,18,-1
 933 1360 l 1,19,-1
 933 -365 l 1,0,-1
EndSplineSet
Substitution2: "<17001,16003> Urdu lookup 89 subtable" paragraph
EndChar

StartChar: germandbls
Encoding: 223 223 137
Width: 1246
GlyphClass: 2
Flags: W
LayerCount: 2
Fore
SplineSet
196 1026 m 2,0,1
 196 1263 196 1263 300 1377 c 128,-1,2
 404 1491 404 1491 601 1491 c 0,3,4
 705 1491 705 1491 784.5 1465 c 128,-1,5
 864 1439 864 1439 918 1391 c 128,-1,6
 972 1343 972 1343 1000 1276 c 128,-1,7
 1028 1209 1028 1209 1028 1127 c 0,8,9
 1028 1012 1028 1012 981.5 935.5 c 128,-1,10
 935 859 935 859 854 819 c 1,11,12
 907 806 907 806 952 774 c 128,-1,13
 997 742 997 742 1029.5 694.5 c 128,-1,14
 1062 647 1062 647 1080.5 585 c 128,-1,15
 1099 523 1099 523 1099 449 c 0,16,17
 1099 354 1099 354 1071.5 267.5 c 128,-1,18
 1044 181 1044 181 990 115 c 128,-1,19
 936 49 936 49 855.5 10 c 128,-1,20
 775 -29 775 -29 670 -29 c 0,21,22
 646 -29 646 -29 629 -28.5 c 128,-1,23
 612 -28 612 -28 598.5 -27.5 c 128,-1,24
 585 -27 585 -27 572 -25 c 128,-1,25
 559 -23 559 -23 543 -20 c 1,26,-1
 543 129 l 1,27,28
 563 127 563 127 584.5 125 c 128,-1,29
 606 123 606 123 629 123 c 0,30,31
 683 123 683 123 733 141 c 128,-1,32
 783 159 783 159 828 192 c 0,33,34
 875 227 875 227 897.5 289.5 c 128,-1,35
 920 352 920 352 920 438 c 0,36,37
 920 507 920 507 899 561 c 128,-1,38
 878 615 878 615 840.5 652.5 c 128,-1,39
 803 690 803 690 750.5 709.5 c 128,-1,40
 698 729 698 729 634 729 c 0,41,42
 617 729 617 729 595.5 727 c 128,-1,43
 574 725 574 725 552 723 c 1,44,-1
 552 875 l 1,45,46
 567 873 567 873 576 872 c 128,-1,47
 585 871 585 871 597 871 c 0,48,49
 744 871 744 871 801 947 c 0,50,51
 858 1022 858 1022 858 1104 c 0,52,53
 858 1155 858 1155 842.5 1198.5 c 128,-1,54
 827 1242 827 1242 796.5 1273.5 c 128,-1,55
 766 1305 766 1305 720 1323 c 128,-1,56
 674 1341 674 1341 612 1341 c 0,57,58
 548 1341 548 1341 502 1325 c 128,-1,59
 456 1309 456 1309 426 1272 c 128,-1,60
 396 1235 396 1235 382 1175 c 128,-1,61
 368 1115 368 1115 368 1026 c 2,62,-1
 368 0 l 1,63,-1
 196 0 l 1,64,-1
 196 1026 l 2,0,1
EndSplineSet
Substitution2: "<17001,16003> Urdu lookup 89 subtable" germandbls
EndChar

StartChar: registered
Encoding: 174 174 138
Width: 1504
GlyphClass: 2
Flags: W
LayerCount: 2
Fore
SplineSet
589 1051 m 1,0,-1
 589 749 l 1,1,-1
 722 749 l 2,2,3
 843 749 843 749 894 785.5 c 128,-1,4
 945 822 945 822 945 898 c 0,5,6
 945 945 945 945 931.5 974.5 c 128,-1,7
 918 1004 918 1004 890 1021 c 128,-1,8
 862 1038 862 1038 818.5 1044.5 c 128,-1,9
 775 1051 775 1051 715 1051 c 2,10,-1
 589 1051 l 1,0,-1
734 1140 m 2,11,12
 827 1140 827 1140 892.5 1127 c 128,-1,13
 958 1114 958 1114 999 1086 c 128,-1,14
 1040 1058 1040 1058 1058.5 1014.5 c 128,-1,15
 1077 971 1077 971 1077 910 c 0,16,17
 1077 828 1077 828 1031 780 c 128,-1,18
 985 732 985 732 888 716 c 1,19,-1
 888 706 l 1,20,21
 936 697 936 697 969.5 675.5 c 128,-1,22
 1003 654 1003 654 1024 625.5 c 128,-1,23
 1045 597 1045 597 1054.5 565.5 c 128,-1,24
 1064 534 1064 534 1064 506 c 2,25,-1
 1064 446 l 2,26,27
 1064 434 1064 434 1064 417 c 128,-1,28
 1064 400 1064 400 1065 384.5 c 128,-1,29
 1066 369 1066 369 1068 356.5 c 128,-1,30
 1070 344 1070 344 1074 340 c 0,31,32
 1075 339 1075 339 1075 338 c 1,33,-1
 952 338 l 1,34,35
 952 346 952 346 949.5 357.5 c 128,-1,36
 947 369 947 369 945 378 c 1,37,-1
 945 441 l 2,38,39
 945 500 945 500 934 541.5 c 128,-1,40
 923 583 923 583 896 609 c 128,-1,41
 869 635 869 635 823 646.5 c 128,-1,42
 777 658 777 658 706 658 c 2,43,-1
 589 658 l 1,44,-1
 589 338 l 1,45,-1
 454 338 l 1,46,-1
 454 1140 l 1,47,-1
 734 1140 l 2,11,12
297 1189 m 1,48,49
 111 1006 111 1006 111 737 c 0,50,51
 111 470 111 470 296 282 c 256,52,53
 481 94 481 94 748 94 c 256,54,55
 1015 94 1015 94 1200 282 c 0,56,57
 1386 471 1386 471 1386 737 c 0,58,59
 1386 1006 1386 1006 1200 1189 c 0,60,61
 1104 1284 1104 1284 994 1331 c 128,-1,62
 884 1378 884 1378 748 1378 c 0,63,64
 483 1378 483 1378 297 1189 c 1,48,49
1268 217 m 0,65,66
 1051 0 1051 0 748 0 c 0,67,68
 446 0 446 0 229 217 c 0,69,70
 16 430 16 430 16 737 c 0,71,72
 16 1040 16 1040 231 1255 c 0,73,74
 445 1469 445 1469 748 1469 c 0,75,76
 1054 1469 1054 1469 1268 1255 c 0,77,78
 1377 1146 1377 1146 1430 1019 c 128,-1,79
 1483 892 1483 892 1483 737 c 0,80,81
 1483 432 1483 432 1268 217 c 0,65,66
EndSplineSet
Substitution2: "<17001,16003> Urdu lookup 89 subtable" registered
EndChar

StartChar: copyright
Encoding: 169 169 139
Width: 1504
GlyphClass: 2
Flags: W
LayerCount: 2
Fore
SplineSet
768 312 m 0,0,1
 687 312 687 312 614.5 342.5 c 128,-1,2
 542 373 542 373 488 429 c 128,-1,3
 434 485 434 485 402.5 564.5 c 128,-1,4
 371 644 371 644 371 742 c 0,5,6
 371 833 371 833 398 911 c 128,-1,7
 425 989 425 989 475 1046.5 c 128,-1,8
 525 1104 525 1104 595 1136.5 c 128,-1,9
 665 1169 665 1169 750 1169 c 0,10,11
 827 1169 827 1169 889.5 1148.5 c 128,-1,12
 952 1128 952 1128 997.5 1090 c 128,-1,13
 1043 1052 1043 1052 1070 998 c 128,-1,14
 1097 944 1097 944 1103 877 c 1,15,-1
 989 877 l 1,16,17
 984 915 984 915 967.5 948.5 c 128,-1,18
 951 982 951 982 923 1007.5 c 128,-1,19
 895 1033 895 1033 855.5 1048 c 128,-1,20
 816 1063 816 1063 764 1063 c 0,21,22
 706 1063 706 1063 658.5 1039 c 128,-1,23
 611 1015 611 1015 577 972.5 c 128,-1,24
 543 930 543 930 524.5 872.5 c 128,-1,25
 506 815 506 815 506 748 c 256,26,27
 506 681 506 681 523.5 621 c 128,-1,28
 541 561 541 561 574.5 516 c 128,-1,29
 608 471 608 471 658.5 444.5 c 128,-1,30
 709 418 709 418 775 418 c 0,31,32
 860 418 860 418 916 460 c 128,-1,33
 972 502 972 502 994 589 c 1,34,-1
 1106 589 l 1,35,36
 1096 523 1096 523 1066.5 471 c 128,-1,37
 1037 419 1037 419 992.5 384 c 128,-1,38
 948 349 948 349 890.5 330.5 c 128,-1,39
 833 312 833 312 768 312 c 0,0,1
299 1189 m 1,40,41
 114 1004 114 1004 114 737 c 0,42,43
 114 469 114 469 298 282 c 0,44,45
 483 94 483 94 749 94 c 256,46,47
 1015 94 1015 94 1200 282 c 0,48,49
 1384 469 1384 469 1384 737 c 0,50,51
 1384 1004 1384 1004 1199 1189 c 0,52,53
 1105 1283 1105 1283 995 1330.5 c 128,-1,54
 885 1378 885 1378 749 1378 c 0,55,56
 485 1378 485 1378 299 1189 c 1,40,41
1269 217 m 0,57,58
 1052 0 1052 0 749 0 c 256,59,60
 446 0 446 0 229 217 c 0,61,62
 14 432 14 432 14 737 c 0,63,64
 14 892 14 892 67 1019 c 128,-1,65
 120 1146 120 1146 229 1255 c 0,66,67
 443 1469 443 1469 749 1469 c 256,68,69
 1055 1469 1055 1469 1269 1255 c 0,70,71
 1378 1146 1378 1146 1431 1019 c 128,-1,72
 1484 892 1484 892 1484 737 c 0,73,74
 1484 432 1484 432 1269 217 c 0,57,58
EndSplineSet
Substitution2: "<17001,16003> Urdu lookup 89 subtable" copyright
EndChar

StartChar: trademark
Encoding: 8482 8482 140
Width: 2043
GlyphClass: 2
Flags: W
LayerCount: 2
Fore
SplineSet
234 1355 m 1,0,-1
 234 1469 l 1,1,-1
 847 1469 l 1,2,-1
 847 1355 l 1,3,-1
 609 1355 l 1,4,-1
 609 748 l 1,5,-1
 472 748 l 1,6,-1
 472 1355 l 1,7,-1
 234 1355 l 1,0,-1
1180 1469 m 1,8,-1
 1369 939 l 1,9,10
 1375 956 1375 956 1390.5 999 c 128,-1,11
 1406 1042 1406 1042 1425.5 1097 c 128,-1,12
 1445 1152 1445 1152 1467 1212.5 c 128,-1,13
 1489 1273 1489 1273 1508 1326.5 c 128,-1,14
 1527 1380 1527 1380 1541.5 1419 c 128,-1,15
 1556 1458 1556 1458 1560 1469 c 1,16,-1
 1760 1469 l 1,17,-1
 1760 748 l 1,18,-1
 1634 748 l 1,19,-1
 1634 1328 l 1,20,-1
 1625 1330 l 1,21,22
 1619 1312 1619 1312 1603.5 1266.5 c 128,-1,23
 1588 1221 1588 1221 1567.5 1162.5 c 128,-1,24
 1547 1104 1547 1104 1525 1039 c 128,-1,25
 1503 974 1503 974 1482.5 915.5 c 128,-1,26
 1462 857 1462 857 1446.5 811.5 c 128,-1,27
 1431 766 1431 766 1425 748 c 1,28,-1
 1315 748 l 1,29,-1
 1114 1330 l 1,30,-1
 1105 1328 l 1,31,-1
 1105 748 l 1,32,-1
 979 748 l 1,33,-1
 979 1469 l 1,34,-1
 1180 1469 l 1,8,-1
EndSplineSet
Substitution2: "<17001,16003> Urdu lookup 89 subtable" trademark
EndChar

StartChar: acute
Encoding: 180 180 141
Width: 677
GlyphClass: 2
Flags: W
LayerCount: 2
Fore
SplineSet
586 1502 m 1,0,1
 520 1430 520 1430 455.5 1361 c 128,-1,2
 391 1292 391 1292 325 1220 c 1,3,-1
 194 1220 l 1,4,5
 240 1293 240 1293 282.5 1361 c 128,-1,6
 325 1429 325 1429 373 1502 c 1,7,-1
 586 1502 l 1,0,1
EndSplineSet
Substitution2: "<17001,16003> Urdu lookup 89 subtable" acute
EndChar

StartChar: dieresis
Encoding: 168 168 142
Width: 677
GlyphClass: 2
Flags: W
LayerCount: 2
Fore
SplineSet
402 1445 m 1,0,-1
 582 1445 l 1,1,-1
 582 1244 l 1,2,-1
 402 1244 l 1,3,-1
 402 1445 l 1,0,-1
69 1445 m 1,4,-1
 249 1445 l 1,5,-1
 249 1244 l 1,6,-1
 69 1244 l 1,7,-1
 69 1445 l 1,4,-1
EndSplineSet
Substitution2: "<17001,16003> Urdu lookup 89 subtable" dieresis
EndChar

StartChar: notequal
Encoding: 8800 8800 143
Width: 1100
GlyphClass: 2
Flags: W
LayerCount: 2
Fore
SplineSet
1071 819 m 1,0,-1
 1071 658 l 1,1,-1
 695 658 l 1,2,3
 667 592 667 592 634.5 522.5 c 128,-1,4
 602 453 602 453 574 387 c 1,5,-1
 1071 387 l 1,6,-1
 1071 224 l 1,7,-1
 502 224 l 1,8,9
 476 164 476 164 447.5 102.5 c 128,-1,10
 419 41 419 41 393 -19 c 1,11,-1
 226 -19 l 1,12,-1
 336 224 l 1,13,-1
 30 224 l 1,14,-1
 30 387 l 1,15,-1
 408 387 l 1,16,17
 436 453 436 453 468 522.5 c 128,-1,18
 500 592 500 592 529 658 c 1,19,-1
 30 658 l 1,20,-1
 30 819 l 1,21,-1
 601 819 l 1,22,23
 627 879 627 879 655 940.5 c 128,-1,24
 683 1002 683 1002 709 1062 c 1,25,-1
 875 1062 l 1,26,-1
 768 819 l 1,27,-1
 1071 819 l 1,0,-1
EndSplineSet
Substitution2: "<17001,16003> Urdu lookup 89 subtable" notequal
EndChar

StartChar: notequal_mirror
Encoding: 59600 59600 144
Width: 1100
GlyphClass: 2
Flags: W
LayerCount: 2
Fore
SplineSet
333 819 m 1,0,1
 307 879 307 879 279.5 940.5 c 128,-1,2
 252 1002 252 1002 226 1062 c 1,3,-1
 392 1062 l 1,4,-1
 500 819 l 1,5,-1
 1071 819 l 1,6,-1
 1071 658 l 1,7,-1
 572 658 l 1,8,9
 601 592 601 592 633 522.5 c 128,-1,10
 665 453 665 453 693 387 c 1,11,-1
 1071 387 l 1,12,-1
 1071 224 l 1,13,-1
 766 224 l 1,14,15
 793 164 793 164 821.5 101.5 c 128,-1,16
 850 39 850 39 875 -19 c 1,17,-1
 709 -19 l 1,18,-1
 599 224 l 1,19,-1
 30 224 l 1,20,-1
 30 387 l 1,21,-1
 527 387 l 1,22,23
 499 451 499 451 467 521.5 c 128,-1,24
 435 592 435 592 406 658 c 1,25,-1
 30 658 l 1,26,-1
 30 819 l 1,27,-1
 333 819 l 1,0,1
EndSplineSet
Substitution2: "<17001,16003> Urdu lookup 89 subtable" notequal_mirror
EndChar

StartChar: AE
Encoding: 198 198 145
Width: 2043
GlyphClass: 2
Flags: W
LayerCount: 2
Fore
SplineSet
727 1305 m 1,0,1
 719 1283 719 1283 697 1227.5 c 128,-1,2
 675 1172 675 1172 646.5 1100 c 128,-1,3
 618 1028 618 1028 586.5 948 c 128,-1,4
 555 868 555 868 526.5 797 c 128,-1,5
 498 726 498 726 477 672 c 128,-1,6
 456 618 456 618 449 599 c 1,7,-1
 935 599 l 1,8,-1
 935 1305 l 1,9,-1
 727 1305 l 1,0,1
609 1469 m 1,10,-1
 1926 1469 l 1,11,-1
 1926 1301 l 1,12,-1
 1125 1301 l 1,13,-1
 1125 840 l 1,14,-1
 1859 840 l 1,15,-1
 1859 681 l 1,16,-1
 1125 681 l 1,17,-1
 1125 168 l 1,18,-1
 1945 168 l 1,19,-1
 1945 0 l 1,20,-1
 935 0 l 1,21,-1
 935 438 l 1,22,-1
 384 438 l 1,23,24
 380 428 380 428 367.5 395 c 128,-1,25
 355 362 355 362 338 317.5 c 128,-1,26
 321 273 321 273 302 222 c 128,-1,27
 283 171 283 171 266 126 c 128,-1,28
 249 81 249 81 236.5 46.5 c 128,-1,29
 224 12 224 12 220 0 c 1,30,-1
 12 0 l 1,31,-1
 609 1469 l 1,10,-1
EndSplineSet
Substitution2: "<17001,16003> Urdu lookup 89 subtable" AE
Ligature2: "<17013,16013> Roman in Latin lookup 88 subtable" A E
EndChar

StartChar: Oslash
Encoding: 216 216 146
Width: 1588
GlyphClass: 2
Flags: W
LayerCount: 2
Fore
SplineSet
1029 1287 m 0,0,1
 924 1339 924 1339 790 1339 c 0,2,3
 679 1339 679 1339 584.5 1299 c 128,-1,4
 490 1259 490 1259 421 1180.5 c 128,-1,5
 352 1102 352 1102 313 985 c 128,-1,6
 274 868 274 868 274 714 c 0,7,8
 274 669 274 669 280 619.5 c 128,-1,9
 286 570 286 570 298 521.5 c 128,-1,10
 310 473 310 473 328 426.5 c 128,-1,11
 346 380 346 380 371 340 c 1,12,13
 388 359 388 359 427 402 c 128,-1,14
 466 445 466 445 519.5 502.5 c 128,-1,15
 573 560 573 560 636 628.5 c 128,-1,16
 699 697 699 697 763.5 768 c 128,-1,17
 828 839 828 839 891 907.5 c 128,-1,18
 954 976 954 976 1007.5 1033.5 c 128,-1,19
 1061 1091 1061 1091 1100 1134 c 128,-1,20
 1139 1177 1139 1177 1156 1196 c 1,21,22
 1085 1260 1085 1260 1029 1287 c 0,0,1
807 128 m 0,23,24
 926 128 926 128 1019 175.5 c 128,-1,25
 1112 223 1112 223 1177 307.5 c 128,-1,26
 1242 392 1242 392 1276 507 c 128,-1,27
 1310 622 1310 622 1310 757 c 0,28,29
 1310 823 1310 823 1300 884 c 128,-1,30
 1290 945 1290 945 1271 1000 c 0,31,32
 1263 1025 1263 1025 1244.5 1060.5 c 128,-1,33
 1226 1096 1226 1096 1206 1133 c 1,34,35
 1112 1030 1112 1030 1013.5 922 c 128,-1,36
 915 814 915 814 816 705.5 c 128,-1,37
 717 597 717 597 618.5 489 c 128,-1,38
 520 381 520 381 425 277 c 1,39,40
 462 240 462 240 499.5 212 c 128,-1,41
 537 184 537 184 579 165 c 0,42,43
 662 128 662 128 807 128 c 0,23,24
123 -35 m 1,44,45
 107 -20 107 -20 92.5 -6.5 c 128,-1,46
 78 7 78 7 62 22 c 1,47,-1
 237 203 l 1,48,49
 198 256 198 256 168 318 c 128,-1,50
 138 380 138 380 117 447 c 128,-1,51
 96 514 96 514 85.5 585 c 128,-1,52
 75 656 75 656 75 727 c 0,53,54
 75 894 75 894 124 1037.5 c 128,-1,55
 173 1181 173 1181 264 1286 c 128,-1,56
 355 1391 355 1391 485 1451 c 128,-1,57
 615 1511 615 1511 776 1511 c 0,58,59
 952 1511 952 1511 1077 1465 c 128,-1,60
 1202 1419 1202 1419 1284 1342 c 1,61,62
 1320 1380 1320 1380 1362 1425 c 128,-1,63
 1404 1470 1404 1470 1440 1509 c 1,64,65
 1456 1493 1456 1493 1469.5 1480 c 128,-1,66
 1483 1467 1483 1467 1499 1452 c 1,67,-1
 1341 1278 l 1,68,69
 1369 1243 1369 1243 1395.5 1196.5 c 128,-1,70
 1422 1150 1422 1150 1447 1098 c 1,71,72
 1476 1025 1476 1025 1491.5 939.5 c 128,-1,73
 1507 854 1507 854 1507 760 c 0,74,75
 1507 581 1507 581 1454.5 433 c 128,-1,76
 1402 285 1402 285 1307.5 179.5 c 128,-1,77
 1213 74 1213 74 1080.5 15.5 c 128,-1,78
 948 -43 948 -43 789 -43 c 0,79,80
 701 -43 701 -43 616 -25.5 c 128,-1,81
 531 -8 531 -8 465 20 c 1,82,83
 420 41 420 41 376.5 72.5 c 128,-1,84
 333 104 333 104 293 139 c 1,85,-1
 123 -35 l 1,44,45
EndSplineSet
Substitution2: "<17001,16003> Urdu lookup 89 subtable" Oslash
EndChar

StartChar: infinity
Encoding: 8734 8734 147
Width: 1455
GlyphClass: 2
Flags: W
LayerCount: 2
Fore
SplineSet
1057 970 m 0,0,1
 963 970 963 970 888 869 c 0,2,3
 814 771 814 771 814 737 c 0,4,5
 814 722 814 722 833 685.5 c 128,-1,6
 852 649 852 649 889 597 c 0,7,8
 925 546 925 546 970 519 c 128,-1,9
 1015 492 1015 492 1058 491 c 1,10,11
 1104 491 1104 491 1141 510 c 128,-1,12
 1178 529 1178 529 1204.5 562.5 c 128,-1,13
 1231 596 1231 596 1245 641 c 128,-1,14
 1259 686 1259 686 1259 737 c 0,15,16
 1259 785 1259 785 1244.5 827.5 c 128,-1,17
 1230 870 1230 870 1204 901.5 c 128,-1,18
 1178 933 1178 933 1140.5 951.5 c 128,-1,19
 1103 970 1103 970 1057 970 c 0,0,1
390 487 m 0,20,21
 435 487 435 487 480.5 516 c 128,-1,22
 526 545 526 545 566 599 c 1,23,24
 608 653 608 653 627.5 691.5 c 128,-1,25
 647 730 647 730 647 746 c 0,26,27
 647 757 647 757 624 790 c 128,-1,28
 601 823 601 823 559 871 c 0,29,30
 469 973 469 973 381 973 c 0,31,32
 342 973 342 973 308.5 954.5 c 128,-1,33
 275 936 275 936 250 903 c 128,-1,34
 225 870 225 870 210.5 824.5 c 128,-1,35
 196 779 196 779 196 725 c 0,36,37
 196 668 196 668 213 623.5 c 128,-1,38
 230 579 230 579 257 548.5 c 128,-1,39
 284 518 284 518 319 502.5 c 128,-1,40
 354 487 354 487 390 487 c 0,20,21
712 561 m 1,41,-1
 712 562 l 1,42,43
 677 504 677 504 641 462.5 c 128,-1,44
 605 421 605 421 565.5 395 c 128,-1,45
 526 369 526 369 482.5 356.5 c 128,-1,46
 439 344 439 344 389 344 c 0,47,48
 313 344 313 344 250 373 c 128,-1,49
 187 402 187 402 141.5 454 c 128,-1,50
 96 506 96 506 71 577.5 c 128,-1,51
 46 649 46 649 46 734 c 0,52,53
 46 813 46 813 69.5 883.5 c 128,-1,54
 93 954 93 954 137 1007.5 c 128,-1,55
 181 1061 181 1061 244 1092 c 128,-1,56
 307 1123 307 1123 385 1123 c 0,57,58
 486 1123 486 1123 566 1061.5 c 128,-1,59
 646 1000 646 1000 717 863 c 1,60,61
 751 923 751 923 784.5 969.5 c 128,-1,62
 818 1016 818 1016 847 1042 c 0,63,64
 892 1082 892 1082 949 1103.5 c 128,-1,65
 1006 1125 1006 1125 1069 1125 c 0,66,67
 1147 1125 1147 1125 1209.5 1092.5 c 128,-1,68
 1272 1060 1272 1060 1315 1006 c 128,-1,69
 1358 952 1358 952 1381 882 c 128,-1,70
 1404 812 1404 812 1404 737 c 256,71,72
 1404 662 1404 662 1382 591 c 128,-1,73
 1360 520 1360 520 1318 465.5 c 128,-1,74
 1276 411 1276 411 1215 377.5 c 128,-1,75
 1154 344 1154 344 1075 344 c 0,76,77
 1015 344 1015 344 963.5 364 c 128,-1,78
 912 384 912 384 870 420 c 0,79,80
 833 452 833 452 800 499.5 c 128,-1,81
 767 547 767 547 736 604 c 1,82,-1
 712 561 l 1,41,-1
EndSplineSet
Substitution2: "<17001,16003> Urdu lookup 89 subtable" infinity
EndChar

StartChar: plusminus
Encoding: 177 177 148
Width: 1100
GlyphClass: 2
Flags: W
LayerCount: 2
Fore
SplineSet
1004 205 m 1,0,-1
 1004 72 l 1,1,-1
 101 72 l 1,2,-1
 101 205 l 1,3,-1
 1004 205 l 1,0,-1
101 558 m 1,4,-1
 101 689 l 1,5,-1
 481 689 l 1,6,-1
 481 977 l 1,7,-1
 624 977 l 1,8,-1
 624 689 l 1,9,-1
 1004 689 l 1,10,-1
 1004 558 l 1,11,-1
 624 558 l 1,12,-1
 624 281 l 1,13,-1
 481 281 l 1,14,-1
 481 558 l 1,15,-1
 101 558 l 1,4,-1
EndSplineSet
Substitution2: "<17001,16003> Urdu lookup 89 subtable" plusminus
EndChar

StartChar: lessequal
Encoding: 8804 8804 149
Width: 1100
GlyphClass: 2
Flags: W
LayerCount: 2
Fore
SplineSet
1006 72 m 1,0,-1
 100 72 l 1,1,-1
 100 207 l 1,2,-1
 1006 207 l 1,3,-1
 1006 72 l 1,0,-1
1006 995 m 1,4,-1
 1006 846 l 1,5,-1
 271 618 l 1,6,7
 346 595 346 595 423.5 571 c 128,-1,8
 501 547 501 547 576 524 c 1,9,-1
 575 524 l 1,10,11
 684 489 684 489 790.5 456 c 128,-1,12
 897 423 897 423 1006 389 c 1,13,-1
 1006 239 l 1,14,15
 777 317 777 317 553 392.5 c 128,-1,16
 329 468 329 468 100 546 c 1,17,-1
 100 689 l 1,18,-1
 1006 995 l 1,4,-1
EndSplineSet
Substitution2: "<17001,16003> Urdu lookup 89 subtable" lessequal
EndChar

StartChar: greaterequal
Encoding: 8805 8805 150
Width: 1100
GlyphClass: 2
Flags: W
LayerCount: 2
Fore
SplineSet
1002 213 m 1,0,-1
 1002 80 l 1,1,-1
 97 80 l 1,2,-1
 97 213 l 1,3,-1
 1002 213 l 1,0,-1
97 1001 m 1,4,5
 325 925 325 925 549.5 849 c 128,-1,6
 774 773 774 773 1002 695 c 1,7,-1
 1002 553 l 1,8,9
 774 476 774 476 549.5 399.5 c 128,-1,10
 325 323 325 323 97 246 c 1,11,-1
 97 396 l 1,12,-1
 832 624 l 1,13,14
 816 629 816 629 780.5 639.5 c 128,-1,15
 745 650 745 650 696 666 c 128,-1,16
 647 682 647 682 588 699.5 c 128,-1,17
 529 717 529 717 468 736 c 128,-1,18
 407 755 407 755 348 773 c 128,-1,19
 289 791 289 791 239 806.5 c 128,-1,20
 189 822 189 822 152 834 c 128,-1,21
 115 846 115 846 97 852 c 1,22,-1
 97 1001 l 1,4,5
EndSplineSet
Substitution2: "<17001,16003> Urdu lookup 89 subtable" greaterequal
EndChar

StartChar: yen
Encoding: 165 165 151
Width: 1134
GlyphClass: 2
Flags: W
LayerCount: 2
Fore
SplineSet
183 1405 m 1,0,-1
 552 723 l 1,1,2
 557 733 557 733 573.5 763.5 c 128,-1,3
 590 794 590 794 614 839 c 128,-1,4
 638 884 638 884 668 938.5 c 128,-1,5
 698 993 698 993 729.5 1050.5 c 128,-1,6
 761 1108 761 1108 791.5 1164.5 c 128,-1,7
 822 1221 822 1221 848.5 1269 c 128,-1,8
 875 1317 875 1317 894.5 1353 c 128,-1,9
 914 1389 914 1389 923 1405 c 1,10,-1
 1138 1405 l 1,11,-1
 872 958 l 1,12,-1
 1050 958 l 1,13,-1
 1050 829 l 1,14,-1
 799 829 l 1,15,16
 767 775 767 775 732.5 716.5 c 128,-1,17
 698 658 698 658 664 601 c 1,18,-1
 1017 601 l 1,19,-1
 1017 473 l 1,20,-1
 643 473 l 1,21,-1
 643 0 l 1,22,-1
 460 0 l 1,23,-1
 460 473 l 1,24,-1
 96 473 l 1,25,-1
 96 601 l 1,26,-1
 439 601 l 1,27,-1
 371 718 l 2,28,29
 355 745 355 745 338 773.5 c 128,-1,30
 321 802 321 802 305 829 c 1,31,-1
 48 829 l 1,32,-1
 48 958 l 1,33,-1
 232 958 l 1,34,35
 224 972 224 972 203 1007.5 c 128,-1,36
 182 1043 182 1043 155 1089 c 128,-1,37
 128 1135 128 1135 98 1185.5 c 128,-1,38
 68 1236 68 1236 41.5 1281 c 128,-1,39
 15 1326 15 1326 -5 1359.5 c 128,-1,40
 -25 1393 -25 1393 -32 1405 c 1,41,-1
 183 1405 l 1,0,-1
EndSplineSet
Substitution2: "<17001,16003> Urdu lookup 89 subtable" yen
EndChar

StartChar: mu
Encoding: 181 181 152
Width: 1175
GlyphClass: 2
Flags: W
LayerCount: 2
Fore
SplineSet
443 1067 m 1,0,1
 442 1062 442 1062 434.5 1028 c 128,-1,2
 427 994 427 994 416 941.5 c 128,-1,3
 405 889 405 889 390.5 823 c 128,-1,4
 376 757 376 757 361.5 689 c 128,-1,5
 347 621 347 621 332.5 555 c 128,-1,6
 318 489 318 489 307 436.5 c 128,-1,7
 296 384 296 384 288.5 350 c 128,-1,8
 281 316 281 316 280 311 c 0,9,10
 276 294 276 294 274.5 281.5 c 128,-1,11
 273 269 273 269 273 253 c 0,12,13
 273 184 273 184 312 152.5 c 128,-1,14
 351 121 351 121 429 121 c 0,15,16
 504 121 504 121 567.5 151.5 c 128,-1,17
 631 182 631 182 680.5 232.5 c 128,-1,18
 730 283 730 283 764 347.5 c 128,-1,19
 798 412 798 412 813 480 c 1,20,21
 816 488 816 488 825 530.5 c 128,-1,22
 834 573 834 573 847 632.5 c 128,-1,23
 860 692 860 692 874.5 761.5 c 128,-1,24
 889 831 889 831 902.5 893.5 c 128,-1,25
 916 956 916 956 926 1003.5 c 128,-1,26
 936 1051 936 1051 940 1067 c 1,27,-1
 1116 1067 l 1,28,29
 1059 798 1059 798 1001.5 533.5 c 128,-1,30
 944 269 944 269 886 0 c 1,31,-1
 721 0 l 1,32,-1
 762 172 l 1,33,-1
 754 175 l 1,34,35
 729 135 729 135 689 98.5 c 128,-1,36
 649 62 649 62 600 34 c 128,-1,37
 551 6 551 6 496.5 -11 c 128,-1,38
 442 -28 442 -28 389 -28 c 0,39,40
 369 -28 369 -28 344.5 -23.5 c 128,-1,41
 320 -19 320 -19 296.5 -11 c 128,-1,42
 273 -3 273 -3 252.5 8 c 128,-1,43
 232 19 232 19 218 31 c 1,44,45
 214 13 214 13 206 -24.5 c 128,-1,46
 198 -62 198 -62 188 -108.5 c 128,-1,47
 178 -155 178 -155 167.5 -205.5 c 128,-1,48
 157 -256 157 -256 147.5 -300.5 c 128,-1,49
 138 -345 138 -345 130.5 -378.5 c 128,-1,50
 123 -412 123 -412 120 -424 c 1,51,-1
 -58 -424 l 1,52,53
 23 -49 23 -49 103.5 322 c 128,-1,54
 184 693 184 693 265 1067 c 1,55,-1
 443 1067 l 1,0,1
EndSplineSet
Substitution2: "<17001,16003> Urdu lookup 89 subtable" mu
EndChar

StartChar: partialdiff
Encoding: 8706 8706 153
Width: 1100
GlyphClass: 2
Flags: W
LayerCount: 2
Fore
SplineSet
500 111 m 0,0,1
 555 111 555 111 603.5 142.5 c 128,-1,2
 652 174 652 174 688.5 224.5 c 128,-1,3
 725 275 725 275 746 338.5 c 128,-1,4
 767 402 767 402 767 466 c 0,5,6
 767 528 767 528 748.5 576.5 c 128,-1,7
 730 625 730 625 699.5 658 c 128,-1,8
 669 691 669 691 629 708.5 c 128,-1,9
 589 726 589 726 546 726 c 0,10,11
 487 726 487 726 438 695 c 128,-1,12
 389 664 389 664 354 615 c 128,-1,13
 319 566 319 566 299.5 505 c 128,-1,14
 280 444 280 444 280 384 c 0,15,16
 280 325 280 325 298 275 c 128,-1,17
 316 225 316 225 346 188.5 c 128,-1,18
 376 152 376 152 416 131.5 c 128,-1,19
 456 111 456 111 500 111 c 0,0,1
523 891 m 0,20,21
 631 891 631 891 700 841 c 128,-1,22
 769 791 769 791 818 693 c 1,23,-1
 826 695 l 1,24,-1
 826 708 l 1,25,26
 828 746 828 746 829 780 c 128,-1,27
 830 814 830 814 830 832 c 0,28,29
 830 943 830 943 814.5 1037.5 c 128,-1,30
 799 1132 799 1132 770.5 1201 c 128,-1,31
 742 1270 742 1270 702 1309 c 128,-1,32
 662 1348 662 1348 613 1348 c 0,33,34
 580 1348 580 1348 552 1334 c 128,-1,35
 524 1320 524 1320 498 1297 c 1,36,37
 465 1336 465 1336 434.5 1374 c 128,-1,38
 404 1412 404 1412 372 1451 c 1,39,40
 405 1470 405 1470 432 1482 c 128,-1,41
 459 1494 459 1494 483.5 1500.5 c 128,-1,42
 508 1507 508 1507 532 1509.5 c 128,-1,43
 556 1512 556 1512 584 1512 c 0,44,45
 683 1512 683 1512 762 1460 c 128,-1,46
 841 1408 841 1408 896 1312.5 c 128,-1,47
 951 1217 951 1217 980 1082 c 128,-1,48
 1009 947 1009 947 1009 782 c 0,49,50
 1009 671 1009 671 991.5 567 c 128,-1,51
 974 463 974 463 940.5 372 c 128,-1,52
 907 281 907 281 859 205.5 c 128,-1,53
 811 130 811 130 750.5 76 c 128,-1,54
 690 22 690 22 618.5 -8 c 128,-1,55
 547 -38 547 -38 466 -38 c 0,56,57
 384 -38 384 -38 315 -4.5 c 128,-1,58
 246 29 246 29 196.5 87.5 c 128,-1,59
 147 146 147 146 119.5 225 c 128,-1,60
 92 304 92 304 92 395 c 256,61,62
 92 486 92 486 121.5 568.5 c 128,-1,63
 151 651 151 651 211 732 c 0,64,65
 330 891 330 891 523 891 c 0,20,21
EndSplineSet
Substitution2: "<17001,16003> Urdu lookup 89 subtable" partialdiff
EndChar

StartChar: partialdiff_mirror
Encoding: 59601 59601 154
Width: 1100
GlyphClass: 2
Flags: W
LayerCount: 2
Fore
SplineSet
601 111 m 0,0,1
 646 111 646 111 686 131.5 c 128,-1,2
 726 152 726 152 756 189 c 128,-1,3
 786 226 786 226 803.5 276 c 128,-1,4
 821 326 821 326 821 384 c 0,5,6
 821 443 821 443 802 503.5 c 128,-1,7
 783 564 783 564 748 613.5 c 128,-1,8
 713 663 713 663 664 694.5 c 128,-1,9
 615 726 615 726 555 726 c 0,10,11
 512 726 512 726 472 708.5 c 128,-1,12
 432 691 432 691 401 658 c 128,-1,13
 370 625 370 625 352 576.5 c 128,-1,14
 334 528 334 528 334 466 c 0,15,16
 334 402 334 402 355 338.5 c 128,-1,17
 376 275 376 275 412.5 224.5 c 128,-1,18
 449 174 449 174 497.5 142.5 c 128,-1,19
 546 111 546 111 601 111 c 0,0,1
273 773 m 1,20,21
 275 764 275 764 275 752 c 128,-1,22
 275 740 275 740 275 727 c 2,23,-1
 275 695 l 1,24,-1
 283 693 l 1,25,26
 332 791 332 791 400.5 841 c 128,-1,27
 469 891 469 891 578 891 c 0,28,29
 773 891 773 891 890 732 c 0,30,31
 950 651 950 651 979.5 568.5 c 128,-1,32
 1009 486 1009 486 1009 395 c 256,33,34
 1009 304 1009 304 981.5 225 c 128,-1,35
 954 146 954 146 904.5 87.5 c 128,-1,36
 855 29 855 29 786.5 -4.5 c 128,-1,37
 718 -38 718 -38 635 -38 c 0,38,39
 554 -38 554 -38 482.5 -8 c 128,-1,40
 411 22 411 22 350.5 76 c 128,-1,41
 290 130 290 130 242 205.5 c 128,-1,42
 194 281 194 281 160.5 372 c 128,-1,43
 127 463 127 463 109.5 567 c 128,-1,44
 92 671 92 671 92 782 c 0,45,46
 92 947 92 947 121 1081.5 c 128,-1,47
 150 1216 150 1216 205 1311.5 c 128,-1,48
 260 1407 260 1407 339 1459.5 c 128,-1,49
 418 1512 418 1512 517 1512 c 0,50,51
 545 1512 545 1512 569 1509.5 c 128,-1,52
 593 1507 593 1507 617.5 1500.5 c 128,-1,53
 642 1494 642 1494 668.5 1482 c 128,-1,54
 695 1470 695 1470 729 1451 c 1,55,56
 697 1413 697 1413 666 1374 c 128,-1,57
 635 1335 635 1335 603 1297 c 1,58,59
 577 1320 577 1320 549 1334 c 128,-1,60
 521 1348 521 1348 488 1348 c 0,61,62
 439 1348 439 1348 399 1309.5 c 128,-1,63
 359 1271 359 1271 330.5 1202 c 128,-1,64
 302 1133 302 1133 286.5 1038.5 c 128,-1,65
 271 944 271 944 271 832 c 0,66,67
 271 824 271 824 271.5 811.5 c 128,-1,68
 272 799 272 799 273 784 c 1,69,-1
 273 773 l 1,20,21
EndSplineSet
Substitution2: "<17001,16003> Urdu lookup 89 subtable" partialdiff_mirror
EndChar

StartChar: summation
Encoding: 8721 8721 155
Width: 1100
GlyphClass: 2
Flags: W
LayerCount: 2
Fore
SplineSet
8 -138 m 1,0,-1
 595 599 l 1,1,2
 582 615 582 615 553.5 649.5 c 128,-1,3
 525 684 525 684 487 731.5 c 128,-1,4
 449 779 449 779 404.5 835 c 128,-1,5
 360 891 360 891 314.5 948.5 c 128,-1,6
 269 1006 269 1006 224 1062 c 128,-1,7
 179 1118 179 1118 141 1165.5 c 128,-1,8
 103 1213 103 1213 74 1248.5 c 128,-1,9
 45 1284 45 1284 31 1300 c 1,10,-1
 31 1469 l 1,11,-1
 1061 1469 l 1,12,-1
 1061 1303 l 1,13,-1
 261 1303 l 1,14,-1
 768 667 l 1,15,16
 783 650 783 650 797.5 633 c 128,-1,17
 812 616 812 616 827 599 c 1,18,-1
 241 -136 l 1,19,-1
 1092 -136 l 1,20,-1
 1092 -302 l 1,21,-1
 8 -302 l 1,22,-1
 8 -138 l 1,0,-1
EndSplineSet
Substitution2: "<17001,16003> Urdu lookup 89 subtable" summation
EndChar

StartChar: summation_mirror
Encoding: 59602 59602 156
Width: 1100
GlyphClass: 2
Flags: W
LayerCount: 2
Fore
SplineSet
1092 -302 m 1,0,-1
 8 -302 l 1,1,-1
 8 -136 l 1,2,-1
 859 -136 l 1,3,4
 844 -119 844 -119 814.5 -82.5 c 128,-1,5
 785 -46 785 -46 745.5 4 c 128,-1,6
 706 54 706 54 659.5 112.5 c 128,-1,7
 613 171 613 171 565.5 231.5 c 128,-1,8
 518 292 518 292 471.5 351 c 128,-1,9
 425 410 425 410 386 459.5 c 128,-1,10
 347 509 347 509 317 546 c 128,-1,11
 287 583 287 583 273 599 c 1,12,-1
 839 1303 l 1,13,-1
 39 1303 l 1,14,-1
 39 1469 l 1,15,-1
 1069 1469 l 1,16,-1
 1069 1300 l 1,17,-1
 505 599 l 1,18,19
 519 583 519 583 549 546 c 128,-1,20
 579 509 579 509 618.5 459 c 128,-1,21
 658 409 658 409 704.5 350 c 128,-1,22
 751 291 751 291 799 230 c 128,-1,23
 847 169 847 169 893.5 110 c 128,-1,24
 940 51 940 51 979 1.5 c 128,-1,25
 1018 -48 1018 -48 1048 -85 c 128,-1,26
 1078 -122 1078 -122 1092 -138 c 1,27,-1
 1092 -302 l 1,0,-1
EndSplineSet
Substitution2: "<17001,16003> Urdu lookup 89 subtable" summation_mirror
EndChar

StartChar: product
Encoding: 8719 8719 157
Width: 1681
GlyphClass: 2
Flags: W
LayerCount: 2
Fore
SplineSet
1550 1469 m 1,0,-1
 1550 1303 l 1,1,-1
 1372 1303 l 1,2,-1
 1372 -302 l 1,3,-1
 1178 -302 l 1,4,-1
 1178 1303 l 1,5,-1
 498 1303 l 1,6,-1
 498 -302 l 1,7,-1
 304 -302 l 1,8,-1
 304 1303 l 1,9,-1
 126 1303 l 1,10,-1
 126 1469 l 1,11,-1
 1550 1469 l 1,0,-1
EndSplineSet
Substitution2: "<17001,16003> Urdu lookup 89 subtable" product
EndChar

StartChar: pi
Encoding: 960 960 158
Width: 1119
GlyphClass: 2
Flags: W
LayerCount: 2
Fore
SplineSet
-26 1063 m 1,0,-1
 1129 1063 l 1,1,-1
 1129 910 l 1,2,-1
 981 910 l 1,3,-1
 981 246 l 2,4,5
 981 186 981 186 1000 159 c 128,-1,6
 1019 132 1019 132 1061 132 c 0,7,8
 1087 132 1087 132 1107 133.5 c 128,-1,9
 1127 135 1127 135 1143 140 c 1,10,-1
 1143 -11 l 1,11,12
 1098 -20 1098 -20 997 -20 c 0,13,14
 936 -20 936 -20 898.5 -0.5 c 128,-1,15
 861 19 861 19 840 53.5 c 128,-1,16
 819 88 819 88 811.5 135.5 c 128,-1,17
 804 183 804 183 804 238 c 2,18,-1
 804 910 l 1,19,-1
 299 910 l 1,20,-1
 299 0 l 1,21,-1
 123 0 l 1,22,-1
 123 910 l 1,23,-1
 -26 910 l 1,24,-1
 -26 1063 l 1,0,-1
EndSplineSet
Substitution2: "<17001,16003> Urdu lookup 89 subtable" pi
EndChar

StartChar: integral
Encoding: 8747 8747 159
Width: 1100
GlyphClass: 2
Flags: W
LayerCount: 2
Fore
SplineSet
549 1354 m 0,0,1
 624 1546 624 1546 823 1546 c 0,2,3
 859 1546 859 1546 891 1540.5 c 128,-1,4
 923 1535 923 1535 966 1519 c 1,5,6
 962 1480 962 1480 959 1442 c 128,-1,7
 956 1404 956 1404 952 1366 c 1,8,9
 913 1382 913 1382 889 1389.5 c 128,-1,10
 865 1397 865 1397 839 1397 c 0,11,12
 792 1397 792 1397 761.5 1375 c 128,-1,13
 731 1353 731 1353 711.5 1304 c 128,-1,14
 692 1255 692 1255 682 1176 c 128,-1,15
 672 1097 672 1097 666 983 c 0,16,17
 658 814 658 814 649.5 639.5 c 128,-1,18
 641 465 641 465 633 296 c 1,19,20
 622 118 622 118 602 -16.5 c 128,-1,21
 582 -151 582 -151 541 -241 c 128,-1,22
 500 -331 500 -331 432.5 -376.5 c 128,-1,23
 365 -422 365 -422 259 -422 c 0,24,25
 221 -422 221 -422 191.5 -415.5 c 128,-1,26
 162 -409 162 -409 135 -399 c 1,27,28
 138 -359 138 -359 142 -320.5 c 128,-1,29
 146 -282 146 -282 149 -243 c 1,30,31
 173 -255 173 -255 196.5 -262 c 128,-1,32
 220 -269 220 -269 248 -269 c 0,33,34
 292 -269 292 -269 324.5 -250.5 c 128,-1,35
 357 -232 357 -232 379.5 -189.5 c 128,-1,36
 402 -147 402 -147 415.5 -77 c 128,-1,37
 429 -7 429 -7 435 96 c 0,38,39
 435 101 435 101 437.5 140.5 c 128,-1,40
 440 180 440 180 443.5 242 c 128,-1,41
 447 304 447 304 452 381.5 c 128,-1,42
 457 459 457 459 461.5 539.5 c 128,-1,43
 466 620 466 620 471 697.5 c 128,-1,44
 476 775 476 775 479.5 837 c 128,-1,45
 483 899 483 899 485.5 938.5 c 128,-1,46
 488 978 488 978 488 983 c 0,47,48
 505 1242 505 1242 549 1354 c 0,0,1
EndSplineSet
Substitution2: "<17001,16003> Urdu lookup 89 subtable" integral
EndChar

